<?xml version="1.0" encoding="UTF-8"?>
<svg id="Camada_1" data-name="Camada 1" xmlns="http://www.w3.org/2000/svg" xmlns:xlink="http://www.w3.org/1999/xlink" viewBox="0 0 600 600">
  <defs>
    <style>
      .cls-1 {
        fill: #fff;
      }

      .cls-2 {
        filter: url(#drop-shadow-2);
      }

      .cls-3 {
        fill: #37474f;
        filter: url(#drop-shadow-1);
      }
    </style>
    <filter id="drop-shadow-1" filterUnits="userSpaceOnUse">
      <feOffset dx="7" dy="7"/>
      <feGaussianBlur result="blur" stdDeviation="5"/>
      <feFlood flood-color="#000" flood-opacity=".75"/>
      <feComposite in2="blur" operator="in"/>
      <feComposite in="SourceGraphic"/>
    </filter>
    <filter id="drop-shadow-2" filterUnits="userSpaceOnUse">
      <feOffset dx="7" dy="7"/>
      <feGaussianBlur result="blur-2" stdDeviation="5"/>
      <feFlood flood-color="#000" flood-opacity=".75"/>
      <feComposite in2="blur-2" operator="in"/>
      <feComposite in="SourceGraphic"/>
    </filter>
  </defs>
  <rect class="cls-3" x="14.13" y="14.13" width="571.74" height="571.74" rx="126.17" ry="126.17"/>
  <g class="cls-2">
    <polygon class="cls-1" points="177.3 145.33 422.7 145.33 422.7 163.32 279.69 163.32 279.69 481.65 422.7 481.65 422.7 499.64 177.3 499.64 177.3 481.65 252.06 481.65 252.06 163.32 177.3 163.32 177.3 145.33"/>
    <g>
      <rect class="cls-1" x="177.3" y="436.68" width="74.76" height="17.99"/>
      <polygon class="cls-1" points="422.7 118.35 422.7 100.36 177.3 100.36 177.3 118.35 320.31 118.35 320.31 436.68 279.69 436.68 279.69 454.67 422.7 454.67 422.7 436.68 347.94 436.68 347.94 118.35 422.7 118.35"/>
    </g>
  </g>
</svg>