<?xml version="1.0" encoding="UTF-8"?>
<svg id="Layer_1" data-name="Layer 1" xmlns="http://www.w3.org/2000/svg" viewBox="0 0 444.45 436.79">
  <defs>
    <style>
      .cls-1 {
        fill: #ebebeb;
      }

      .cls-2 {
        fill: #f5f5f5;
      }

      .cls-3 {
        fill: #fff;
      }

      .cls-4 {
        fill: #fafafa;
      }

      .cls-5 {
        fill: #b78876;
      }

      .cls-6 {
        fill: #aa6550;
      }

      .cls-7 {
        fill: #e0e0e0;
      }

      .cls-8 {
        fill: #455a64;
      }

      .cls-9 {
        fill: #263238;
      }

      .cls-10 {
        fill: #36c727;
      }

      .cls-11, .cls-12 {
        opacity: .3;
      }

      .cls-13 {
        opacity: .4;
      }

      .cls-14 {
        opacity: .6;
      }

      .cls-12 {
        isolation: isolate;
      }
    </style>
  </defs>
  <g id="freepik--background-complete--inject-2">
    <rect class="cls-2" x="18.86" y="97.69" width="70.88" height="70.88" rx="5.4" ry="5.4" transform="translate(-85.3 167.52) rotate(-81.65)"/>
    <path class="cls-3" d="M57.7,109.96c-11.92-1.75-23.1,7.21-25,20s6.31,24.61,18.2,26.36,23.11-7.22,25-20-6.27-24.64-18.2-26.36Zm.31,38.3c-1.39,2.05-3.85,3.08-6.28,2.64-3.12-.67-5.48-3.22-5.91-6.38-.31-4.31-.08-8.64,.69-12.89,.76-5.19,2.15-10.64,3.94-13.85s4.64-4.07,6.62-3.78,4.89,1.66,5.75,6.51c.66,3.69,.24,8-.56,13.43-.79,5.67-1.98,11.13-4.25,14.32Z"/>
    <path class="cls-2" d="M381.01,70.01c-.53-1.53-.94-3.1-1.24-4.7-.15-.87-.67-1.64-1.42-2.11-.55-.17-1.12-.3-1.69-.39-2-.59-2.54-3.37-4.42-4.23-.61-.23-1.25-.36-1.9-.4-2.52-.3-5.13-1.17-6.72-3.15-.45-.69-.97-1.33-1.55-1.92-.62-.58-1.56-.67-2.28-.21l1.58,3.18c.42,.99,1.01,1.89,1.76,2.66,.79,.77,1.96,1.02,3,.63,.3-.2,.64-.33,1-.35,.26,.06,.49,.21,.65,.42,1.37,1.52,.92,4-.42,5.6-1.47,1.44-3.26,2.5-5.22,3.11-.66,.33-1.4,.47-2.13,.41-1.32-.24-2-1.68-2.4-3-.87-2.85-1.28-5.95-3.05-8.36-.62-.69-1.14-1.47-1.55-2.3-.36-1-.27-2.07-.85-2.92s-1.86-1.39-1.95-2.46c.05-.77,.54-1.43,1.25-1.72,.68-.33,1.45-.43,2.15-.71,.28-.12,.59-.32,.6-.62,0-.45-.62-.63-.78-1s.31-.91,.51-1.37c.44-1-.65-2.1-1.7-2.52s-2.31-.74-2.8-1.76c-.18-.49-.3-1-.34-1.52-.2-1.34-1.19-2.42-2.5-2.75-1.19-.22-2.33,.56-2.55,1.75-.03,.15-.04,.3-.04,.46,.24,.68,.56,1.33,.95,1.93,.29,.66,.21,1.64-.47,1.85-1.12,.34-2.2-1.7-3.13-1,.38,1.31,.75,2.62,1.14,3.94-1.47,.74-3.23-.61-3.86-2.14s-.65-3.27-1.39-4.74-2.76-2.58-4-1.53c-.06,1.89,2.44,2.66,3.55,4.19,.86,1.13,.64,2.74-.49,3.6,0,0,0,0-.01,0-1.17,.7-3-.52-2.59-1.81,.16-.45,.53-.82,.57-1.3s-.45-1.07-.91-1.46l-2.14-1.8c-.44-.41-.96-.74-1.52-.95-1.47-.43-2.94,.76-3.72,2.07-.78,1.31-1.21,2.87-2.29,4-1.63,1.63-4.28,1.64-5.91,0,0,0,0,0,0,0-1.46-1.67-.71-4.8,1.43-5.41,.81-.22,1.83-.2,2.26-.91,.74-1.27-1.39-2.89-.65-4.16,.56-1,2.05-.54,3.14-.87s1.68-1.41,2.32-2.35,1.62-1.86,2.72-1.62c-.15-.64-.11-1.32,.12-1.94,.26-.6,.96-.88,1.56-.62,.02,0,.04,.02,.07,.03-.4,1,.06,2.15,1.05,2.58,.99,.36,2.07,.44,3.1,.23,1.05-.13,2.36-.51,2.44-1.56-.04-.33-.04-.67,0-1,.46-1.24,2.76,.47,3.64-.53,.52-.52-.05-1.45-.76-1.62-.72-.06-1.45-.03-2.16,.11-.73,0-1.61-.35-1.64-1.08s.76-1.22,.85-1.93c.14-1.19-1.89-1.5-2.6-.53s-.46,2.3-.24,3.48,.33,2.58-.55,3.41c-.37,.57-1.34,.27-1.66-.33-.24-.64-.35-1.32-.31-2,.03-.7-.37-1.34-1-1.63-.48-.04-.96,.01-1.42,.16-1.85,.22-3.14-2.17-2.55-3.94s2.26-2.92,3.89-3.82c1.19-.66,2.67-1.28,3.85-.61,.55,.31,.94,.84,1.48,1.16,.94,.56,2.1,.35,3.17,.37,1.72,.04,3.37,.66,4.68,1.77,.47,.44,.92,1.16,.55,1.69s-1.57,.67-1.36,1.32c1.24,.29,2.49-.48,2.78-1.72,.01-.05,.02-.1,.03-.15,.63,.29,1.06,.89,1.12,1.58,1.41-1.29,3.6-1.2,4.89,.21,.06,.06,.12,.13,.17,.2,.24,.45,.55,.86,.93,1.21,.43,.27,1.18,.14,1.23-.36,0-.16-.02-.32-.09-.47-.25-.73-.52-1.44-.77-2.15,1-.54,2.16,.29,2.83,1.19,2.49,3.33,4.27,1.33,7.78,1.87,2.38,.36,3.42,1.89,4.76,3.73,4.15,5.66,9.57,10.35,13.31,16.23,.39,.61,.76,1.24,1.1,1.88-.07-.16-.12-.32-.18-.48-1.46-3.83-3.28-7.51-5.43-11-.46-.74-.93-1.48-1.41-2.2-.3-.45-.61-.91-.92-1.34-.39-.58-.8-1.13-1.22-1.69s-.66-.88-1-1.31l-.72-.89c-.26-.34-.54-.67-.84-1l-.89-1c-.09-.11-.19-.21-.29-.31-.31-.37-.64-.72-1-1.07-.02-.04-.05-.08-.09-.11-.09-.09-.18-.19-.28-.28-.27-.3-.55-.59-.83-.88-.46-.46-.93-.93-1.41-1.38s-.75-.82-1.18-1.22-.72-.66-1.1-1l-1.09-.94c-.45-.38-.91-.75-1.38-1.13h0c-1.29-1-2.62-2-4-2.92-.34-.24-.67-.46-1-.68s-.69-.45-1-.67l-1.05-.63c-.35-.23-.7-.43-1.05-.63l-.85-.48c-.14-.09-.29-.17-.44-.25-.61-.34-1.22-.67-1.84-1-.31-.16-.62-.32-.94-.46s-.8-.4-1.2-.58l-.18-.08c-.36-.17-.73-.35-1.1-.51l-1.59-.64c-.6-.24-1.2-.49-1.8-.71s-1.35-.5-2-.72-1.37-.46-2.06-.67-1.39-.41-2.09-.6c-1.38-.37-2.79-.7-4.21-1h-.07c-.54-.11-1.09-.21-1.63-.3h-.11l-.72-.12c-1-.17-2-.31-3.07-.42l-.37-.05-.9-.09c-.69-.07-1.37-.12-2.06-.16s-1.44-.09-2.16-.11-1.51,0-2.27,0c-2,0-4,.08-5.94,.27-.47,0-.93,.04-1.38,.12l-1.44,.17c-.48,.07-1,.13-1.43,.21s-.95,.14-1.43,.23-.82,.14-1.22,.22c-1,.2-2,.41-3,.64l-1.37,.35-1.37,.38c-.75,.21-1.49,.44-2.22,.68h0l-1.79,.6h0c-.61,.21-1.2,.43-1.79,.67h-.1l-1.62,.66c-.67,.28-1.33,.57-2,.87-.55,.26-1.1,.51-1.63,.78s-1.15,.57-1.71,.87h-.07c-.54,.29-1.08,.59-1.61,.9s-1.1,.63-1.64,1h0l-1.52,.93-.56,.38c-.53,.34-1,.69-1.57,1s-1.25,.9-1.87,1.35-1.08,.82-1.6,1.24c-3.01,2.42-5.8,5.1-8.36,7.99-.9,1-1.75,2-2.58,3.07s-1.39,1.8-2,2.74-1.15,1.64-1.69,2.48c.54-.84,1.11-1.67,1.69-2.48l.51-.06c.97,.03,1.93-.13,2.84-.46,.73-.48,1.43-1.02,2.08-1.61,1.85-1.33,4.89-1.57,5.39-3.78,.03-.76,.11-1.52,.24-2.27,.53-1.33,2.3-1.53,3.73-1.5,.61,0,1.32,.08,1.6,.61,.15,.4,.13,.85-.06,1.24-.9,2.5-2.62,4.62-4.89,6-1.86,1.13-4.27,2-4.78,4.11,.25,.72,1.55,.66,1.66,1.41,.07,.6-.69,.9-1,1.44-.41,.77,.52,1.72,1.4,1.68,.88-.15,1.69-.6,2.27-1.28,1.94-1.8,4-3.74,4.68-6.29,.3-1.06,.4-2.29,1.25-3,.94-.66,2.25-.44,2.91,.5,.11,.15,.19,.32,.26,.5,.84-.47,2.15-.82,2.58,0,.1,.32,.16,.66,.18,1,.28,1.37,2.14,2,2.34,3.36,.22,1.58-1.81,2.4-3.4,2.65l-4.31,.68c-.63,.05-1.25,.24-1.79,.57-.55,.37-.77,1.06-.53,1.68,.21,.28,.46,.54,.74,.76,.79,.99,.63,2.44-.36,3.23-.32,.25-.7,.42-1.11,.48-.57,0-1.14-.19-1.71-.21-1.71-.08-3.06,1.42-3.87,2.92s-1.47,3.27-2.84,4.27c-2.19,1.65-6,1.27-7,3.8-.3,1.07-.3,2.2,0,3.27,.29,1.08,.15,2.23-.39,3.21-.63,.89-2.27,1.08-2.74,.08-.16-.45-.18-.94-.06-1.41,.25-1.58,.5-3.16,.74-4.73,.33-1.15,.2-2.38-.35-3.44-1-1.34-3.14-1.22-4.4-.14-1.15,1.2-1.89,2.73-2.11,4.37-.24,1.45-.65,2.87-1.22,4.23h0c-.22,1.32-.4,2.67-.54,4s-.24,2.76-.29,4.16c.19-.16,.37-.33,.54-.51,.68-.69,2-3.62,3.24-2.18,.31,.39,.31,.94,0,1.33-.37,.48-1.12,.58-1.4,1.11s.14,1.38,.71,1.78c.63,.32,1.19,.75,1.68,1.26,.78,1.12,0,2.81,.79,4,.65,1,2,1,3.22,1.17l.4,.07c.16-2.55,2.09-4.64,4.62-5,4.41-1,10.2,2.66,12.68,6,2.77,3.71,4.08,9,8.32,10.84,3,1.33,7.35,.85,8.83,3.82,1.32,2.66-1,5.65-1.33,8.6-.23,2,.41,3.89,.56,5.84s-.44,4.24-2.21,5.06c-1,.44-2.24,.39-3,1.14-1.41,1.34-.25,4.11-1.67,5.45-.55,.4-1.16,.72-1.8,.94-3.18,1.61-3.1,6.3-1.62,9.55,0,.11,.11,.22,.16,.34,20.22,12.08,45.28,12.72,66.08,1.67h0c2.04-1.09,4.03-2.29,5.95-3.59,5.01-3.38,9.54-7.41,13.47-12,1.13-1.33,2.2-2.67,3.22-4,.52-.71,1-1.42,1.51-2.16,3.61-5.3,6.43-11.1,8.37-17.21,1.19-3.72,2.05-7.54,2.57-11.41,.2-1.51,.36-3,.47-4.59-.71,.75-1.68,1.18-2.71,1.21-1.7-.15-3.15-1.28-3.72-2.88Z"/>
    <path class="cls-1" d="M304.16,17.57c-1.34,.79-2,2.3-3.08,3.46s-2.87,2-4.08,1c-.56-.51-.9-1.24-.92-2-.08-1.07,.17-2.15,.73-3.07,.58-.94,1.46-1.68,1.95-2.68s.39-2.45-.61-2.91c-.55-.25-1.23-.16-1.71-.51-.87-.64-.25-2.15,.76-2.53,1.05-.23,2.15-.23,3.2,0,3.9,.25,6.77-2.3,9.7-4.43,2.28-1.64,7.14-3.59,9.78-1.91,1.05,.67,1.46,2.4,.47,3.16-.44,.34-1.06,.42-1.47,.79-.41,.37-.57,1.2-.85,1.81-.74,1.57-2.87,2.15-3.55,3.75-.41,1-.23,2.16-.86,3-.59,.6-1.36,.98-2.19,1.09l-5.09,1.2c-.76,.15-1.5,.41-2.18,.78Z"/>
    <path class="cls-1" d="M349.62,100.39c-1.69,2.54-2,5.72-2.46,8.73s-1.27,6.22-3.59,8.21-6.57,1.86-7.85-.91c-.69-1.5-.33-3.28-.71-4.89-.49-2.1-2.17-3.72-3-5.73-.56-1.76-.81-3.6-.73-5.44-.3-10.06-2.76-20.55-9.6-27.92-.78-.97-1.82-1.7-3-2.11-1.46-.35-3,.18-3.93,1.36-.43,.8-.94,1.56-1.51,2.27-1.46,1.34-4,.38-5-1.34s-.84-3.84-.68-5.81c.2-2.45,.41-4.9,.61-7.35-.03-1.29,.35-2.56,1.09-3.62,1.19-1.39,3.34-1.45,4.8-2.55,1.92-1.43,2.17-4.17,3.38-6.24s5-2.94,5.55-.61c4-8.57,12.85,4.16,18.11,3.2,1.52-.28,3-1,4.55-.8,2.72,.38,4.12,3.37,5,6,1.53,4.28,3.06,8.56,4.6,12.85,.58,1.63,1.34,3.44,3,4.07,1.23,.48,2.67,.11,3.92,.57,3.3,1.2,2.23,6.39-.43,8.69s-6.38,3.74-7.64,7c-.95,2.47-.2,5.36-1.22,7.8-.67,1.73-2.21,2.99-3.26,4.57Z"/>
    <path class="cls-1" d="M362.15,103.18c-1.09,.15-2.37-.39-3.19,.34-.41,.49-.68,1.09-.78,1.72-.24,.86-.78,1.61-1.53,2.1-.76,.49-1.75,.49-2.51,0-.74-.56-.89-1.6-.35-2.35,.3-.27,.61-.52,.94-.76,1.44-1.36,.45-3.89,1.55-5.5,.64-1,1.66-1.93,2.37-2.89,.54-.74,.74-1.33,1.74-1.53,4.39-.91,6.37,8.22,1.76,8.87Z"/>
    <g class="cls-14">
      <path class="cls-9" d="M282.77,123.11c.56,.39,1.14,.76,1.72,1.12,.4,.26,.81,.5,1.22,.75-.41-.25-.82-.49-1.22-.75-.58-.36-1.16-.73-1.72-1.12Z"/>
    </g>
    <path class="cls-1" d="M261.73,84.96c-.21-1.93,.43-3.86,.46-5.8,0-1.35-.07-2.76-.1-4.11-1.15-.06-2.29-.22-3.41-.48-.24-.03-.46-.14-.63-.32-.12-.22-.17-.47-.14-.72-.09-1.51-1.54-2.51-2.85-3.27-.66-.4-1.36-.73-2.08-1v.47c.26,7.3,1.7,14.51,4.28,21.35,1.15,3.04,2.52,5.99,4.11,8.82,.66,1.22,1.39,2.42,2.14,3.61,.94,1.45,1.92,2.88,3,4.25s2,2.61,3.12,3.85c1.5,1.71,3.09,3.35,4.76,4.9,1.48,1.38,3,2.69,4.63,3.94-3.67-9.86-7.13-19.93-13.41-28.32-1.67-2.25-3.6-4.49-3.88-7.17Z"/>
    <path class="cls-1" d="M262.21,72.4l-.4-.07c-1.19-.13-2.57-.19-3.22-1.17-.75-1.14,0-2.83-.79-4-.49-.49-1.06-.9-1.68-1.2-.57-.4-1.06-1.17-.71-1.78s1-.63,1.4-1.11c.31-.39,.31-.94,0-1.33-1.21-1.44-2.56,1.49-3.24,2.18-.17,.18-.35,.35-.54,.51h0v4.77c.72,.27,1.42,.6,2.08,1,1.31,.76,2.76,1.76,2.85,3.27-.03,.25,.02,.5,.14,.72,.17,.18,.39,.29,.63,.32,1.12,.26,2.26,.42,3.41,.48"/>
    <path class="cls-1" d="M262.09,75.01c0,1.35,.12,2.76,.1,4.11,0,1.94-.67,3.87-.46,5.8,.31,2.72,2.21,5,3.86,7.15,6.28,8.39,9.74,18.46,13.41,28.32h0c.69,.54,1.38,1,2.08,1.55s1.11,.79,1.68,1.17,1.14,.76,1.72,1.12c.4,.26,.81,.5,1.22,.75-.05-.12-.11-.23-.16-.34-1.48-3.25-1.56-7.94,1.62-9.55,.64-.22,1.25-.54,1.8-.94,1.42-1.34,.26-4.11,1.67-5.45,.8-.75,2.05-.7,3-1.14,1.77-.82,2.35-3.1,2.21-5.06s-.79-3.89-.56-5.84c.35-3,2.65-5.94,1.33-8.6-1.48-3-5.8-2.49-8.83-3.82-4.24-1.87-5.55-7.13-8.32-10.84-2.48-3.32-8.27-7-12.68-6-2.53,.36-4.46,2.45-4.62,5"/>
    <path class="cls-1" d="M257.17,47.64c1.26-1.08,3.43-1.2,4.4,.14,.55,1.06,.68,2.29,.35,3.44-.24,1.57-.49,3.15-.74,4.73-.12,.47-.1,.96,.06,1.41,.47,1,2.11,.81,2.74-.08,.54-.98,.68-2.13,.39-3.21-.3-1.07-.3-2.2,0-3.27,1.07-2.53,4.85-2.15,7-3.8,1.37-1,2-2.74,2.78-4.24s2.16-3,3.87-2.92c.57,0,1.14,.23,1.71,.21,1.26-.18,2.13-1.35,1.95-2.6-.06-.4-.22-.79-.48-1.11-.28-.22-.53-.48-.74-.76-.24-.62-.02-1.31,.53-1.68,.54-.33,1.16-.52,1.79-.57l4.31-.68c1.59-.25,3.62-1.07,3.4-2.65-.2-1.38-2.06-2-2.34-3.36-.02-.34-.08-.68-.18-1-.43-.87-1.74-.52-2.58,0-.39-1.09-1.59-1.65-2.67-1.26-.18,.06-.34,.15-.5,.26-.85,.7-.95,1.93-1.25,3-.71,2.55-2.74,4.49-4.68,6.29-.58,.68-1.39,1.13-2.27,1.28-.88,0-1.81-.91-1.4-1.68,.28-.54,1-.84,1-1.44-.11-.75-1.41-.69-1.66-1.41,.51-2.1,2.92-3,4.78-4.11,2.27-1.38,3.99-3.5,4.89-6,.19-.39,.21-.84,.06-1.24-.28-.53-1-.61-1.6-.61-1.43,0-3.2,.17-3.73,1.5-.13,.75-.21,1.51-.24,2.27-.5,2.21-3.54,2.45-5.39,3.78-.65,.59-1.35,1.13-2.08,1.61-.91,.33-1.87,.49-2.84,.46l-.51,.06c-.58,.81-1.15,1.64-1.69,2.48s-1.07,1.7-1.58,2.57c-2.4,4.11-4.35,8.47-5.83,13-.52,1.6-1,3.21-1.38,4.86s-.74,3.31-1,5c.57-1.36,.98-2.78,1.22-4.23,.21-1.67,.96-3.23,2.13-4.44Z"/>
    <path class="cls-1" d="M387.36,71.66c-.8,.61-1.72,1.03-2.71,1.22-1.65-.2-3.04-1.31-3.6-2.87-.53-1.53-.94-3.1-1.24-4.7-.15-.87-.67-1.64-1.42-2.11-.55-.17-1.12-.3-1.69-.39-2-.59-2.54-3.37-4.42-4.23-.61-.23-1.25-.36-1.9-.4-2.52-.3-5.13-1.17-6.72-3.15-.45-.69-.97-1.33-1.55-1.92-.62-.58-1.56-.67-2.28-.21l1.58,3.18c.42,.99,1.01,1.89,1.76,2.66,.79,.77,1.96,1.02,3,.63,.3-.2,.64-.33,1-.35,.26,.06,.49,.21,.65,.42,1.37,1.52,.92,4-.42,5.6-1.47,1.44-3.26,2.5-5.22,3.11-.66,.33-1.4,.47-2.13,.41-1.32-.24-2-1.68-2.4-3-.87-2.85-1.28-5.95-3.05-8.36-.63-.69-1.17-1.46-1.59-2.3-.36-1-.27-2.07-.85-2.92s-1.86-1.39-1.95-2.46c.05-.77,.54-1.43,1.25-1.72,.68-.33,1.45-.43,2.15-.71,.28-.12,.59-.32,.6-.62,0-.45-.62-.63-.78-1s.31-.91,.51-1.37c.44-1-.65-2.1-1.7-2.52s-2.31-.74-2.8-1.76c-.18-.49-.3-1-.34-1.52-.2-1.34-1.19-2.42-2.5-2.75-1.19-.22-2.33,.56-2.55,1.75-.03,.15-.04,.3-.04,.46,.24,.68,.56,1.33,.95,1.93,.29,.66,.21,1.64-.47,1.85-1.12,.34-2.2-1.7-3.13-1,.38,1.31,.75,2.62,1.14,3.94-1.47,.74-3.23-.61-3.86-2.14s-.65-3.27-1.39-4.74-2.76-2.58-4-1.53c-.06,1.89,2.44,2.66,3.55,4.19,.86,1.13,.64,2.74-.49,3.6,0,0,0,0-.01,0-1.17,.7-3-.52-2.59-1.81,.16-.45,.53-.82,.57-1.3s-.45-1.07-.91-1.46l-2.14-1.8c-.44-.41-.96-.74-1.52-.95-1.47-.43-2.94,.76-3.72,2.07-.78,1.31-1.21,2.87-2.29,4-1.63,1.63-4.28,1.64-5.91,0,0,0,0,0,0,0-1.46-1.67-.71-4.8,1.43-5.41,.81-.22,1.83-.2,2.26-.91,.74-1.27-1.39-2.89-.65-4.16,.56-1,2.05-.54,3.14-.87s1.68-1.41,2.32-2.35,1.62-1.86,2.72-1.62c-.15-.64-.11-1.32,.12-1.94,.26-.6,.96-.88,1.56-.62,.02,0,.04,.02,.07,.03-.4,1,.06,2.15,1.05,2.58,.99,.36,2.07,.44,3.1,.23,1.05-.13,2.36-.51,2.44-1.56-.04-.33-.04-.67,0-1,.46-1.24,2.76,.47,3.64-.53,.52-.52-.05-1.45-.76-1.62-.72-.06-1.45-.03-2.16,.11-.73,0-1.61-.35-1.64-1.08s.76-1.22,.85-1.93c.14-1.19-1.89-1.5-2.6-.53s-.46,2.3-.24,3.48,.33,2.58-.55,3.41c-.37,.57-1.34,.27-1.66-.33-.24-.64-.35-1.32-.31-2,.03-.7-.37-1.34-1-1.63-.48-.04-.96,.01-1.42,.16-1.85,.22-3.14-2.17-2.55-3.94s2.26-2.92,3.89-3.82c1.19-.66,2.67-1.28,3.85-.61,.55,.31,.94,.84,1.48,1.16,.94,.56,2.1,.35,3.17,.37,1.72,.04,3.37,.66,4.68,1.77,.47,.44,.92,1.16,.55,1.69s-1.57,.67-1.36,1.32c1.24,.29,2.49-.48,2.78-1.72,.01-.05,.02-.1,.03-.15,.63,.29,1.06,.89,1.12,1.58,1.41-1.29,3.6-1.2,4.89,.21,.06,.06,.12,.13,.17,.2,.24,.45,.55,.86,.93,1.21,.43,.27,1.18,.14,1.23-.36,0-.16-.02-.32-.09-.47-.25-.73-.52-1.44-.77-2.15,1-.54,2.16,.29,2.83,1.19,2.49,3.33,4.27,1.33,7.78,1.87,2.38,.36,3.42,1.89,4.76,3.73,4.15,5.66,9.57,10.35,13.31,16.23,.39,.61,.76,1.24,1.1,1.88h0c.32,.85,.62,1.71,.9,2.58,.28,.86,.55,1.73,.8,2.61,.67,2.17,1.21,4.37,1.61,6.6,0,0,.47,3.81,.58,5,.09,1,.17,1.89,.23,2.85s.08,1.92,.08,2.89l-.11,5.41Z"/>
  </g>
  <g id="freepik--Floor--inject-2">
    <path class="cls-9" d="M434.07,436.39c0,.14-97.19,.26-217,.26s-217.07-.12-217.07-.26,97.17-.26,217.07-.26,217,.11,217,.26Z"/>
  </g>
  <g id="freepik--Browsers--inject-2">
    <rect class="cls-10" x="326.8" y="143.89" width="104.89" height="104.89" rx="5.4" ry="5.4" transform="translate(-43.28 134.31) rotate(-19.02)"/>
    <path class="cls-3" d="M370.9,168.32c-1.33,.46-2.63,1.01-3.89,1.64l-.14-.22c.3-.85,.3-1.78,0-2.63-.71-2.13-3.02-3.28-5.15-2.57-2.13,.71-3.28,3.02-2.57,5.15,.52,1.56,1.93,2.65,3.57,2.77-14.74,10.23-18.39,30.46-8.17,45.2,10.23,14.74,30.46,18.39,45.2,8.17s18.39-30.46,8.17-45.2c-8.23-11.87-23.32-16.87-37.01-12.28v-.03Zm-10.85,1c-.55-1.63,.32-3.4,1.95-3.95,1.63-.55,3.4,.32,3.95,1.95h0c.17,.53,.2,1.1,.08,1.64-.54-.27-1.17-.32-1.74-.13-1.08,.36-1.71,1.48-1.47,2.59-1.25-.07-2.35-.88-2.77-2.06v-.04Zm36.8,49.32l-3.85-2.25c-.4-.24-.91-.1-1.15,.3-.09,.16-.13,.35-.11,.53l.57,4.21c-10.72,5.06-23.52,1.72-30.39-7.94l1.93-2.84c.23-.35,.13-.81-.21-1.04-.18-.12-.39-.15-.6-.1l-3.05,.78c-5.46-10.74-2.31-23.85,7.43-30.94l3.41,2.37c.32,.25,.79,.19,1.04-.14,.14-.18,.18-.41,.13-.62l-.6-4c.88-.41,1.78-.78,2.7-1.09,10.23-3.44,21.51,.22,27.79,9l-2.42,3.2c-.2,.29-.13,.69,.16,.89,.13,.09,.3,.13,.46,.11l3.9-.69c.46,.96,.86,1.94,1.21,2.95,3.35,9.96,0,20.96-8.35,27.35v-.04Z"/>
    <path class="cls-3" d="M393.35,179.78s-4,4.49-8.77,11l-.26-2.56c-1.1,.96-2.14,1.99-3.11,3.08-.74,0-1.47,.11-2.18,.33l-5.16-5.57,2.36,7c-.94,.77-1.7,1.75-2.22,2.85l-3.62,.51s2,2,2.87,2.76c-.02,.91,.12,1.82,.41,2.68,.02,.07,.05,.14,.08,.21l-5.61,5.4,7.35-2.62s.04,.05,.07,.07c-2.37,4.22-4.11,8.77-5.18,13.49,0,0,3.56-3.87,7.9-9.63l.31,2s3.17-3.19,3-3.37l-.07-.05c.8-.02,1.59-.16,2.35-.41l.26-.1,5.69,5.25-3-7c.49-.46,.91-.97,1.27-1.54l4-.39s-1.93-2.17-2.79-2.92c.14-1.13,.03-2.27-.31-3.35l5.62-4.88-6.7,2c2.51-4.45,4.34-9.25,5.44-14.24Zm-14.21,13.12c1.29-.44,2.69-.47,4-.1-2.5,3.5-4.8,7.13-6.89,10.89-.58-.66-1.03-1.43-1.31-2.27-1.19-3.51,.69-7.32,4.2-8.52Zm1.21,13c2.38-3.31,4.58-6.74,6.6-10.28,.3,.46,.54,.96,.72,1.48,1.18,3.52-.72,7.34-4.24,8.52-.99,.35-2.04,.47-3.08,.34v-.06Z"/>
    <polygon class="cls-12" points="349.29 151.19 344.58 256.69 339.6 242.25 340.05 154.37 349.29 151.19"/>
    <rect class="cls-10" x="329.33" y="276.04" width="71.82" height="71.82" rx="5.4" ry="5.4" transform="translate(-37.37 573.9) rotate(-73.55)"/>
    <g class="cls-11">
      <rect x="329.29" y="276.06" width="71.82" height="71.82" rx="5.4" ry="5.4" transform="translate(-37.41 573.88) rotate(-73.55)"/>
    </g>
    <path class="cls-3" d="M357.74,311.5c-.26,4.63,3.28,8.59,7.91,8.84s8.59-3.28,8.84-7.91c.26-4.62-3.28-8.58-7.9-8.84-4.63-.26-8.59,3.28-8.85,7.9,0,0,0,0,0,0Z"/>
    <path class="cls-3" d="M355.06,308.59c1.56-5.09,6.39-8.46,11.7-8.17,.31,0,.61,.05,.91,.09h0l19.12,1.07c-5.76-11.42-19.68-16-31.09-10.25-2.67,1.35-5.05,3.19-7.02,5.45l6.38,11.81Z"/>
    <path class="cls-3" d="M374.52,304.03c4.25,4.45,4.25,11.46,0,15.91l-10,15.13h.35c12.77,.71,23.69-9.05,24.41-21.82,.16-2.87-.21-5.75-1.11-8.48l-13.65-.74Z"/>
    <path class="cls-3" d="M368.47,323.3c-.99,.2-1.99,.28-3,.22-5.42-.3-9.51-4.23-11-9.29l-7.91-14.69c-6.85,10.81-3.65,25.12,7.16,31.98,2.23,1.42,4.69,2.44,7.27,3.02l7.48-11.24Z"/>
    <rect class="cls-10" x="107.04" y="24.96" width="76.5" height="76.5" rx="5.4" ry="5.4" transform="translate(-9.91 31.29) rotate(-11.89)"/>
    <path class="cls-3" d="M136.74,43.84s-2.7,3.9-2,5.89,3.32,1.63,3.86,1.61,3.8-.64,3.8-.64c.27,.9,.12,1.87-.41,2.65-1.33,1.57-2.75,3.06-4.24,4.47l.34,3.38s-3.57-.33-3.48,1.61,3.14,4.23,6,3.74,4.18-3,6.1-2.75c1.49,.26,2.94,.72,4.3,1.38,0,0,.17,1.92-2.61,2.16-2.08,2.79-5.24,4.58-8.7,4.92,0,0,3.16,4.31,11.89,1.42,7.69-2.55,7.59-9.89,7.46-11.61-.01-.19,.13-.36,.32-.37,.07,0,.14,.01,.2,.04,.36,.31,.64,.7,.82,1.14l-1.19-8.66c-.05-.37,.21-.7,.57-.75,.22-.03,.45,.05,.6,.22,.21,.27,.38,.58,.49,.9-.52-4.02-2.69-7.65-6-10-.22-.17-.27-.48-.1-.7,.1-.13,.25-.2,.41-.2,.93-.04,1.86,.12,2.72,.47,0,0-8.13-6-7.5-6.38s13.82,3.52,17.68,15.18c0,0,.14-2,.86-2,.15,0,.65,.36,1.16,2.25,1.35,5.09,1.32,10.44-.08,15.51h0c-4.08,13.88-18.63,21.82-32.51,17.74-13.88-4.08-21.82-18.63-17.74-32.5h0s-1.85-6.62,1.3-9.29c0,0,.63,4,3.19,4.23l6.37-1.25c1.18-2.3,3.53-3.77,6.12-3.81Z"/>
    <rect class="cls-10" x="43.03" y="316.34" width="120.02" height="120.02" rx="5.4" ry="5.4"/>
    <path class="cls-3" d="M136.83,342.46c-7.11-6.11-22-.84-27.38,1.36-5.65-.34-11.29,.69-16.46,3-7.29,3.24-15.69,9.61-18.72,22.13l16.68-13.65s-19.42,18-24.07,36.61,2.45,20.23,6.28,21,14.48-1.36,19.13-4.91c0,0,16.4,7.94,31.44-.53s14.77-18.85,14.77-18.85h-17.22s-5.1,8-14.22,7.65c-13.94-.56-15-13.95-15-13.95h48.66v-5.33c0-5.25-1.2-10.43-3.53-15.14,1.5-2.4,7.34-12.77-.36-19.39Zm-63.32,63.26c-5.69-4.43,0-15.49,0-15.49,1.49,2.92,3.35,5.63,5.53,8.07,3.03,2.95,6.25,5.7,9.64,8.22,0,0-9.48,3.63-15.17-.8Zm19.69-31.83c-.21-7.87,6-14.42,13.88-14.63,7.87-.21,14.42,6,14.63,13.88,0,.25,0,.5,0,.76h-28.51Zm36.18-22.07c-2.73-2.34-5.82-4.22-9.15-5.56,4.47-1.89,12.39-4.21,16.19,.91,3,4.08,1.42,8.83-.6,12.27-1.73-2.86-3.9-5.44-6.44-7.62h0Z"/>
    <g class="cls-11">
      <path d="M42.7,390.32c5.37-6.13,8.65-13.88,10.31-21.86,2-9.39,1.76-19.13,1.1-28.67-.21-2.47,.09-4.96,.88-7.31,3.38-9.53,12.46-8.49,20.1-7.67,21.58,2.29,43.39-.62,63.6-8.51H48.23c-2.88,0-5.21,2.33-5.22,5.21l-.31,68.81Z"/>
    </g>
  </g>
  <g id="freepik--Character--inject-2">
    <path class="cls-9" d="M106.06,170.38c-2,4.75-7.94,7.27-9,12.3-.88,4.16,1.95,8.89-.26,12.53-2,3.36-7,3.42-9.87,6.15-1.8,1.74-2.48,4.32-2.76,6.8-.33,3-.13,6.18,1.64,8.59,1.76,2.19,4.38,3.52,7.19,3.65,2.78,.11,5.55-.34,8.15-1.33,7.3-2.46,14.09-6.84,18.66-13.05s6.72-14.36,5-21.87-7.68-14.1-15.19-15.85"/>
    <path class="cls-8" d="M89.28,216.88s-.06-.13-.1-.4c-.08-.39-.13-.78-.15-1.17-.12-1.45-.02-2.9,.3-4.32,.44-2.12,1.29-4.13,2.5-5.93,.72-1.06,1.56-2.03,2.51-2.89,1.02-.9,2.13-1.71,3.31-2.4,1.15-.67,2.19-1.51,3.08-2.49,.83-.91,1.29-2.09,1.28-3.32-.09-1.12-.31-2.22-.63-3.29-.27-.98-.31-2-.12-3,.31-1.46,1.12-2.75,2.3-3.66,.31-.24,.65-.44,1-.61,.13-.06,.26-.1,.4-.13-.45,.28-.88,.58-1.29,.9-1.07,.92-1.8,2.18-2.06,3.57-.16,.96-.09,1.94,.18,2.87,.35,1.1,.58,2.24,.69,3.39,0,1.33-.48,2.62-1.37,3.61-.92,1.03-2,1.9-3.19,2.6-2.26,1.26-4.21,3.01-5.7,5.12-1.2,1.74-2.06,3.68-2.54,5.74-.34,1.38-.49,2.81-.46,4.23,.03,1.02,.11,1.57,.06,1.58Z"/>
    <path class="cls-9" d="M107.61,155.67c-3.05-2.14-3.79-6.34-1.65-9.39,1.27-1.81,3.34-2.88,5.54-2.87,3.15,0,5.86,2.17,8.91,2.93,2.4,.6,4.91,.32,7.38,.38s5.11,.57,6.81,2.36c2.12,2.23,2.19,5.8,4.15,8.18,1.39,1.7,3.55,2.54,5.31,3.86,5.15,3.87,6.2,11.18,2.33,16.34-.35,.47-.74,.92-1.17,1.33-1.17,1.15-2.63,2.11-3.32,3.6-1,2.27,0,5.28-1.64,7.21s-5,1.76-6.16,3.93c-.48,.87-.6,2.09-1.52,2.48-.77,.18-1.58-.01-2.19-.51l-9.17-5.43"/>
    <path class="cls-10" d="M119.28,199.77l-9.42,1.26c-3.56,1.17-6.78,3.19-9.37,5.89l-26.07,27.16-6.61-40.26-13.51,1.73,4.06,48c.56,7.72,6.81,13.81,14.55,14.15h1.08c4.05-.23,7.86-1.99,10.66-4.93l17.09-14.9"/>
    <path class="cls-9" d="M56.9,199.13c-.3-.63-.46-1.31-.48-2-.14-.69-.14-1.39,0-2.08,.3,.62,.47,1.31,.48,2,.15,.69,.15,1.39,0,2.08Z"/>
    <path class="cls-9" d="M60.87,199.09c-.42-1.41-.56-2.89-.4-4.36,.28,.69,.42,1.42,.42,2.16,.15,.73,.14,1.48-.02,2.2Z"/>
    <path class="cls-9" d="M64.81,198.68c-.3-.77-.46-1.59-.46-2.41-.14-.81-.14-1.64,0-2.45,.3,.77,.46,1.58,.46,2.41,.14,.81,.14,1.64,0,2.45Z"/>
    <path class="cls-8" d="M75.1,162.84c.26,.47,8.06,33.35,8.06,33.35l-15.15,1.33-7-28.26,14.09-6.42Z"/>
    <polygon class="cls-9" points="83.16 196.19 84.87 195.38 76.96 162.98 74.89 162.93 83.16 196.19"/>
    <path class="cls-9" d="M69.28,170.33c.07,.43-.22,.83-.65,.91-.42,.07-.83-.22-.9-.64,0,0,0,0,0,0-.07-.43,.22-.84,.65-.91,0,0,0,0,0,0,.42-.07,.83,.22,.9,.64,0,0,0,0,0,0Z"/>
    <path class="cls-5" d="M67.13,194.05l-.44-4.66,6.39-2.94-2.78-5.91c-1.28-2.6-4.42-3.68-7.02-2.4-.13,.06-.25,.13-.38,.2l-2.54,1.52c-1.83,1.09-3.1,2.91-3.5,5-.55,3.53-.91,7.09-1.08,10.66"/>
    <path class="cls-10" d="M116.01,199.33c-12.06,1.35-16,10.36-21.6,18.42l-8.13,15,15.5,5.14-1.11,27.07-7.12,22,55.56-3.28-4.5-20.85,3.16-23.8,3-19.85c1.09-6.76-2.62-13.39-8.95-16-7.48-2.92-7.68-3.47-13.63-3.73-1.89-.08-10.65-.45-12.18-.07"/>
    <path class="cls-9" d="M100.69,264.33c.09-.54,.14-1.08,.15-1.63,0-1.15,.13-2.65,.22-4.47,.16-3.77,.34-9,.52-14.73s.3-11,.37-14.74c0-1.82,0-3.32,.05-4.47,.03-.55,.01-1.1-.05-1.64-.1,.54-.15,1.08-.15,1.63-.06,1.14-.13,2.65-.22,4.46-.16,3.77-.35,9-.52,14.74s-.31,11-.37,14.74c0,1.82,0,3.33-.05,4.47-.04,.55-.02,1.1,.05,1.64Z"/>
    <path class="cls-10" d="M14.32,398.89l-.2-9.9,19-6.74,.79,13.78-1.07,.51c-4.83,2.25-24.41,11.12-28.07,11.42-4.08,.41,9.55-9.07,9.55-9.07Z"/>
    <g class="cls-13">
      <path class="cls-3" d="M7.77,403.78s-4.65,3.66-3.64,4.26,21.18-7.61,29.76-12l-.19-.39-23.45,9.78s-1.44-2.03-2.48-1.65Z"/>
    </g>
    <path class="cls-9" d="M34.01,395.52l-.29,.15-.85,.41-3.15,1.45c-2.68,1.2-6.39,2.81-10.53,4.5s-7.92,3.13-10.67,4.14l-3.27,1.18-.89,.3c-.1,.05-.21,.08-.32,.09l.31-.13,.87-.35,3.24-1.24c2.74-1.05,6.51-2.52,10.64-4.21s7.86-3.27,10.55-4.43l3.14-1.42,.87-.37,.35-.07Z"/>
    <path class="cls-9" d="M10.37,405.69c-.36-.47-.77-.91-1.22-1.29-.5-.32-1.04-.58-1.6-.78,.63-.02,1.25,.19,1.73,.6,.53,.34,.92,.86,1.09,1.47Z"/>
    <path class="cls-9" d="M14.51,400.96s-.41-.15-.84-.46-.73-.58-.7-.63,.41,.14,.84,.45,.73,.55,.7,.64Z"/>
    <path class="cls-9" d="M15.63,399.59c0,.06-.38,0-.79-.17s-.74-.31-.72-.37,.38,0,.8,.16,.73,.32,.71,.38Z"/>
    <path class="cls-9" d="M15.85,397.55c0,.06-.36,.28-.87,.49-.31,.17-.65,.27-1,.28,0-.06,.36-.28,.87-.49,.31-.17,.65-.26,1-.28Z"/>
    <path class="cls-9" d="M15.69,396.25c-.23,.32-.54,.58-.91,.72-.34,.21-.73,.31-1.12,.29,.32-.2,.65-.36,1-.5,.33-.2,.67-.37,1.03-.51Z"/>
    <path class="cls-9" d="M13.28,399.63c-.35,.21-.74,.37-1.14,.45-.43,.12-.87,.19-1.31,.23-.27,.03-.54,.03-.81,0-.17-.03-.32-.11-.43-.24-.1-.16-.1-.37,0-.53,.72-.8,1.89-.98,2.82-.44,.27,.15,.5,.36,.68,.61,.13,.18,.17,.29,.16,.3-.26-.3-.57-.56-.92-.76-.38-.19-.8-.28-1.22-.24-.51,.04-.98,.27-1.32,.65-.12,.2,0,.39,.28,.42,.25,.02,.5,.02,.75,0,.43-.03,.87-.09,1.29-.18,.72-.13,1.16-.31,1.17-.27Z"/>
    <path class="cls-9" d="M13.01,399.8c-.24-.18-.4-.44-.45-.73-.09-.33-.09-.67,0-1,.04-.44,.31-.82,.71-1,.26-.05,.51,.12,.56,.38,.04,.19,.04,.4,0,.59-.05,.31-.14,.61-.26,.9-.1,.28-.25,.52-.46,.73,0,0,.14-.3,.31-.79,.1-.28,.16-.57,.19-.87,.06-.3,0-.78-.31-.71s-.47,.49-.55,.78c-.06,.29-.06,.58,0,.87,.05,.29,.14,.58,.26,.85Z"/>
    <path class="cls-9" d="M31.64,390.83s-.52,.16-1.28,.58c-.98,.54-1.8,1.35-2.35,2.33-.55,.99-.81,2.11-.76,3.24,0,.87,.22,1.39,.18,1.4-.07-.11-.12-.23-.15-.36-.1-.33-.16-.66-.19-1-.1-1.17,.15-2.34,.72-3.36,.58-1.02,1.45-1.84,2.49-2.37,.32-.16,.66-.28,1-.37,.11-.05,.22-.08,.34-.09Z"/>
    <path class="cls-9" d="M26.82,384.23c.62,1.15,1.16,2.34,1.63,3.56,.54,1.19,1.02,2.41,1.42,3.66-.61-1.16-1.16-2.35-1.63-3.57-.54-1.19-1.02-2.41-1.42-3.65Z"/>
    <path class="cls-9" d="M24.5,397.67c-.77,.54-1.61,.97-2.49,1.29-.85,.4-1.75,.68-2.67,.84,0-.06,1.16-.46,2.58-1.06s2.55-1.13,2.58-1.07Z"/>
    <path class="cls-9" d="M28.01,396.26c.06,0,0,.28,0,.59v.6s-.2-.24-.19-.61,.08-.61,.19-.58Z"/>
    <path class="cls-9" d="M28.6,394.1c.06,0,0,.26-.08,.52s-.25,.45-.31,.42,0-.25,.09-.51,.24-.45,.3-.43Z"/>
    <path class="cls-9" d="M30.17,392.6c0,.07-.23,.16-.45,.36s-.35,.41-.41,.39,0-.33,.26-.57,.59-.24,.6-.18Z"/>
    <path class="cls-9" d="M31.35,391.71s0,.18-.14,.3-.26,.17-.3,.12,0-.18,.14-.29c.14-.11,.26-.18,.3-.13Z"/>
    <path class="cls-9" d="M90.5,287.79l-55.72,1c-8.91,.17-16.34,6.86-17.43,15.71l-11.05,89.8h30.26l9.25-77.57h43.94l.75-28.94Z"/>
    <path class="cls-8" d="M6.68,388.63c0,.14,6.63,.3,14.8,.35s14.67-.15,14.81-.17c.94-.09-6.62-.3-14.8-.35s-14.81,.03-14.81,.17Z"/>
    <path class="cls-9" d="M142.81,316.77c22.24-7.36,6.3-33.13,6.3-33.13l-84.83,4.95c-7.76-.06-14.1,6.19-14.16,13.96,0,.03,0,.07,0,.1l.31,2.26c0,7.77,6,11.81,13.76,11.81l78.62,.05"/>
    <path class="cls-8" d="M129.66,284.96h-1.09l-3.14,.12-11.52,.55-38,2c-1.86,.08-3.69,.23-5.49,.26s-3.6,.1-5.35,.2-3.48,.22-5.16,.39c-1.67,.12-3.31,.46-4.89,1-1.51,.54-2.9,1.38-4.08,2.47-1.09,1.05-1.93,2.33-2.47,3.75-.49,1.31-.83,2.67-1,4.06-.18,1.27-.27,2.55-.27,3.83-.02,2.19,.42,4.36,1.3,6.37,.68,1.56,1.73,2.93,3.05,4,.82,.67,1.76,1.17,2.77,1.49,.69,.2,.7,.14,0-.1-.98-.35-1.89-.87-2.68-1.54-1.26-1.05-2.26-2.38-2.91-3.89-.84-2.01-1.25-4.17-1.2-6.35,.01-1.27,.11-2.53,.3-3.78,.18-1.37,.52-2.71,1-4,.52-1.36,1.34-2.58,2.39-3.58,1.13-1.04,2.47-1.85,3.92-2.36,1.58-.51,3.21-.81,4.87-.89,1.67-.17,3.39-.28,5.13-.38s3.53-.17,5.33-.19,3.65-.18,5.5-.26l38-2.12,11.51-.7,3.13-.22,.82-.07c.08,0,.16-.03,.23-.06Z"/>
    <path class="cls-5" d="M131.43,155.07c1.68,.18,2.95,1.61,2.91,3.3h0l-1.84,44c-.07,5.19-9.5,11.33-15.06,11.22h0c-5.61-.12-4.43-6.1-4-11,.24-3.77,.2-7.55-.14-11.31,0,0-7.09-1.18-8.56-10.43-.73-4.61-.5-12.16-.11-18.33,.33-5.39,4.97-9.48,10.36-9.15,.14,0,.28,.02,.42,.04l16.02,1.66Z"/>
    <path class="cls-9" d="M107.01,168.48c0,.64,.51,1.17,1.15,1.19,.62,.05,1.17-.41,1.22-1.03,0-.01,0-.02,0-.04,0-.64-.5-1.17-1.14-1.2-.63-.05-1.18,.42-1.23,1.04,0,.01,0,.02,0,.04Z"/>
    <path class="cls-9" d="M106.22,166.41c.15,.16,1-.51,2.33-.51s2.21,.65,2.35,.49-.08-.35-.49-.65c-.55-.38-1.21-.58-1.88-.58-.66,0-1.31,.21-1.85,.6-.4,.3-.53,.58-.46,.65Z"/>
    <path class="cls-9" d="M119.48,168.48c0,.64,.51,1.17,1.15,1.19,.62,.05,1.17-.41,1.22-1.03,0-.01,0-.02,0-.04,0-.64-.5-1.17-1.14-1.2-.63-.05-1.18,.42-1.23,1.04,0,.01,0,.02,0,.04Z"/>
    <path class="cls-9" d="M118.78,166.65c.15,.15,1-.51,2.33-.51s2.21,.64,2.35,.49-.08-.35-.49-.65c-.55-.38-1.21-.58-1.88-.58-.66,0-1.31,.21-1.85,.6-.4,.3-.53,.58-.46,.65Z"/>
    <path class="cls-9" d="M114.15,176.12c-.68-.21-1.37-.33-2.08-.37-.33,0-.63-.1-.69-.32-.04-.35,.04-.7,.22-1,.3-.79,.63-1.62,1-2.48,.89-2.11,1.62-4.28,2.17-6.5-1.06,2.03-1.96,4.14-2.69,6.31-.32,.87-.63,1.7-.92,2.5-.21,.39-.27,.85-.17,1.28,.1,.23,.3,.41,.54,.47,.18,.05,.36,.08,.55,.08,.69,.1,1.38,.11,2.07,.03Z"/>
    <path class="cls-6" d="M113.26,191.24c4.36,.07,8.65-1.08,12.4-3.31,0,0-3,6.36-12.27,5.5l-.13-2.19Z"/>
    <path class="cls-6" d="M114.69,179.2c.49-.62,1.27-.95,2.06-.85,.57,.05,1.09,.33,1.45,.78,.35,.43,.39,1.04,.1,1.52-.42,.47-1.08,.64-1.67,.42-.61-.22-1.17-.56-1.64-1-.14-.11-.26-.23-.36-.38-.1-.14-.1-.34,0-.48"/>
    <path class="cls-9" d="M117.9,177.01c-.2,0-.21,1.37-1.39,2.36s-2.67,.83-2.68,1,.33,.27,1,.29c.81,0,1.6-.27,2.23-.78,.61-.5,1-1.22,1.08-2,0-.54-.13-.92-.24-.87Z"/>
    <path class="cls-9" d="M118.21,164.41c.12,.35,1.4,.18,2.9,.37s2.71,.58,2.91,.27c.09-.15-.12-.47-.61-.81-.65-.41-1.39-.67-2.16-.75-.77-.09-1.54,0-2.27,.26-.55,.21-.83,.5-.77,.66Z"/>
    <path class="cls-9" d="M106.69,162.71c.23,.29,1.11,0,2.17,0s2,.19,2.16-.11,0-.44-.45-.71c-.52-.34-1.13-.51-1.75-.48-.62,0-1.23,.21-1.73,.58-.37,.28-.5,.58-.4,.72Z"/>
    <path class="cls-9" d="M104.59,162.48c1.33-4.46,2.4-5.82,7-7.34,2.27,10,11.23,6.66,16.28,7.48,.53,.04,1.04,.2,1.49,.48,.78,.57,.84,1.7,.83,2.67-.09,2.74,.13,5.49,.68,8.18,.56,2.7,1.94,5.17,3.95,7.06,3.06-6.44,3.36-13.92,2-20.91-.55-2.86-1.5-5.85-3.77-7.66-1.72-1.19-3.7-1.95-5.78-2.2-5.06-.93-12.93-7.58-17.87-6.14-2.99,.69-5.37,2.93-6.24,5.87-1.09,3.52-.86,7.32,.67,10.67l.76,1.84Z"/>
    <path class="cls-8" d="M142.55,297.02c-.23,.18-.49,.31-.77,.38-.74,.27-1.51,.43-2.3,.47-4.96,.37-9.28-3.34-9.65-8.3-.04-.53-.03-1.06,.02-1.58,.06-.78,.24-1.56,.52-2.29,.09-.27,.23-.53,.4-.76-.27,1.01-.46,2.04-.56,3.08-.31,4.92,3.42,9.16,8.34,9.47,.3,.02,.61,.02,.91,.01,1.04-.06,2.08-.22,3.09-.48Z"/>
    <path class="cls-10" d="M111.01,201.42v-5.61c0-1.35,1.07-2.46,2.42-2.5l19.51-.62c1.37-.04,2.52,1.03,2.57,2.41,0,0,0,0,0,.01l.28,9.11-11.4,10.46-11.08,1.15-1.89-6.14-.41-8.27Z"/>
    <path class="cls-10" d="M136.3,202.04c-2.87,2.4-5.1,5.47-6.51,8.94l-13.31,32.06-9.47-30.74-12.21,2.43c-2.77,.55-4.58,3.24-4.03,6.02,.03,.16,.07,.32,.12,.47l11.91,40.34c3.45,6.91,13,9.54,20.26,6.83l1-.39c3.67-1.72,6.56-4.77,8.07-8.53l10.35-20.18,6.91-15.78c.14-.33,.27-.66,.4-1,3.27-9.11-3-18.9-12.62-20.34l-.81-.13"/>
    <path class="cls-9" d="M117.81,249.8c-.41-1.13-.68-2.3-.8-3.5-.26-1.17-.38-2.37-.35-3.57"/>
    <path class="cls-9" d="M94.26,214.86s-.4,.09-1.09,.42c-.99,.52-1.74,1.41-2.07,2.48-.26,.76-.35,1.56-.28,2.36,.14,.95,.37,1.88,.7,2.78,.6,2,1.28,4.27,2,6.77,1.5,5,3.28,11,5.26,17.64l3.11,10.42c1.16,3.69,3.53,6.88,6.71,9.07,3.19,2.2,7.08,3.12,10.92,2.59,3.57-.54,6.79-2.44,9-5.29,.97-1.36,1.81-2.81,2.52-4.33,.75-1.46,1.49-2.87,2.2-4.24,1.43-2.73,2.76-5.27,4-7.6l5.77-10.97,1.6-3,.42-.77c.1-.17,.16-.26,.17-.25l-.12,.27c-.1,.21-.22,.47-.38,.79-.36,.73-.87,1.74-1.51,3-1.34,2.65-3.26,6.42-5.63,11.06l-3.91,7.63-2.19,4.27c-.71,1.55-1.56,3.02-2.54,4.41-2.28,2.96-5.6,4.93-9.29,5.51-3.96,.56-7.99-.39-11.28-2.67-3.28-2.26-5.71-5.55-6.91-9.35-1.07-3.62-2.09-7.1-3.08-10.43l-5.16-17.67c-.73-2.51-1.38-4.79-2-6.8-.32-.92-.55-1.87-.67-2.84-.06-.83,.06-1.66,.34-2.44,.36-1.11,1.16-2.02,2.22-2.51,.37-.17,.77-.27,1.17-.31Z"/>
    <path class="cls-9" d="M107.01,212.3c.11,.18,.19,.38,.24,.58,.16,.44,.35,1,.59,1.7,.52,1.55,1.22,3.68,2.09,6.29l6.68,20.8c.11,.33,.22,.67,.31,1h-.48l8.15-19.53c1.05-2.43,1.9-4.42,2.52-5.86,.28-.65,.52-1.17,.7-1.58,.07-.19,.17-.37,.28-.54-.04,.2-.1,.39-.18,.58l-.62,1.62-2.36,5.92c-2.07,5.05-4.88,11.93-8,19.59l-.27,.66-.22-.68c-.1-.31-.21-.65-.31-1-2.55-8.11-4.85-15.45-6.55-20.85-.8-2.63-1.45-4.77-1.92-6.33-.21-.71-.37-1.28-.5-1.73-.08-.21-.13-.42-.15-.64Z"/>
    <path class="cls-9" d="M141.21,204.96c0,.09-.83,0-2.13,.14-3.42,.35-6.51,2.21-8.41,5.07-.73,1.09-1,1.86-1.11,1.82,.11-.72,.38-1.4,.8-2,1.81-3.12,5.09-5.1,8.69-5.25,.73-.08,1.46,0,2.16,.22Z"/>
    <path class="cls-9" d="M114.8,201.53c-.2-1.37-.22-2.76-.08-4.14-.02-1.39,.13-2.78,.45-4.13,.2,1.37,.22,2.77,.07,4.15,.02,1.39-.12,2.77-.44,4.12Z"/>
    <path class="cls-9" d="M120.01,201.03c-.37-1.27-.52-2.59-.45-3.91-.1-1.32,.01-2.64,.34-3.92,.19,1.29,.25,2.6,.18,3.91,.1,1.31,.07,2.62-.07,3.92Z"/>
    <path class="cls-9" d="M125.19,200.96c-.33-1.31-.45-2.66-.35-4-.08-1.35,.06-2.7,.41-4,.18,1.33,.21,2.67,.11,4,.08,1.34,.02,2.68-.17,4Z"/>
    <path class="cls-9" d="M130.69,200.7c-.26-1.29-.35-2.61-.27-3.92-.09-1.31,0-2.62,.24-3.91,.26,1.29,.36,2.6,.28,3.91,.08,1.31,0,2.63-.25,3.92Z"/>
    <path class="cls-9" d="M73.49,244.13c-1.25-3.55-.88-7.48,1-10.74-.52,1.74-.91,3.51-1.17,5.31-.07,1.81-.02,3.63,.17,5.43Z"/>
    <path class="cls-5" d="M105.47,212.82s-.69-7.66-1.2-11.61-2.93-3.49-3.15-5.63-1.2-2-1.2-2c-1.17-.42-.9,2.76-.9,2.76,0,0-9.43-2.28-10.14-2.57-.63-.18-1.29,.19-1.47,.82-.07,.25-.06,.52,.04,.76,.15,.37,5.41,2.57,5.41,2.57,0,0-4.32,4.16-4.41,5.92s5.69,5.85,5.69,5.85l.12,5.21,11.21-2.08Z"/>
    <path class="cls-6" d="M97.11,200.19c-.07,0-.19-.21-.57-.38s-1-.38-1.62-.66c-1.27-.56-2.25-1.12-2.19-1.26,.84,.1,1.66,.36,2.4,.78,.56,.22,1.1,.5,1.61,.83,.42,.3,.45,.69,.37,.69Z"/>
    <path class="cls-6" d="M94.9,202.34c-.1,.11-.91-.53-2-1.19s-1.89-1.19-1.89-1.29c.8,.06,1.56,.35,2.19,.85,1.12,.7,1.81,1.53,1.7,1.63Z"/>
    <path class="cls-6" d="M93.46,204.01c-.78-.1-1.52-.37-2.18-.79-1.14-.57-2-1.14-1.94-1.27,.78,.11,1.52,.38,2.18,.8,1.14,.57,2.01,1.13,1.94,1.26Z"/>
    <path class="cls-6" d="M105.47,212.6c-.22-.93-.36-1.87-.42-2.82-.21-1.74-.45-4.16-.91-6.79-.2-1.23-.54-2.43-1-3.58-.19-.48-.5-.89-.91-1.2-.38-.28-.78-.53-1.19-.75-1.55-.78-2.6-1.12-2.56-1.21s.28,0,.75,.16c.68,.19,1.35,.43,2,.72,.45,.21,.88,.45,1.28,.73,.48,.34,.86,.81,1.1,1.35,.48,1.18,.82,2.42,1,3.69,.38,2.27,.64,4.55,.77,6.85,.12,.95,.15,1.9,.09,2.85Z"/>
    <path class="cls-8" d="M140.58,182.26c.03-.22,.09-.44,.18-.65l.58-1.84c.75-2.24,1.29-4.54,1.6-6.88,.2-1.61,.18-3.24-.07-4.84-.3-1.83-.98-3.57-2-5.12-1.09-1.73-2.71-3.05-4.62-3.77-2-.71-4.24-.65-6.53-.77-2.31,.03-4.56-.7-6.41-2.08-.83-.74-1.43-1.69-1.74-2.76-.33-1-.53-2-.89-2.9-.69-1.71-2.19-2.96-4-3.32-1.56-.38-3.2-.34-4.74,.14-1.28,.35-2.4,1.11-3.21,2.16-.58,.81-.88,1.8-.83,2.8,.01,.64,.19,1.26,.52,1.8,.23,.37,.4,.53,.38,.55-.18-.13-.34-.3-.47-.49-.38-.54-.6-1.18-.64-1.84-.08-1.06,.2-2.12,.8-3,.83-1.13,2-1.95,3.34-2.35,1.62-.53,3.35-.6,5-.21,.92,.21,1.79,.61,2.55,1.17,.81,.62,1.42,1.44,1.79,2.39,.38,1,.59,2,.91,2.92,.29,.98,.84,1.86,1.61,2.54,1.77,1.29,3.91,1.97,6.1,1.94,2.25,.13,4.56,.06,6.67,.81,2.01,.76,3.72,2.17,4.85,4,1.03,1.61,1.71,3.43,2,5.32,.23,1.64,.23,3.31,0,4.95-.35,2.36-.95,4.67-1.78,6.9-.28,.79-.51,1.4-.68,1.81-.07,.22-.16,.42-.27,.62Z"/>
    <path class="cls-8" d="M134.49,191.82c.99-1.22,1.83-2.56,2.47-4,.64-1.54,1-3.19,1.05-4.86,.07-2.08-.38-4.14-1.31-6-.49-1-1.05-1.93-1.49-2.91-.43-.96-.72-1.96-.87-3-.11-1.69-.48-3.36-1.1-4.94-.47-1.03-1.29-1.86-2.31-2.34-.39-.14-.8-.24-1.21-.29,0,0,.11,0,.33-.05,.34-.01,.68,.04,1,.15,1.12,.44,2.04,1.28,2.57,2.36,.68,1.59,1.1,3.28,1.25,5,.15,.98,.44,1.94,.86,2.84,.43,.94,1,1.87,1.49,2.89,.96,1.93,1.41,4.06,1.32,6.21-.07,1.74-.47,3.46-1.19,5.05-.48,1.1-1.14,2.13-1.94,3.03-.2,.24-.42,.46-.66,.67-.16,.13-.25,.2-.26,.19Z"/>
    <path class="cls-4" d="M126.78,216.68c-.8,.46-1.65,.83-2.53,1.11-2.08,.83-4.25,1.41-6.46,1.73-2.24,.31-4.53,.09-6.67-.65-.64-.23-1.26-.53-1.84-.89-.4-.27-.6-.45-.58-.47s.93,.52,2.53,1c2.11,.61,4.32,.77,6.49,.47,2.18-.32,4.33-.84,6.41-1.55,.86-.33,1.75-.58,2.65-.75Z"/>
    <path class="cls-4" d="M148.66,223.7c-1.09-4.05-4.37-7.14-8.47-8-2.84-.65-5.77-.84-8.67-.56-1.21,.14-2.42,.21-3.64,.21,.32-.11,.66-.18,1-.21,.62-.11,1.53-.24,2.65-.36,2.95-.4,5.94-.26,8.84,.42,2.93,.75,5.48,2.55,7.17,5.06,.47,.77,.81,1.61,1,2.49,.09,.31,.13,.63,.12,.95Z"/>
    <path class="cls-4" d="M137.45,246.62c-.1,0-.43-1.22-1.36-3.05-.54-1.07-1.18-2.09-1.9-3.05-.89-1.16-1.9-2.24-3-3.21-1.12-.95-2.32-1.79-3.6-2.51-1.05-.58-2.15-1.07-3.28-1.46-1.95-.65-3.23-.81-3.21-.91,.3-.04,.6-.04,.9,0,.35,.04,.7,.09,1.05,.17,.46,.09,.92,.2,1.37,.34,1.18,.35,2.32,.81,3.4,1.39,2.67,1.41,4.98,3.41,6.75,5.86,.72,.99,1.34,2.05,1.85,3.17,.2,.43,.37,.86,.52,1.31,.13,.32,.24,.66,.32,1,.11,.31,.18,.63,.19,.95Z"/>
    <path class="cls-4" d="M121.56,268.69c-.09,0,.34-1.53,.66-4,.19-1.46,.28-2.92,.27-4.39-.03-1.79-.19-3.57-.48-5.34-.31-1.76-.76-3.5-1.34-5.2-.49-1.38-1.06-2.74-1.72-4.05-1.14-2.24-2.05-3.51-2-3.57,.26,.26,.5,.55,.7,.86,.59,.81,1.12,1.66,1.59,2.54,.72,1.28,1.34,2.62,1.85,4,.61,1.72,1.08,3.48,1.41,5.28,.3,1.8,.44,3.62,.44,5.45-.01,1.49-.14,2.97-.38,4.44-.15,.99-.37,1.97-.66,2.93-.06,.36-.18,.72-.34,1.05Z"/>
    <path class="cls-4" d="M99.01,245.68c0-.09,1.07-.16,2.74-.58,4.39-1.11,8.25-3.76,10.86-7.46,1-1.41,1.44-2.39,1.52-2.35s-.05,.27-.24,.72c-.28,.64-.61,1.26-1,1.84-2.52,3.92-6.51,6.66-11.07,7.61-.68,.15-1.37,.23-2.07,.25-.25,.03-.5,.02-.74-.03Z"/>
    <path class="cls-4" d="M110.26,223.14s-.14,.23-.48,.57c-.5,.46-1.04,.87-1.62,1.23-1.93,1.15-4.1,1.85-6.34,2.06-2.22,.2-4.46,.16-6.67-.13-.92-.06-1.83-.22-2.71-.47,.92-.04,1.84,0,2.75,.1,2.19,.19,4.38,.19,6.57,0,2.17-.21,4.29-.84,6.22-1.86,1.47-.82,2.22-1.57,2.28-1.5Z"/>
    <path class="cls-4" d="M134.57,202.96c-.31,.22-.64,.39-1,.51-.65,.3-1.59,.71-2.77,1.17-3.07,1.28-6.32,2.06-9.64,2.3-3.36,.21-6.71-.66-9.54-2.49-.83-.56-1.58-1.23-2.23-2-.25-.27-.46-.58-.62-.92,.91,1,1.94,1.89,3.06,2.65,2.8,1.68,6.05,2.47,9.31,2.28,3.27-.25,6.48-.96,9.54-2.12l2.81-1c.34-.17,.71-.29,1.08-.38Z"/>
    <path class="cls-4" d="M92.2,246.31c-.09,0-.37-1.21-1.06-3.11-.9-2.47-2.1-4.82-3.58-7-1.49-2.17-3.24-4.14-5.22-5.87-1.52-1.33-2.56-2-2.51-2.11,.28,.1,.54,.24,.78,.42,.7,.43,1.37,.9,2,1.41,4.18,3.37,7.28,7.89,8.91,13,.25,.77,.45,1.56,.6,2.35,.07,.3,.09,.6,.08,.91Z"/>
    <path class="cls-4" d="M76.41,257.75c-.03-1.16,.02-2.32,.13-3.48,.11-2.15,.2-5.11,.09-8.39s-.39-6.22-.64-8.36c-.18-1.15-.31-2.3-.37-3.46,.14,.28,.22,.59,.26,.9,.14,.59,.3,1.45,.48,2.51,.43,2.78,.7,5.59,.79,8.4,.1,2.81,.02,5.62-.24,8.42-.1,1.08-.21,1.95-.3,2.54-.03,.31-.1,.62-.2,.92Z"/>
    <path class="cls-4" d="M73.7,230.31c-.51,.72-1.13,1.36-1.82,1.9-1.61,1.39-3.4,2.56-5.32,3.47-1.91,.9-3.92,1.55-6,1.93-.86,.2-1.74,.27-2.62,.21,2.9-.55,5.73-1.43,8.44-2.61,2.62-1.35,5.07-3,7.32-4.9Z"/>
    <path class="cls-4" d="M71.48,217.83c-.59,.52-1.27,.94-2,1.24-3.42,1.63-7.28,2.13-11,1.41-.78-.1-1.53-.34-2.22-.71,2.56,.5,5.18,.62,7.78,.38,2.58-.42,5.08-1.2,7.44-2.32Z"/>
    <path class="cls-4" d="M68.12,201.51c-.54,.44-1.15,.77-1.81,1-1.54,.62-3.17,1.02-4.82,1.19-1.67,.17-3.35,.1-5-.2-.69-.09-1.37-.29-2-.59,2.28,.32,4.58,.41,6.88,.27,2.3-.32,4.56-.88,6.75-1.67Z"/>
    <path class="cls-4" d="M145.06,263.48s-.67,0-1.86,.08c-1.67,.14-3.33,.47-4.92,1-2.37,.82-4.66,1.82-6.87,3-2.72,1.46-5.54,2.72-8.44,3.78-2.96,.96-6.08,1.35-9.18,1.14-2.53-.17-5.02-.71-7.38-1.62-1.59-.6-3.11-1.38-4.52-2.34-.51-.32-.87-.63-1.12-.81-.13-.09-.25-.2-.36-.32,1.93,1.25,3.98,2.3,6.13,3.13,2.34,.84,4.79,1.34,7.28,1.48,3.05,.19,6.1-.21,9-1.16,2.88-1.04,5.68-2.28,8.38-3.71,2.25-1.16,4.59-2.12,7-2.88,1.62-.5,3.3-.78,5-.84,.46-.04,.92-.04,1.38,0,.16,0,.33,.02,.48,.07Z"/>
    <path class="cls-4" d="M145.78,249.34c-1.63,.8-3.37,1.35-5.16,1.62-1.76,.43-3.57,.59-5.38,.46,0-.15,2.38-.4,5.28-1s5.21-1.23,5.26-1.08Z"/>
    <path class="cls-4" d="M147.5,275.17c-.15,.09-.32,.16-.49,.21l-1.42,.5c-1.24,.43-3.06,1-5.32,1.6-11.81,3.22-24.03,4.62-36.26,4.16-2.34-.09-4.23-.22-5.54-.36l-1.5-.16c-.18,0-.35-.04-.52-.09,.18-.02,.35-.02,.53,0l1.51,.06c1.3,.08,3.19,.15,5.53,.19,6.09,.12,12.18-.17,18.23-.85,6.05-.71,12.04-1.8,17.94-3.29,2.26-.58,4.09-1.08,5.35-1.44l1.45-.41c.17-.05,.34-.09,.51-.12Z"/>
    <g class="cls-11">
      <path d="M119.3,269.65c2.71,1.12,5.61,1.72,8.55,1.77,2.95,.04,5.83-.96,8.11-2.84,2.68-2.37,3.88-6,4.84-9.4,1.86-7.64,2.83-15.46,2.89-23.32,0,0-5.81,12-7.89,15.69-1.85,3.25-3.75,6.57-6,11.3-1.8,3.83-6.11,6.45-10.51,6.8"/>
    </g>
    <g class="cls-11">
      <path d="M90.36,219.22c-3.99,9.1-3.9,19.47,.25,28.5l6.4-5.76-6.65-22.74Z"/>
    </g>
  </g>
  <g id="freepik--Plant--inject-2">
    <path class="cls-10" d="M393.58,417.27c.68-2.69-1.1-5.37-3.08-7.31s-4.35-3.66-5.4-6.23c-1.68-4.16,.52-9.58-2.33-13-1.69-2-4.68-2.71-6.18-4.88-.69-1.21-1.14-2.53-1.35-3.91-1.62-6.92-5.08-13.28-10-18.41-.29,6.18,1.1,12.32,4,17.78,1.16,2.18,2.58,4.31,3,6.75,.64,4-1.55,8.05-.56,11.94,1.14,4.45,6.16,7.4,6.42,12,.23,3.87-3.13,7.29-2.86,11.17,.21,1.64,.81,3.21,1.75,4.58,3,5,7.45,8.37,14.12,8.22l8.17,.24-5.7-18.94Z"/>
    <g class="cls-11">
      <path d="M393.58,417.27c.68-2.69-1.1-5.37-3.08-7.31s-4.35-3.66-5.4-6.23c-1.68-4.16,.52-9.58-2.33-13-1.69-2-4.68-2.71-6.18-4.88-.69-1.21-1.14-2.53-1.35-3.91-1.62-6.92-5.08-13.28-10-18.41-.29,6.18,1.1,12.32,4,17.78,1.16,2.18,2.58,4.31,3,6.75,.64,4-1.55,8.05-.56,11.94,1.14,4.45,6.16,7.4,6.42,12,.23,3.87-3.13,7.29-2.86,11.17,.21,1.64,.81,3.21,1.75,4.58,3,5,7.45,8.37,14.12,8.22l8.17,.24-5.7-18.94Z"/>
    </g>
    <path class="cls-9" d="M400.91,436.35h.58c.56-.01,1.11-.07,1.66-.17,.89-.16,1.77-.4,2.61-.73,1.16-.42,2.24-1.04,3.19-1.82,.55-.45,.98-1.02,1.26-1.67,.22-.77,.34-1.57,.34-2.37,0-.9,.05-1.79,.15-2.68,.15-.97,.49-1.9,1-2.74,1-1.74,2.52-3.34,3-5.54s.1-4.56-.31-7-.81-5.2,.13-7.87,2.66-5,3.49-7.75,.41-5.88,.57-9c.05-1.62,.41-3.22,1.07-4.71,.67-1.49,1.58-2.87,2.26-4.35,1.38-3,1.62-6.42,2-9.85,.18-1.73,.36-3.47,.55-5.23,.11-1.8,.41-3.58,.89-5.32,.54-1.74,1.19-3.45,1.94-5.12,.36-.83,.67-1.68,.9-2.55,.13-.91,.21-1.82,.24-2.73,.07-1.86-.01-3.72-.25-5.57-.23-1.86-.58-3.73-.8-5.64v-.33l.38,.2c-1.66,.86-3.09,2.09-4.2,3.59-1.09,1.49-1.97,3.12-2.6,4.86-1.32,3.45-1.8,7.09-2.47,10.63-.55,3.5-1.73,6.87-3.48,9.95-.91,1.5-2,2.83-2.92,4.23-.97,1.33-1.63,2.86-1.93,4.47-.47,3.22,1.43,6.26,1.06,9.52-.19,1.57-.72,3.07-1.54,4.42-.75,1.34-1.63,2.56-2.45,3.78-.83,1.16-1.54,2.4-2.14,3.7-.57,1.26-.91,2.62-1,4-.19,2.69,.2,5.31,0,7.83-.21,2.39-.89,4.72-2,6.85-1,2-2.1,3.84-3,5.59-.46,.88-.89,1.74-1.23,2.58-.32,.82-.56,1.66-.71,2.53-.24,1.52-.27,3.06-.08,4.59,.21,2.13,.98,4.17,2.25,5.9,.47,.57,1.01,1.09,1.59,1.55,0,0-.16-.1-.46-.32-.2-.13-.38-.28-.54-.45-.24-.22-.47-.46-.67-.71-1.32-1.72-2.14-3.78-2.37-5.94-.22-1.55-.22-3.11,0-4.66,.15-.89,.38-1.75,.71-2.59,.36-.89,.77-1.76,1.22-2.61,.91-1.77,2-3.59,3-5.61,1.1-2.09,1.78-4.38,2-6.73,.18-2.46-.22-5.08,0-7.83,.09-1.42,.42-2.8,1-4.1,.61-1.33,1.34-2.59,2.18-3.79,.82-1.22,1.68-2.43,2.42-3.74,.78-1.3,1.28-2.75,1.46-4.25,.38-3.07-1.54-6.09-1.08-9.55,.32-1.68,1-3.28,2-4.67,.94-1.42,2-2.76,2.91-4.22,1.69-3.07,2.81-6.43,3.3-9.9,.67-3.51,1.14-7.2,2.48-10.71,.65-1.79,1.55-3.47,2.68-5,1.15-1.57,2.64-2.84,4.37-3.73l.33-.17,.05,.37v.33c.21,1.88,.56,3.75,.79,5.64,.25,1.87,.33,3.76,.25,5.65-.03,.94-.11,1.88-.24,2.81-.24,.91-.55,1.79-.94,2.65-.74,1.65-1.38,3.34-1.92,5.07-.48,1.71-.77,3.46-.88,5.23-.19,1.76-.37,3.5-.56,5.22-.38,3.42-.61,6.91-2,10-.71,1.53-1.62,2.89-2.27,4.34-.63,1.44-.97,2.98-1,4.55-.17,3.09,.26,6.21-.62,9.13s-2.65,5.2-3.52,7.76-.54,5.23-.14,7.68,.81,4.9,.26,7.16-2.09,3.91-3.05,5.61c-.5,.8-.84,1.7-1,2.63-.11,.88-.17,1.76-.18,2.65,0,.83-.12,1.65-.37,2.44-.29,.7-.75,1.32-1.34,1.8-.98,.79-2.08,1.4-3.26,1.82-.86,.32-1.75,.54-2.66,.68-.77,.15-1.56,.16-2.34,.03Z"/>
    <path class="cls-9" d="M426.19,339.96c0,.09,0,.17,0,.26,0,.2-.07,.44-.12,.74-.13,.66-.28,1.62-.56,2.87s-1,2.64-1.59,4.33-1.25,3.62-1.83,5.8-1.1,4.59-1.64,7.19c-.47,2.81-1.33,5.55-2.56,8.12-.67,1.34-1.4,2.69-2,4.12-.56,1.47-.93,3.01-1.11,4.58-.38,3.34-.95,6.66-1.7,9.94-1.62,6.71-3.15,13.09-4.56,18.91s-2.78,11-3.89,15.39l-2.62,10.36-.75,2.81c-.08,.3-.15,.54-.21,.73s-.08,.25-.09,.24,0-.08,0-.25,.1-.44,.16-.74l.66-2.84,2.5-10.4c1.08-4.41,2.37-9.63,3.79-15.43s2.91-12.2,4.51-18.9c.74-3.27,1.31-6.57,1.71-9.9,.18-1.61,.57-3.18,1.15-4.69,.59-1.48,1.33-2.82,2-4.15,1.22-2.54,2.08-5.23,2.57-8,.56-2.59,1.1-5,1.71-7.2,.54-1.97,1.18-3.91,1.91-5.81,.62-1.69,1.35-3.06,1.67-4.27s.49-2.19,.64-2.84l.18-.73c0-.08,.03-.16,.07-.24Z"/>
    <path class="cls-10" d="M402.36,436.37c5.32-3.2,6.79-12.84,4.53-18.62s-6.18-11.06-6.82-17.23c-.49-4.75,1-9.64-.09-14.27-1.53-6.26-7.68-11.08-7.64-17.52,0-3.61,2.05-7,1.87-10.64-.23-4.42-3.64-7.92-5.77-11.81-3.26-5.95-3.51-13-4.65-19.7s-3.73-13.84-9.68-17.1c-.85,5.69-2.32,9.59-1.81,17.29,.19,2.77,3.43,8,3.9,14.1,.28,3.62,.48,7.25,.73,10.87s.48,7.12,1.76,10.41c1,2.53,2.56,4.81,3.29,7.42,1.38,4.91-.37,10.24,.75,15.21,.95,4.21,3.89,7.82,4.51,12.09,.88,6-3,12.27-1,18,1,2.84,3.35,5.11,4,8,.53,2.27,0,4.69,.46,7,.77,3.68,7.82,6.5,11.58,6.25"/>
    <path class="cls-9" d="M375.61,315.12c.04,.1,.06,.2,.08,.31,0,.24,.1,.54,.17,.92,.16,.81,.34,2,.66,3.56s1.17,3.27,1.86,5.4,1.44,4.56,2.08,7.31,1.2,5.77,1.77,9c.45,3.48,1.39,6.88,2.78,10.1,.75,1.69,1.62,3.4,2.28,5.25,.64,1.9,1.04,3.88,1.19,5.88,.33,4.15,.88,8.28,1.64,12.38,1.67,8.41,3.26,16.42,4.7,23.71s2.84,13.83,4,19.34,2,9.94,2.63,13.05c.3,1.52,.53,2.71,.69,3.56,.07,.38,.13,.69,.17,.92,0,.11,0,.21,0,.32-.04-.1-.07-.2-.09-.31-.06-.23-.13-.53-.22-.91-.19-.84-.45-2-.79-3.54-.66-3.1-1.62-7.54-2.79-13s-2.55-12-4.09-19.32-3.06-15.31-4.74-23.72c-.76-4.11-1.28-8.26-1.58-12.43-.15-1.96-.54-3.89-1.16-5.76-.64-1.82-1.49-3.52-2.25-5.22-1.4-3.25-2.35-6.69-2.8-10.2-.55-3.26-1.08-6.29-1.7-9s-1.31-5.18-2-7.3-1.47-3.88-1.78-5.45-.43-2.76-.56-3.58c-.05-.39-.09-.69-.13-.93-.02-.11-.03-.23-.02-.34Z"/>
  </g>
  <g id="freepik--Device--inject-2">
    <path class="cls-9" d="M313.65,436.79l-131.53-.08c-15.82-.01-28.64-12.84-28.64-28.66l.07-329.75c0-15.82,12.83-28.65,28.65-28.65h0l131.54,.08c15.82,.01,28.64,12.84,28.63,28.66l-.06,329.75c0,15.83-12.84,28.66-28.67,28.65Z"/>
    <path class="cls-3" d="M313.61,61.39h-25.5c-3.5,.08-6.27,2.97-6.2,6.47v4.62c.08,3.5-2.69,6.39-6.19,6.47h0s-49.71,.01-49.71,.01c-3.49-.08-6.26-2.98-6.19-6.47v-4.68c.08-3.5-2.69-6.4-6.19-6.48h-31.32c-11.08,0-20.07,8.98-20.08,20.06h0s-.06,321.87-.06,321.87c0,11.08,8.97,20.06,20.05,20.07h0l131.27,.08c11.08,0,20.07-8.98,20.08-20.06l.06-321.87c.02-11.07-8.95-20.07-20.02-20.09Z"/>
    <path class="cls-9" d="M317.49,93.89c0,.09-3.32,.19-7.41,.22s-7.41,0-7.41-.1,3.32-.18,7.41-.21,7.41,0,7.41,.09Z"/>
    <path class="cls-9" d="M317.52,97.68c0,.09-3.32,.19-7.41,.22s-7.41,0-7.41-.09,3.32-.19,7.41-.22,7.41,0,7.41,.09Z"/>
    <path class="cls-9" d="M317.55,101.47c0,.09-3.32,.19-7.41,.22s-7.41,0-7.41-.09,3.32-.19,7.41-.22,7.41,0,7.41,.09Z"/>
    <path class="cls-9" d="M182.74,105.8h1.16l3.16-.07-.08,.08v-3.61c.09-.53,.53-.94,1.07-1h1.51c.59,.11,1.01,.62,1,1.22v3.34l-.14-.14h4l-.16,.15v-6.26c-.02-.4-.23-.77-.56-1l-1.75-1.72-1.68-1.66-.81-.8c-.29-.27-.51-.55-.83-.62-.32-.08-.66-.02-.92,.18-.24,.2-.5,.49-.74,.73l-1.43,1.44c-.9,.94-1.84,1.79-2.52,2.6-.2,.47-.27,.98-.2,1.49v5.64c-.01-.16-.01-.32,0-.48v-5.93c0-.29,.08-.58,.22-.83,.74-.91,1.62-1.71,2.52-2.67l1.43-1.46c.25-.25,.46-.5,.77-.76,.33-.25,.75-.33,1.15-.23,.39,.13,.74,.37,1,.69l.82,.8,1.69,1.65,1.75,1.72c.16,.15,.31,.31,.44,.48,.13,.2,.2,.44,.21,.68v6.43h-4.3v-3.49c0-.48-.33-.9-.8-1h-1.45c-.42,.05-.77,.36-.86,.77v3.66h-4.4c-.09,0-.18,0-.27-.02Z"/>
    <rect class="cls-2" x="176.78" y="125.83" width="139.93" height="25.45" rx="10.73" ry="10.73"/>
    <path class="cls-9" d="M306.01,151.29l.8-.07c.78-.07,1.56-.22,2.31-.45,1.22-.39,2.35-.99,3.36-1.77,1.38-1.05,2.48-2.42,3.2-4,.43-.95,.72-1.96,.84-3,.1-1.14,.13-2.29,.1-3.43,.04-1.25-.02-2.49-.17-3.73-.22-1.32-.69-2.59-1.39-3.73-1.55-2.56-4.12-4.34-7.06-4.91-1.62-.19-3.24-.25-4.87-.18h-5.17l-110.41,.07c-5.44,.02-9.97,4.19-10.44,9.61-.08,1.26,0,2.6,0,3.9-.06,1.27,.07,2.55,.4,3.78,.68,2.43,2.22,4.54,4.33,5.93,1.03,.69,2.18,1.18,3.39,1.45,1.21,.24,2.45,.33,3.68,.27h71.4l33.47,.09h9.09l-9.09,.05-33.47,.08-49.64,.06h-21.83c-1.27,.06-2.54-.04-3.79-.29-1.27-.28-2.48-.79-3.56-1.51-2.21-1.46-3.83-3.67-4.55-6.22-.34-1.28-.48-2.6-.42-3.92,0-1.31,0-2.59,.05-3.95,.48-5.69,5.24-10.07,10.95-10.08l110.41,.08h5.17c1.65-.07,3.3,0,4.93,.21,4.47,.87,7.92,4.43,8.66,8.92,.15,1.25,.2,2.51,.14,3.77,.04,1.15,0,2.31-.12,3.46-.14,1.04-.44,2.05-.88,3-.73,1.61-1.86,3.02-3.28,4.08-1.03,.78-2.19,1.37-3.43,1.75-.76,.22-1.55,.36-2.34,.4l-.77,.28Z"/>
    <path class="cls-9" d="M308.14,137.96s-.05-.41-.25-1.1c-.28-.97-.87-1.82-1.69-2.41-1.93-1.45-4.68-1.07-6.13,.87-1.45,1.93-1.07,4.68,.87,6.13,1.56,1.17,3.71,1.17,5.27,0,.82-.59,1.41-1.45,1.69-2.42,.2-.69,.2-1.1,.25-1.1,.02,.1,.02,.2,0,.3,.01,.29-.02,.57-.08,.85-.22,1.06-.81,2-1.66,2.66-1.29,1.02-3.01,1.3-4.56,.75-2.52-.9-3.82-3.68-2.92-6.19,.49-1.36,1.56-2.43,2.92-2.92,1.55-.55,3.27-.27,4.56,.74,.85,.67,1.43,1.61,1.66,2.66,.06,.28,.09,.57,.08,.86,.02,.11,.02,.21,0,.32Z"/>
    <path class="cls-9" d="M310.67,145.9c-.86-.55-1.62-1.25-2.25-2.05-.75-.7-1.39-1.52-1.88-2.42,.86,.56,1.63,1.25,2.26,2.06,.75,.69,1.39,1.51,1.87,2.41Z"/>
    <path class="cls-7" d="M195.67,136.01h-2.49v-.64h5.74v.64h-2.5v6.46h-.75v-6.46Z"/>
    <path class="cls-7" d="M204.01,140.02h-4.46c.07,1.09,1.01,1.92,2.1,1.86,.62,.02,1.22-.24,1.63-.7l.41,.47c-1.07,1.13-2.86,1.17-3.99,.1-.53-.51-.85-1.21-.87-1.95-.08-1.42,1.01-2.63,2.43-2.71,.06,0,.12,0,.18,0,1.4-.03,2.56,1.09,2.59,2.49,0,.07,0,.14,0,.22,.04,.06-.01,.16-.01,.22Zm-4.46-.54h3.78c0-1.04-.85-1.89-1.89-1.89-1.04,0-1.89,.85-1.89,1.89Z"/>
    <path class="cls-7" d="M208.78,142.47l-1.69-2.23-1.71,2.23h-.81l2.11-2.74-2-2.6h.81l1.61,2.09,1.6-2.09h.79l-2,2.6,2.13,2.74h-.84Z"/>
    <path class="cls-7" d="M213.61,142.14c-.32,.26-.72,.4-1.13,.38-.77,.09-1.47-.47-1.56-1.24-.01-.1-.01-.2,0-.31v-3.23h-.91v-.61h.95v-1.17h.72v1.17h1.63v.61h-1.63v3.22c-.08,.47,.24,.91,.7,.99,.07,.01,.15,.02,.23,0,.29,0,.57-.09,.79-.27l.21,.45Z"/>
    <rect class="cls-10" x="182.68" y="172.23" width="30.63" height="30.63"/>
    <path class="cls-10" d="M272.23,175.53c0,.14-10.24,.26-22.87,.26s-22.88-.12-22.88-.26,10.24-.26,22.88-.26,22.87,.11,22.87,.26Z"/>
    <path class="cls-9" d="M308.71,184.96c0,.15-18.41,.26-41.11,.26s-41.12-.11-41.12-.26,18.41-.26,41.12-.26,41.11,.07,41.11,.26Z"/>
    <path class="cls-9" d="M307.74,191.62c0,.14-18.19,.26-40.63,.26s-40.63-.12-40.63-.26,18.19-.26,40.63-.26,40.63,.12,40.63,.26Z"/>
    <path class="cls-9" d="M274.46,198.02c0,.14-10.74,.26-24,.26s-24-.12-24-.26,10.74-.26,24-.26,24,.11,24,.26Z"/>
    <rect class="cls-10" x="182.68" y="223.26" width="30.63" height="30.63"/>
    <path class="cls-10" d="M272.23,226.55c0,.15-10.24,.26-22.87,.26s-22.88-.11-22.88-.26,10.24-.26,22.88-.26,22.87,.12,22.87,.26Z"/>
    <path class="cls-9" d="M308.71,235.96c0,.15-18.41,.26-41.11,.26s-41.12-.11-41.12-.26,18.41-.26,41.12-.26,41.11,.1,41.11,.26Z"/>
    <path class="cls-9" d="M307.74,242.65c0,.14-18.19,.26-40.63,.26s-40.63-.12-40.63-.26,18.19-.26,40.63-.26,40.63,.11,40.63,.26Z"/>
    <path class="cls-9" d="M274.46,249.04c0,.15-10.74,.26-24,.26s-24-.11-24-.26,10.74-.26,24-.26,24,.12,24,.26Z"/>
    <rect class="cls-10" x="182.68" y="274.29" width="30.63" height="30.63"/>
    <path class="cls-10" d="M272.23,277.58c0,.15-10.24,.26-22.87,.26s-22.88-.11-22.88-.26,10.24-.26,22.88-.26,22.87,.12,22.87,.26Z"/>
    <path class="cls-9" d="M308.71,286.96c0,.14-18.41,.26-41.11,.26s-41.12-.12-41.12-.26,18.41-.26,41.12-.26,41.11,.13,41.11,.26Z"/>
    <path class="cls-9" d="M307.74,293.68c0,.14-18.19,.26-40.63,.26s-40.63-.12-40.63-.26,18.19-.27,40.63-.27,40.63,.12,40.63,.27Z"/>
    <path class="cls-9" d="M274.46,300.07c0,.15-10.74,.26-24,.26s-24-.11-24-.26,10.74-.26,24-.26,24,.15,24,.26Z"/>
    <rect class="cls-10" x="182.68" y="325.31" width="30.63" height="30.63"/>
    <path class="cls-8" d="M272.23,328.61c0,.14-10.24,.26-22.87,.26s-22.88-.12-22.88-.26,10.24-.26,22.88-.26,22.87,.12,22.87,.26Z"/>
    <path class="cls-9" d="M308.71,337.96c0,.14-18.41,.26-41.11,.26s-41.12-.12-41.12-.26,18.41-.26,41.12-.26,41.11,.15,41.11,.26Z"/>
    <path class="cls-9" d="M307.74,344.7c0,.15-18.19,.26-40.63,.26s-40.63-.11-40.63-.26,18.19-.26,40.63-.26,40.63,.12,40.63,.26Z"/>
    <path class="cls-9" d="M274.46,351.1c0,.14-10.74,.26-24,.26s-24-.12-24-.26,10.74-.26,24-.26,24,.12,24,.26Z"/>
    <rect class="cls-7" x="182.68" y="376.34" width="30.63" height="30.63"/>
    <path class="cls-7" d="M272.23,379.64c0,.14-10.24,.26-22.87,.26s-22.88-.12-22.88-.26,10.24-.26,22.88-.26,22.87,.11,22.87,.26Z"/>
    <path class="cls-1" d="M308.71,389.03c0,.14-18.41,.26-41.11,.26s-41.12-.12-41.12-.26,18.41-.26,41.12-.26,41.11,.11,41.11,.26Z"/>
    <path class="cls-1" d="M307.74,395.73c0,.14-18.19,.26-40.63,.26s-40.63-.12-40.63-.26,18.19-.26,40.63-.26,40.63,.12,40.63,.26Z"/>
    <path class="cls-1" d="M274.46,402.13c0,.14-10.74,.26-24,.26s-24-.12-24-.26,10.74-.26,24-.26,24,.09,24,.26Z"/>
    <g class="cls-11">
      <rect x="182.68" y="325.73" width="30.63" height="30.63"/>
    </g>
    <g class="cls-11">
      <rect x="182.68" y="223.26" width="30.63" height="30.63"/>
    </g>
  </g>
</svg>