<?xml version="1.0" encoding="UTF-8"?>
<svg id="Layer_1" data-name="Layer 1" xmlns="http://www.w3.org/2000/svg" viewBox="0 0 423.26 426.02">
  <defs>
    <style>
      .cls-1 {
        fill: #ebebeb;
      }

      .cls-2 {
        fill: #fff;
      }

      .cls-3 {
        fill: #a6a6a6;
      }

      .cls-4 {
        fill: #ad6359;
      }

      .cls-5 {
        fill: #c7c7c7;
      }

      .cls-6 {
        fill: #dbdbdb;
      }

      .cls-7 {
        fill: #37474f;
      }

      .cls-8 {
        fill: #263238;
      }

      .cls-9 {
        fill: #36c727;
      }

      .cls-10 {
        opacity: .2;
      }

      .cls-11 {
        fill: #030402;
        isolation: isolate;
        opacity: .1;
      }
    </style>
  </defs>
  <g id="freepik--background-complete--inject-2">
    <rect class="cls-1" x="18.26" y="85.98" width="166.63" height="7.31"/>
    <rect class="cls-1" x="168.23" y="93.3" width="7.31" height="24.17"/>
    <rect class="cls-6" x="168.23" y="93.3" width="7.31" height="7.47"/>
    <rect class="cls-1" x="27.59" y="93.3" width="7.31" height="24.17"/>
    <rect class="cls-6" x="27.59" y="93.3" width="7.31" height="7.47"/>
    <rect class="cls-5" x="142.05" y="39.42" width="11.73" height="46.57"/>
    <rect class="cls-6" x="142.05" y="36.93" width="11.73" height="5.12"/>
    <rect class="cls-6" x="142.05" y="48.6" width="11.73" height="1.9"/>
    <rect class="cls-6" x="140.59" y="74.76" width="13.19" height="5.12"/>
    <rect class="cls-6" x="133.85" y="31.66" width="8.2" height="54.33"/>
    <rect class="cls-1" x="135.53" y="36.77" width="4.92" height="20.89"/>
    <rect class="cls-5" x="70.59" y="59.9" width="54.33" height="8.2" transform="translate(-16.76 87.21) rotate(-44.67)"/>
    <rect class="cls-6" x="84.46" y="64.31" width="20.89" height="4.92" transform="translate(-19.53 86) rotate(-44.67)"/>
    <rect class="cls-3" x="119.94" y="44.73" width="13.92" height="41.26"/>
    <rect class="cls-5" x="119.94" y="77.78" width="13.92" height="3.85"/>
    <rect class="cls-5" x="119.94" y="73.76" width="13.92" height="1.49"/>
    <rect class="cls-3" x="153.79" y="47.22" width="9.61" height="38.78"/>
    <rect class="cls-5" x="153.79" y="78.27" width="9.61" height="3.61"/>
    <rect class="cls-5" x="153.79" y="55.21" width="9.61" height="3.61"/>
    <rect class="cls-5" x="153.78" y="61.3" width="9.61" height="1.4"/>
    <path class="cls-3" d="M51.95,36.31c8.2,8,9.58,20.46,7.85,31.34,0,.24-.43,.18-.43-.06,0-2.47,.08-4.93,.07-7.37,0-.12-.08-.22-.13-.33-2.21-1.46-4.04-3.42-5.33-5.73-1.37-2.69-1.91-5.73-2.95-8.55-.1-.27,.19-.19,.37-.05,5,3.68,6.58,7.64,8,12.93-.03-2.77-.32-5.53-.87-8.24-.95-5.11-3.31-9.86-6.8-13.72-.05-.08-.02-.17,.05-.22,.05-.03,.12-.03,.17,0Z"/>
    <path class="cls-6" d="M50.41,37.25c-1.42,0-2.3,2.3-3.4,3-.45,.37-1.12,.3-1.49-.15-.02-.03-.05-.06-.07-.1-1.09-1.52,.41-3.39,1.81-4.44-.93,.52-1.91,.94-2.92,1.26-.52,.18-1.09-.09-1.28-.61-.02-.06-.04-.12-.04-.18-.48-2.07,2.12-3,3.91-3-.87-.6-3.35-2.23-2-3s4.25,1.53,5.19,2.3c1.4,1.13,3.06,2.83,3.13,4.6,.05,2.02-1.76,.75-2.84,.32Z"/>
    <path class="cls-1" d="M50.81,37.6c-1.8-.83-5.27,.36-5.56-.33-.6-1.39,2.17-2.34,3.67-2.53-1.38-.37-4-1-3.94-2.29,.1-1.62,4.05-.23,6.05,1.3,2.51,1.93,2.5,3.8,2.08,4.17-.57,.51-2-.19-2.3-.32Z"/>
    <path class="cls-3" d="M70.63,35.52c-8.5,7.71-10.35,20.07-9,31,0,.25,.42,.2,.43,0,.09-2.47,.11-4.93,.21-7.37l.14-.33c2.26-1.36,4.16-3.25,5.54-5.51,1.48-2.64,2.13-5.66,3.28-8.43,.11-.27-.18-.2-.37-.07-5.13,3.49-6.87,7.39-8.5,12.62,.14-2.76,.53-5.51,1.18-8.2,1.15-5.08,3.69-9.74,7.34-13.46,.07-.07,.07-.18,0-.25s-.18-.07-.25,0Z"/>
    <path class="cls-6" d="M72.13,36.51c1.41,.1,2.21,2.39,3.28,3.09,.44,.39,1.11,.34,1.5-.1,.03-.03,.05-.06,.07-.09,1.15-1.48-.28-3.41-1.64-4.51,.9,.58,1.87,1.07,2.87,1.46,.51,.2,1.09-.05,1.3-.56,.02-.06,.04-.12,.05-.18,.55-2.06-2-3.08-3.79-3.19,.88-.57,3.42-2.11,2.14-3s-4.28,1.39-5.28,2.14c-1.44,1.08-3.16,2.71-3.29,4.47-.16,2.06,1.69,.86,2.79,.47Z"/>
    <path class="cls-1" d="M71.71,36.82c1.84-.75,5.25,.56,5.57-.11,.65-1.36-2.08-2.42-3.56-2.66,1.39-.32,4-.82,4-2.15,0-1.62-4-.38-6.09,1.08-2.58,1.83-2.64,3.69-2.24,4.08,.56,.55,2.02-.09,2.32-.24Z"/>
    <path class="cls-3" d="M61.93,55.89c-.57,4.12-1.45,8.2-2.64,12.19-.03,.16-.19,.27-.36,.24-.16-.03-.27-.19-.23-.36,.56-3.76,1.58-7.45,2.13-11.2,.61-3.8,.84-7.66,.66-11.51-.36-6.33-2.08-13.07-6.21-18-.09-.12,.1-.29,.19-.18,8.28,9.65,7,21.48,7,22.54,1.17-4,2.38-8.57,6.81-12.64,.19-.18,.34-.09,.31,.21-.79,7.4-2.85,11.27-7.15,15.23-.17,1.15-.32,2.32-.51,3.48Z"/>
    <path class="cls-6" d="M55.2,28.34c-1.49-.66-3.54,1.23-5,1.36-.66,.16-1.31-.25-1.47-.9,0-.03-.01-.07-.02-.1-.37-2.12,2.13-3.32,4.11-3.7-1.25-.08-2.48,.26-3.71-.07-.65-.08-1.11-.66-1.04-1.31,0-.06,.02-.12,.04-.18,.55-2.39,3.71-2,5.59-1.19-.6-1-2.35-4-.58-4.17s3.64,3.72,4.23,5c.88,1.88,1.76,4.47,.93,6.34-.93,2.14-2.17-.09-3.08-1.08Z"/>
    <path class="cls-1" d="M55.45,28.9c-1.46-1.75-5.65-2.27-5.61-3.13,.08-1.74,3.43-1.34,5.08-.78-1.24-1.08-3.68-3-2.93-4.36,.92-1.63,4.31,1.8,5.62,4.4,1.64,3.27,.68,5.19,.06,5.37-.85,.24-1.98-1.2-2.22-1.5Z"/>
    <path class="cls-6" d="M67.38,58.11l3.65,27.88h-22.21c.46-2.47,4.59-27.91,4.59-27.91l13.97,.03Z"/>
    <path class="cls-1" d="M332.24,65.25c.61-2.57,1.71-4.99,3.24-7.13,1.46-2,3.81-3.45,7.06-4.36,1-.3,2.17-.62,3.58-1,1.45-.35,2.87-.83,4.24-1.42,1.39-.6,2.68-1.42,3.81-2.43,1.14-1.03,1.94-2.39,2.29-3.89,.3-1.08,.34-2.21,.11-3.31-.21-.99-.62-1.92-1.2-2.74-.6-.83-1.36-1.53-2.24-2.06-.9-.56-1.88-.97-2.9-1.22-1.18-.3-2.4-.36-3.6-.17-1.09,.16-2.15,.47-3.16,.92-.98,.44-1.91,.99-2.76,1.65-.79,.6-1.54,1.24-2.25,1.92l-6.1-7c1.14-1.53,2.52-2.87,4.1-3.94,1.54-1.04,3.22-1.85,5-2.39,1.81-.54,3.69-.83,5.58-.85,1.95-.03,3.9,.2,5.79,.69,2.15,.54,4.22,1.4,6.13,2.53,1.91,1.13,3.58,2.62,4.9,4.4,1.37,1.86,2.31,3.99,2.76,6.25,.51,2.66,.39,5.4-.34,8-.38,1.63-1,3.19-1.84,4.64-.75,1.25-1.68,2.37-2.78,3.32-1.09,.93-2.28,1.72-3.57,2.35-1.39,.67-2.83,1.24-4.31,1.71-1.31,.4-2.6,.76-3.89,1.1-1.24,.32-2.46,.76-3.62,1.3-1.11,.51-2.13,1.2-3,2.06-.89,.94-1.52,2.11-1.8,3.38l-9.23-2.31Zm-4.81,19.83l2.95-11.72,9.43,2.37-2.95,11.72-9.43-2.37Z"/>
    <path class="cls-1" d="M34.71,282.6c.43,1.89,.48,3.85,.16,5.77-.48,2.04-1.62,3.86-3.24,5.18-.56,.51-1.25,1.11-2.07,1.79-.85,.7-1.64,1.47-2.35,2.31-.74,.84-1.33,1.8-1.75,2.84-.42,1.05-.51,2.21-.26,3.32,.16,.81,.5,1.58,1,2.24,.46,.58,1.03,1.07,1.68,1.43,.67,.35,1.4,.56,2.15,.63,.77,.08,1.56,.04,2.32-.12,.87-.17,1.69-.51,2.43-1,.67-.46,1.28-1.01,1.8-1.63,.51-.62,.94-1.29,1.3-2,.33-.65,.62-1.32,.87-2l6.3,2.64c-.26,1.39-.76,2.72-1.46,3.94-.68,1.19-1.55,2.28-2.56,3.21-1.02,.95-2.18,1.75-3.43,2.37-1.29,.65-2.65,1.12-4.06,1.41-1.6,.34-3.25,.44-4.88,.31-1.63-.13-3.22-.58-4.67-1.33-1.51-.79-2.82-1.91-3.86-3.26-1.19-1.6-1.99-3.45-2.35-5.41-.28-1.2-.37-2.44-.28-3.67,.09-1.07,.35-2.11,.77-3.1,.41-.97,.95-1.88,1.61-2.71,.7-.9,1.47-1.75,2.3-2.54,.74-.68,1.48-1.34,2.23-2,.73-.61,1.39-1.27,2-2,.54-.7,.95-1.49,1.22-2.33,.29-.92,.33-1.9,.1-2.83l6.98-1.46Zm-3.22-14.71l1.83,8.73-7,1.47-1.83-8.72,7-1.48Z"/>
    <path class="cls-1" d="M349.63,193.37c1.18,1.55,2.04,3.3,2.55,5.18,.4,2.06,.11,4.19-.83,6.07-.29,.7-.67,1.53-1.13,2.49-.49,.99-.88,2.02-1.18,3.08-.32,1.07-.46,2.19-.41,3.31,.06,1.13,.45,2.22,1.14,3.13,.48,.67,1.11,1.23,1.84,1.61,.66,.34,1.39,.55,2.13,.6,.75,.05,1.51-.06,2.22-.31,.73-.25,1.42-.62,2.05-1.08,.72-.51,1.33-1.16,1.79-1.92,.44-.7,.77-1.45,1-2.24,.2-.77,.32-1.56,.35-2.35,.04-.72,.04-1.45,0-2.17l6.82-.22c.34,1.36,.45,2.78,.32,4.18-.13,1.38-.47,2.72-1,4-.54,1.29-1.26,2.49-2.14,3.58-.9,1.13-1.94,2.14-3.1,3-1.32,.98-2.78,1.75-4.32,2.31-1.54,.56-3.17,.81-4.8,.73-1.7-.1-3.36-.56-4.86-1.35-1.75-.96-3.25-2.31-4.39-3.95-.75-.98-1.35-2.06-1.78-3.22-.37-1.01-.56-2.07-.59-3.14-.03-1.06,.08-2.11,.33-3.14,.27-1.11,.62-2.2,1.05-3.26,.39-.93,.78-1.84,1.2-2.73,.42-.86,.75-1.75,1-2.67,.23-.86,.3-1.76,.22-2.65-.12-.95-.5-1.86-1.09-2.61l5.61-4.26Zm-9-12l5.29,7.17-5.77,4.26-5.29-7.17,5.77-4.26Z"/>
    <path class="cls-1" d="M382.47,175.33c-.03-2.14,.35-4.26,1.14-6.25,.98-2.09,2.62-3.79,4.68-4.83,.71-.43,1.59-.91,2.63-1.46,1.05-.56,2.06-1.21,3-1.95,.99-.74,1.84-1.64,2.52-2.66,.68-1.04,1.03-2.27,1-3.52,.03-1.75-.72-3.42-2.06-4.54-.63-.53-1.37-.93-2.16-1.17-.82-.26-1.67-.39-2.52-.39-.97-.01-1.94,.17-2.84,.53-.83,.35-1.6,.8-2.31,1.35-.69,.54-1.31,1.16-1.85,1.85-.5,.62-.96,1.27-1.38,1.95l-6.18-4.26c.59-1.43,1.42-2.75,2.45-3.91,1.01-1.12,2.18-2.09,3.48-2.87,1.32-.79,2.74-1.39,4.23-1.78,1.53-.4,3.1-.6,4.68-.6,1.81,0,3.6,.26,5.33,.78,1.72,.51,3.33,1.35,4.72,2.49,1.44,1.19,2.6,2.68,3.41,4.36,.95,1.99,1.42,4.17,1.39,6.37,.02,1.35-.16,2.7-.53,4-.34,1.13-.86,2.19-1.53,3.16-.66,.95-1.45,1.81-2.34,2.55-.97,.81-1.99,1.54-3.06,2.2-.94,.57-1.89,1.12-2.84,1.64-.91,.5-1.78,1.08-2.59,1.74-.76,.61-1.41,1.36-1.91,2.2-.52,.91-.78,1.95-.75,3l-7.81,.02Zm.14,16.54v-9.8h7.88v9.8h-7.88Z"/>
    <path class="cls-1" d="M135.95,232.14c-.48-2.08-.54-4.24-.18-6.35,.52-2.24,1.78-4.25,3.58-5.69,.61-.57,1.36-1.22,2.27-2,.93-.78,1.79-1.63,2.58-2.54,.8-.93,1.45-1.99,1.91-3.13,.46-1.16,.56-2.43,.28-3.65-.17-.89-.55-1.74-1.1-2.46-.51-.62-1.15-1.13-1.86-1.5-.73-.39-1.53-.63-2.36-.7-.85-.08-1.7-.03-2.54,.14-.95,.19-1.86,.57-2.67,1.11-.74,.51-1.42,1.11-2,1.8-.55,.67-1.03,1.41-1.42,2.19-.38,.71-.71,1.45-1,2.2l-6.81-2.92c.28-1.52,.82-2.99,1.59-4.33,.75-1.31,1.7-2.5,2.81-3.53,1.12-1.05,2.39-1.93,3.76-2.62,1.41-.71,2.91-1.23,4.46-1.56,1.76-.37,3.57-.48,5.37-.34,1.79,.14,3.53,.63,5.13,1.45,1.66,.87,3.1,2.08,4.24,3.57,2.08,2.9,3.11,6.43,2.92,10-.1,1.17-.38,2.32-.84,3.4-.45,1.07-1.04,2.08-1.76,3-.78,.99-1.62,1.92-2.53,2.79-.81,.75-1.62,1.48-2.44,2.18-.79,.68-1.52,1.43-2.18,2.24-.61,.76-1.09,1.63-1.42,2.55-.31,1.01-.35,2.08-.1,3.11l-7.69,1.59Zm3.57,16.15l-2-9.58,7.71-1.64,2,9.59-7.71,1.63Z"/>
    <path class="cls-1" d="M376.42,309.71l13.36-.28,6.58-.11c2.19-.05,4.36,0,6.54-.06l-.44,.45-.06-11.19,.5,.5-13.27-.06c-4.41,0-8.82-.12-13.24-.17l.28-.27c0,1.83-.09,3.67-.14,5.54l-.11,5.65Zm0,0l-.14-5.54c0-1.86-.11-3.75-.13-5.65v-.27h.27c4.42-.05,8.83-.16,13.24-.17l13.24-.06h.5v12.14h-.45c-2.23,0-4.47,0-6.69-.06l-6.66-.11-13.18-.28Z"/>
    <path class="cls-1" d="M391.19,323.82l13.36-.28,6.58-.11c2.19-.05,4.36,0,6.54-.06l-.44,.45-.05-11.19,.49,.5-13.24-.06c-4.41,0-8.82-.12-13.24-.17l.28-.27c0,1.83-.09,3.67-.13,5.54l-.15,5.65Zm0,0l-.14-5.54c0-1.86-.11-3.75-.13-5.65v-.27h.27c4.42-.05,8.83-.16,13.24-.17l13.24-.06h.51v.5l-.06,11.19v.45h-.49c-2.23,0-4.46,0-6.69-.06l-6.66-.11-13.09-.28Z"/>
    <path class="cls-1" d="M361.63,323.82l13.36-.28,6.58-.11c2.18-.05,4.36,0,6.54-.06l-.44,.45-.04-11.19,.5,.5-13.24-.06c-4.41,0-8.83-.12-13.24-.17l.27-.27c0,1.83-.08,3.67-.13,5.54l-.16,5.65Zm0,0l-.14-5.54c-.05-1.86-.11-3.75-.13-5.65v-.27h.27c4.41-.05,8.83-.16,13.24-.17l13.24-.06h.5v.5l.02,11.19v.45h-.44c-2.23,0-4.47,0-6.69-.06l-6.66-.11-13.21-.28Z"/>
    <path class="cls-1" d="M20.36,323.82l13.35-.28,6.58-.11c2.19-.05,4.37,0,6.55-.06l-.45,.45-.05-11.19,.5,.5-13.21-.06c-4.42,0-8.83-.12-13.24-.17l.27-.27c0,1.83-.09,3.67-.13,5.54l-.17,5.65Zm0,0l-.15-5.54c0-1.86-.11-3.75-.13-5.65v-.27h.28c4.41-.05,8.82-.16,13.24-.17l13.24-.06h.5v.5l-.06,11.19v.45h-.44c-2.23,0-4.47,0-6.7-.06l-6.66-.11-13.12-.28Z"/>
    <path class="cls-1" d="M20.36,12.59l13.35-.28,6.58-.12h6.55l-.45,.45-.05-11.19,.5,.49-13.21-.12c-4.42,0-8.83-.11-13.24-.16l.27-.27c0,1.83-.09,3.67-.13,5.53l-.17,5.67Zm0,0l-.15-5.54c0-1.87-.11-3.76-.13-5.65v-.27h.28c4.41,0,8.82-.16,13.24-.16l13.24-.06h.5v.51l-.06,11.19v.44h-.44c-2.23,0-4.47,0-6.7-.05l-6.66-.18-13.12-.23Z"/>
    <path class="cls-1" d="M5.63,26.7l13.35-.28,6.58-.12h6.55l-.45,.45V15.56l.5,.49-13.33-.11c-4.42,0-8.83-.12-13.2-.12l.27-.27c0,1.83-.09,3.67-.13,5.53l-.14,5.62Zm0,0l-.15-5.54c0-1.87-.11-3.76-.13-5.65v-.27h.28c4.41,0,8.82-.16,13.24-.16l13.24-.06h.5v.51l-.06,11.19v.44h-7.14l-6.66-.12-13.12-.34Z"/>
    <path class="cls-1" d="M391.19,12.6l13.36-.28,6.58-.11c2.19,0,4.36,0,6.54-.06l-.44,.45-.05-11.19,.49,.5-13.24-.09c-4.41,0-8.82-.11-13.24-.16l.28-.27c0,1.83-.09,3.67-.13,5.53l-.15,5.68Zm0,0l-.14-5.54c0-1.87-.11-3.75-.13-5.65v-.27h.27c4.42-.05,8.83-.15,13.24-.16l13.2-.07h.51v.5l-.05,11.19v.45h-7.15l-6.66-.11-13.09-.34Z"/>
    <path class="cls-1" d="M247.84,157.65l-13.35,.28-6.58,.11c-2.19,.05-4.37,0-6.55,.06l.45-.45,.05,11.19-.5-.5,13.24,.07c4.42,0,8.83,.11,13.24,.16l-.27,.27c0-1.83,.09-3.67,.13-5.53l.14-5.66Zm0,0l.15,5.54c0,1.87,.11,3.75,.13,5.65v.27h-.28c-4.41,0-8.82,.15-13.24,.16l-13.24,.06h-.5v-.51l.06-11.19v-.45h.44c2.23,0,4.47,0,6.7,.05l6.66,.11,13.12,.31Z"/>
    <path class="cls-1" d="M233.07,143.54l-13.35,.28-6.58,.11c-2.19,0-4.37,0-6.55,.06l.45-.45,.05,11.19-.5-.5,13.24,.07c4.41,0,8.83,.11,13.24,.16l-.27,.27c0-1.83,.08-3.67,.13-5.53l.14-5.66Zm0,0l.14,5.54c.05,1.87,.12,3.75,.13,5.65v.27h-.28c-4.41,.05-8.83,.15-13.24,.16l-13.24,.06h-.5v-.5l.06-11.19v-.45h.49c2.23,0,4.47,0,6.7,.05l6.66,.11,13.08,.3Z"/>
  </g>
  <g id="freepik--Floor--inject-2">
    <polygon class="cls-8" points="0 374.34 52.91 374.1 105.82 374.01 211.63 373.84 317.44 374.01 370.35 374.1 423.26 374.34 370.35 374.59 317.44 374.68 211.63 374.84 105.82 374.68 52.91 374.59 0 374.34"/>
  </g>
  <g id="freepik--Shadow--inject-2">
    <ellipse class="cls-1" cx="211.63" cy="408.46" rx="180.39" ry="17.56"/>
  </g>
  <g id="freepik--Plant--inject-2">
    <path class="cls-8" d="M388.63,264.31c-3.8-3.72-8.71-8.22-14.52-6.61-5.46,1.51-7.55,7.47-8.53,12.44-1.26,6.41-2.24,12.87-3.26,19.32s-2,13-2.93,19.55c-.53,3.68-1.05,7.36-1.56,11.05-.26,1.84-.52,3.68-.77,5.52-.25,1.81-.55,3.62-.65,5.44,0,.58,.88,.66,1,.11,.71-3.07,1-6.27,1.45-9.38s.91-6.28,1.36-9.41c.91-6.23,1.86-12.45,2.79-18.68s1.91-12.44,2.91-18.66c.84-5.28,1.24-11.83,5.91-15.31,2.58-1.76,5.89-2.07,8.75-.82,3.07,1.18,5.53,3.38,7.94,5.56,.11,.07,.21-.04,.11-.12Z"/>
    <path class="cls-9" d="M383.46,260.51s-7.77-2.79-11.6,2.87,.75,20.08,36.1,28.21c-1.03-11.05-3.91-21.85-8.5-31.95-7.58-16.53-21.09-10.27-16,.87Z"/>
    <path class="cls-8" d="M405.93,289.23c-.53-.99-1.13-1.94-1.78-2.86-.59-.91-1.19-1.82-1.79-2.72-.45-.68-.92-1.36-1.38-2,0-.16,0-.33,.06-.5l.12-.92c.09-.66,.19-1.33,.28-2s.21-1.31,.34-2c.08-.71,.24-1.4,.46-2.08,0-.11-.14-.16-.15,0-.08,.4-.18,.8-.32,1.18l-.24,.89c-.17,.67-.33,1.34-.48,2s-.26,1.25-.37,1.87c-.05,.31-.09,.61-.13,.91-.63-.9-1.28-1.79-1.94-2.66-1.88-2.47-3.86-4.85-5.92-7.18v-.06c.19-3.71,.1-7.39,.92-11,0-.1-.12-.16-.15-.06-.93,3.44-1.38,7-1.32,10.57-.73-.82-1.48-1.64-2.23-2.45-1.73-1.85-3.48-3.68-5.27-5.46-.07-.07-.19,0-.12,.11,3,3.21,5.81,6.55,8.57,9.95-2.16-.04-4.32,.05-6.47,.24-2.39,.17-4.77,.48-7.15,.81-.11,0-.08,.17,0,.16,2.37-.35,4.75-.56,7.14-.64,2.31-.1,4.6,0,6.91,0,1.49,1.84,2.96,3.7,4.41,5.58h-1.92c-1.08,0-2.15,.1-3.22,.19-2.2,.18-4.38,.52-6.53,1-.04,0-.08,.04-.08,.08s.04,.08,.08,.08c2.17-.25,4.35-.45,6.53-.53h4.84c.3,.04,.6,.01,.89-.08,.95,1.23,1.89,2.47,2.84,3.71,.75,1,1.49,2,2.22,3s1.42,2.15,2.24,3.11c.04-.07,.15-.16,.11-.24Z"/>
    <path class="cls-8" d="M386.84,268.54c-1.25-.16-2.52-.22-3.78-.18-1.26,0-2.53,0-3.79,.08-.11,0-.1,.16,0,.16,1.28-.1,2.56-.12,3.84-.1s2.48,.14,3.71,.1c.06,0,.06-.05,.02-.06Z"/>
    <path class="cls-8" d="M397.94,271.39c.14-1.21,.29-2.42,.55-3.61,0-.04-.04-.08-.08-.08s-.08,.04-.08,.08h0c-.18,1.19-.41,2.37-.58,3.56-.09,.59-.17,1.19-.25,1.78-.1,.56-.15,1.12-.14,1.69,.02,.06,.08,.09,.14,.07,.03-.01,.06-.04,.07-.07,.1-.56,.17-1.12,.18-1.69,.05-.58,.12-1.16,.19-1.73Z"/>
    <path class="cls-8" d="M395.63,258.01c-.31,1.18-.62,2.37-.83,3.56-.11,.61-.21,1.22-.29,1.83-.11,.59-.15,1.19-.12,1.79,0,.03,.02,.05,.05,.05s.05-.02,.05-.05c.14-.56,.23-1.13,.27-1.7,.08-.59,.17-1.17,.27-1.76,.22-1.23,.44-2.45,.75-3.66,.01-.1-.15-.16-.15-.06Z"/>
    <path class="cls-8" d="M349.63,329.71c-.2-2.22-.42-4.45-.65-6.67-.47-4.4-1-8.8-1.59-13.19-.59-4.37-1.15-8.76-1.86-13.12-.26-2.04-.71-4.05-1.35-6-.46-1.69-1.68-3.06-3.3-3.73-4.16-1.43-7,2.88-8.64,5.93-.05,.09,.08,.16,.14,.08,1-1.45,3.78-5.5,6.94-5.31,2.12,.12,3.82,1.63,4.84,6.92,2.54,13.19,4.83,40,5.1,41.71,.14,.93,.79,.89,.8-.11-.04-2.14-.29-4.33-.43-6.51Z"/>
    <path class="cls-9" d="M333.31,291.34s3.64-12.84-4.4-6.42c-13.38,10.69-13.85,33.9-13.85,33.9,0,0,23.78-13.81,26.73-22.92,4.41-13.54-8.48-4.56-8.48-4.56Z"/>
    <path class="cls-8" d="M337.81,297.64c-1.86,.38-3.76,.63-5.64,.9l-2.68,.38c-.6,.08-1.21,.14-1.82,.21,1.77-2.44,3.56-4.87,5.26-7.36,.03-.04,.02-.11-.02-.14-.04-.03-.11-.02-.14,.02-1.42,1.45-2.75,2.99-4,4.59l-1.06-3c-.4-1.15-.84-2.29-1.13-3.48,0-.1-.18,0-.15,.05,.32,1.17,.55,2.38,.87,3.56s.65,2.26,1.05,3.37c-.87,1.13-1.71,2.29-2.52,3.46-.41-1.16-.92-2.28-1.27-3.46,0-.1-.19-.05-.16,0,.43,1.31,.66,2.66,1.06,4-.55,.8-1.09,1.6-1.61,2.4-1,1.49-1.87,3-2.75,4.52-.14,.06-.23,.21-.21,.36-1.5,2.6-2.93,5.23-4.34,7.89-.02,.04,0,.09,.03,.11,.04,.02,.09,0,.11-.03,1.41-2.63,3-5.19,4.61-7.7h0c.25-.08,.51-.13,.78-.15l.82-.18c.61-.13,1.22-.29,1.83-.44,1.21-.3,2.4-.59,3.63-.8,.1,0,.05-.17,0-.15-1.44,.27-2.88,.44-4.34,.6-.69,.08-1.37,.17-2.05,.28h-.1c.85-1.29,1.71-2.58,2.6-3.86,.86-1.25,1.75-2.49,2.64-3.73,.83-.11,1.64-.33,2.46-.48l2.76-.54c1.84-.37,3.68-.78,5.53-1.08,.1,.06,.05-.14-.05-.12Z"/>
    <path class="cls-8" d="M323.52,298.91c-.11-.34-.21-.68-.32-1-.22-.71-.41-1.43-.55-2.16,0-.1-.17-.05-.15,0,.16,.73,.33,1.45,.49,2.17,.15,.73,.35,1.44,.62,2.13,.04,.07,.13,.1,.2,.06,.05-.03,.08-.08,.08-.14-.11-.34-.26-.7-.37-1.06Z"/>
    <path class="cls-8" d="M340.24,294.67c-1.08,.16-2.17,.24-3.27,.34s-2.17,.24-3.26,.41c-.06,0-.06,.1,0,.09,1.09-.07,2.18-.16,3.27-.3s2.17-.3,3.27-.38c.1-.01,.09-.17,0-.16Z"/>
    <path class="cls-8" d="M367.08,313.46c-.43-9.45-1-18.89-2-28.3-.47-4.69-1-9.37-1.66-14-.58-4.59-1.49-9.13-2.71-13.59-.84-3.47-2.38-6.73-4.52-9.58-2.15-2.82-5.61-4.33-9.14-4-4.13,.51-7.47,3.12-10.35,5.95-3.23,3.18-6.19,6.65-9.18,10-.76,.86-1.51,1.73-2.26,2.6-.06,.08,.05,.19,.12,.11,2.93-3.36,6-6.63,9.15-9.75,2.94-2.89,6-6,10-7.24,1.89-.6,3.92-.65,5.84-.14,1.53,.48,2.91,1.35,4,2.53,2.3,2.38,3.58,5.61,4.5,8.74,2.54,8.69,3.45,17.8,4.39,26.77s1.61,18.25,2.07,27.41,.82,18.41,1.71,27.59c.11,1.13,.25,2.26,.4,3.39,.09,.75,1.27,.76,1.21,0-.71-9.5-1.15-18.99-1.57-28.49Z"/>
    <path class="cls-9" d="M336.2,250.94s5.4-10-1-13.2-27.72,20.62-33.95,55.46c0,0,34.47-15.25,46.18-30.45s-1.55-18.54-11.23-11.81Z"/>
    <path class="cls-8" d="M341.27,259.06c-3.87,0-7.74-.29-11.61-.27l2.18-2.49c1.08-1.11,2.08-2.28,3-3.52,.05-.08-.06-.19-.14-.13-1.05,.9-2.03,1.88-2.93,2.94-1,1-1.94,2.06-2.9,3.1-1.48,1.61-2.93,3.23-4.38,4.87v-6.41c0-2.66,0-5.34,.2-8,0-.1-.15-.1-.16,0-.18,2.68-.46,5.34-.59,8-.06,1.32-.09,2.63-.11,3.95v3.14c-.22,.26-.46,.51-.68,.76-3.09,3.54-6,7.19-8.9,10.91,0-.2,0-.42-.05-.62,0-.41-.09-.82-.13-1.23-.1-.89-.22-1.77-.36-2.66s-.25-1.66-.39-2.49-.39-1.87-.46-2.81c.02-.04,0-.09-.05-.1s-.09,0-.1,.05c0,.02,0,.04,0,.06,.16,.94,.26,1.89,.32,2.84l.24,2.56c.07,.85,.15,1.7,.24,2.56l.12,1.23c0,.2,.05,.41,.08,.61,0,.17,.06,.34,.16,.49l-1.47,1.92c-2,2.59-3.88,5.21-5.8,7.82-.06,.08,.06,.19,.12,.11,1.82-2.37,3.69-4.7,5.58-7,1.42,.06,2.87-.05,4.29-.07s3,0,4.48,0c.04,0,.08-.04,.08-.08s-.04-.08-.08-.08c-1.5,0-3,.05-4.49,.06s-2.75-.06-4.11,0c1.66-2,3.35-4,5-6.05l1.96-2.2c.57,.08,1.15,.1,1.73,.06h2c1.27,0,2.54,0,3.82-.05,2.63,0,5.26-.13,7.89-.14,.04,.02,.09,0,.1-.05s0-.09-.05-.1c-.02,0-.04,0-.06,0-2.64,0-5.27-.15-7.9-.22-1.28,0-2.55-.07-3.83-.09h-3.18l4.35-5.15s.06-.05,.08-.09c1.41-1.67,2.82-3.33,4.25-5,.2-.22,.4-.44,.59-.67,4,.12,8-.14,12-.06,.15-.04,.15-.2,.04-.2Z"/>
    <path class="cls-8" d="M339.29,265.91h-.94s-.07,.03-.07,.07,.03,.07,.07,.07h.93s.06-.07,.04-.11c0-.01-.02-.03-.03-.03Z"/>
    <path class="cls-8" d="M337.2,265.92c-1.24,0-2.48,0-3.72-.08l-1.85-.02c-.57-.07-1.16-.07-1.73,0-.03,0-.06,.03-.06,.06,0,.03,.03,.06,.06,.06,.57,.12,1.16,.16,1.74,.12h5.58c.09,.02,.09-.14-.02-.14Z"/>
    <path class="cls-8" d="M326.37,277.56c-2.52-.42-5.07-.66-7.63-.69m0,.05c2.54,.24,5.07,.38,7.59,.79,.1,.02,.14-.14,.04-.15l-7.63-.64Z"/>
    <path class="cls-8" d="M316,266.46c0-.22-.05-.44-.08-.66-.06-.5-.14-1-.22-1.49-.15-.95-.31-1.89-.49-2.84,0-.08-.17-.06-.16,0,.12,1,.23,1.95,.32,2.93l.12,1.44c-.01,.46,.05,.92,.19,1.36,.06,.09,.18,.11,.26,.05,.04-.02,.06-.06,.08-.1,.03-.23,.03-.46-.02-.69Z"/>
    <path class="cls-8" d="M366.74,238.11c-1.24-2.3-2.81-5.33-5.89-5.14-2.54,.16-3.69,2.75-4.23,4.9-1.68,6.63-1.8,13.63-2.12,20.43-.7,14.37-1.32,28.75-1.41,43.14v12c0,4.07,0,8.16,.28,12.22,0,.17,.13,.3,.3,.3s.3-.13,.3-.3c0-3.48-.1-7-.11-10.44s0-6.79,.06-10.19c.11-6.87,.3-13.75,.55-20.62,.26-6.83,.56-13.66,.85-20.49,.14-3.41,.29-6.83,.44-10.24s.29-6.61,.67-9.9c.21-1.85,.48-3.69,.87-5.5,.19-1.35,.74-2.62,1.59-3.69,1.21-1.2,3.12-1.33,4.49-.32,1.41,1.02,2.51,2.4,3.19,4,.04,.05,.12,.05,.17,0s.05-.12,0-.17h0Z"/>
    <path class="cls-9" d="M365.9,237.01s-2.53-8.94,3.07-4.47c9.32,7.44,9.65,23.63,9.65,23.63,0,0-16.57-9.62-18.63-16-3.07-9.42,5.91-3.16,5.91-3.16Z"/>
    <path class="cls-8" d="M375.13,249.54c-.15-.25-.31-.49-.47-.74,.02-.25,.02-.51,0-.76v-1.15c0-.76,0-1.52,.08-2.27,0-.04-.04-.08-.08-.08s-.08,.04-.08,.08c0,.74-.07,1.49-.09,2.23v1.59c-.65-1-1.32-2-2-3-.2-.29-.41-.57-.61-.85-.11-.97-.12-1.95-.05-2.92,0-1,0-2.08,.06-3.12,0-.1-.16-.1-.16,0,0,1.08-.08,2.16-.14,3.24-.07,.77-.09,1.54-.06,2.31-1.6-2.17-3.3-4.27-5-6.36-.06-.07-.18,0-.12,.1,1.06,1.35,2.08,2.73,3.08,4.13-1.95-.46-3.93-.72-5.91-1-.1,0-.14,.14,0,.16,2.1,.32,4.16,.84,6.23,1.3h0c.79,1.12,1.58,2.24,2.35,3.37l.94,1.38h-.08l-.65-.09-1.38-.12c-.95-.08-1.91-.13-2.87-.18-.1,0-.09,.16,0,.16,.94,0,1.88,.09,2.81,.19l1.49,.18,.64,.08h.19c.53,.78,1.07,1.56,1.59,2.34,.94,1.39,1.78,2.87,2.77,4.2,.03,.03,.08,.03,.11,0,.02-.02,.02-.05,.02-.07-.78-1.49-1.65-2.93-2.61-4.32Z"/>
    <path class="cls-8" d="M371.01,239.44v-1.05c-.02-.73,0-1.46,.09-2.19,.02-.04,0-.09-.05-.1s-.09,0-.1,.05c0,.02,0,.04,0,.06,0,.73-.08,1.45-.12,2.17v1.59c-.03,.17-.03,.35,0,.52,0,.04,.03,.07,.07,.07s.07-.03,.07-.07c.03-.16,.03-.32,0-.48l.04-.56Z"/>
    <path class="cls-8" d="M368.96,243.14c-.62-.11-1.25-.14-1.87-.19s-1.36-.12-2-.21c-.04,0-.08,.04-.08,.08s.04,.08,.08,.08c1.31,.08,2.61,.32,3.92,.36,.01,.01,.02-.11-.05-.12Z"/>
    <path class="cls-8" d="M374.16,243.19c.05,.07,0,.27,0,.35v1.54c-.04,.18-.04,.36,0,.54h.06c.02-.09,.02-.17,0-.26,0-.1,0-.19,0-.29v-1.88c0-.07-.16-.15-.06,0Z"/>
    <path class="cls-8" d="M367.12,285.82c-3.48-2.61-6.61-6.37-11.3-6.56-3.87-.15-6.58,2.76-8.13,6-.78,1.73-1.41,3.52-1.89,5.35-.7,2.44-1.37,4.9-2,7.37-1.21,4.86-2.24,9.76-3.1,14.7-.47,2.75-.91,5.51-1.26,8.28-.44,2.81-.71,5.64-.81,8.48,0,.24,.19,.44,.43,.45,.21,0,.39-.14,.44-.35,.47-2.32,.67-4.71,1-7.05s.7-4.71,1.09-7.05c.8-4.67,1.73-9.33,2.78-14,1-4.39,2-8.84,3.39-13.11,1-3.06,2.64-6.63,5.95-7.73,5-1.67,9.59,2.58,13.27,5.35,.11,.05,.22-.07,.14-.13Z"/>
    <path class="cls-9" d="M363.52,283.32s-3.22-9.17,1.43-11c7-2.69,25.18,17.83,21.61,49.27,0,0-14.07-7.75-24.47-16.48s-13-20.12-8.47-23.06,9.9,1.27,9.9,1.27Z"/>
    <path class="cls-8" d="M384.46,314.88c-.48-1.1-1.05-2.16-1.69-3.17-.6-1.08-1.2-2.15-1.82-3.21-1.21-2.07-2.41-4.14-3.65-6.2l-.61-1c0-.12,.05-.25,.07-.37l.21-.91c.16-.68,.28-1.37,.4-2.06,.26-1.34,.49-2.7,.85-4,0-.09-.13-.12-.15,0-.29,1.34-.72,2.67-1.11,4-.2,.65-.41,1.29-.58,1.95l-.18,.67c-1.49-2.45-3-4.89-4.66-7.25,.11-.32,.16-.66,.17-1,.05-.46,.1-.92,.16-1.38,.12-1,.24-2.07,.39-3.1,.3-2,.6-4,1.1-6,0-.1-.13-.13-.15,0-.51,2-1.05,4-1.43,6-.18,1-.36,2-.49,3-.06,.5-.12,1-.17,1.5,0,.14,0,.3-.06,.45-.5-.71-1-1.43-1.53-2.12-1.61-2.12-3.28-4.18-5-6.24-.06-.08-.2,0-.13,.09,2.88,3.68,5.53,7.54,7.92,11.56l1.37,2.23-.46-.06c-.59-.08-1.18-.11-1.77-.17l-3.56-.31c-2.37-.19-4.75-.33-7.11-.58-.1,0-.13,.14,0,.15,2.4,.28,4.78,.66,7.17,1,1.18,.17,2.35,.33,3.53,.48,.89,.18,1.8,.27,2.71,.27,.93,1.52,1.87,3,2.8,4.54h-8.6c-.11,0-.09,.15,0,.15,1.55,0,3.09,.1,4.64,.18l2.2,.13,1.1,.08c.33,.08,.67,.08,1,0l2.38,3.86c.73,1.19,1.47,2.37,2.22,3.55,.71,1.25,1.51,2.45,2.39,3.58,.04-.14,.17-.19,.13-.29Z"/>
    <path class="cls-8" d="M377.75,289.47c-.14,1.01-.35,2.02-.63,3-.26,1-.55,2-.88,3-.02,.05,0,.11,.05,.13s.11,0,.13-.05c0,0,0-.01,0-.02,.31-1,.59-2,.83-3s.4-2,.65-3.05c0-.04-.03-.08-.07-.08s-.08,.03-.08,.07h0Z"/>
    <path class="cls-8" d="M367.41,295.61c-.22-.18-.49-.28-.77-.29l-1.33-.18c-.82-.11-1.65-.2-2.47-.3-1.72-.2-3.43-.37-5.15-.58-.1,0-.13,.14,0,.15,1.62,.2,3.23,.45,4.85,.66l2.37,.31,1.15,.12c.44,0,.88,.08,1.3,.23,.04,0,.07-.03,.07-.07,0-.02,0-.04-.02-.05Z"/>
    <path class="cls-8" d="M377.73,309.44c-.81-.07-1.63-.1-2.44-.12h-1.82c-.26,.02-.51,.02-.77,0-.11,0-.12,.17,0,.15,.24-.02,.48-.02,.72,0h.64l1.22,.08c.81,.05,1.63,.1,2.44,.1,.1-.04,.11-.21,0-.21Z"/>
    <path class="cls-8" d="M382.69,305.92l.27-1.38c.16-.91,.33-1.82,.5-2.72,0-.04-.04-.08-.08-.08s-.08,.04-.08,.08h0l-.6,2.65c-.1,.44-.2,.88-.29,1.32,0,.21-.08,.41-.13,.62-.06,.21-.09,.43-.07,.65,0,.05,.05,.1,.11,.09,.03,0,.05-.02,.07-.04,.17-.37,.28-.78,.3-1.19Z"/>
    <polygon class="cls-7" points="335.03 325.92 336.01 337.07 339.34 374.7 368.81 374.7 372.97 337.07 374.2 325.92 335.03 325.92"/>
    <polygon class="cls-8" points="335.03 325.92 336.01 337.07 372.97 337.07 374.2 325.92 335.03 325.92"/>
    <rect class="cls-7" x="332.11" y="322.89" width="45.01" height="9.04"/>
  </g>
  <g id="freepik--question-mark--inject-2">
    <path class="cls-9" d="M175.63,288.95c0-16,2.61-30.38,7.84-43.13,5.23-12.75,16.01-23.86,32.34-33.33,4.91-2.94,10.95-6.27,18.14-10,7.4-3.88,14.44-8.39,21.07-13.48,6.77-5.12,12.65-11.33,17.4-18.37,4.79-7.18,7.27-15.64,7.11-24.27,.14-6.28-1.19-12.51-3.9-18.18-2.5-5.06-6-9.56-10.29-13.23-4.41-3.67-9.51-6.42-15-8.09-5.63-1.78-11.5-2.68-17.4-2.69-6.69-.09-13.33,1.15-19.54,3.64-5.71,2.35-11.07,5.49-15.92,9.31-4.73,3.74-9.01,8.02-12.75,12.75-3.45,4.3-6.63,8.8-9.55,13.47h-7.38l-35.27-29.4c4.08-9.89,9.8-19.01,16.91-27,6.96-7.79,15.05-14.48,24-19.85,9.11-5.41,18.93-9.52,29.19-12.18,10.56-2.79,21.43-4.19,32.35-4.17,12.45,0,24.83,1.82,36.76,5.39,11.89,3.5,22.97,9.33,32.59,17.16,9.93,8.22,17.96,18.51,23.53,30.14,6.04,12.25,9.06,26.88,9.06,43.87,.15,9.36-1.09,18.69-3.67,27.69-2.35,7.78-5.91,15.15-10.55,21.82-4.6,6.56-10.03,12.49-16.17,17.64-6.66,5.55-13.71,10.63-21.08,15.19-6.54,3.93-13.07,7.69-19.6,11.28-6.32,3.45-12.31,7.46-17.89,12-5.26,4.26-9.74,9.41-13.24,15.2-3.43,5.72-5.14,12.66-5.14,20.83h-53.95Zm1,114.18v-67.63h54.4v67.63h-54.4Z"/>
    <g class="cls-10">
      <path d="M175.5,288.37c0-16,2.61-30.38,7.84-43.13,5.23-12.75,16.01-23.86,32.34-33.33,4.91-2.94,10.95-6.27,18.14-10,7.4-3.88,14.44-8.39,21.07-13.48,6.77-5.12,12.65-11.33,17.4-18.37,4.79-7.18,7.27-15.64,7.11-24.27,.14-6.28-1.19-12.51-3.9-18.18-2.5-5.06-6-9.56-10.29-13.23-4.41-3.67-9.51-6.42-15-8.09-5.63-1.78-11.5-2.68-17.4-2.69-6.69-.09-13.33,1.15-19.54,3.64-5.71,2.35-11.07,5.49-15.92,9.31-4.73,3.74-9.01,8.02-12.75,12.75-3.45,4.3-6.63,8.8-9.55,13.47h-7.38l-35.27-29.4c4.08-9.89,9.8-19.01,16.91-27,6.96-7.79,15.05-14.48,24-19.85,9.11-5.41,18.93-9.52,29.19-12.18,10.56-2.79,21.43-4.19,32.35-4.17,12.45,0,24.83,1.82,36.76,5.39,11.89,3.5,22.97,9.33,32.59,17.16,9.93,8.22,17.96,18.51,23.53,30.14,6.04,12.25,9.06,26.88,9.06,43.87,.15,9.36-1.09,18.69-3.67,27.69-2.35,7.78-5.91,15.15-10.55,21.82-4.6,6.56-10.03,12.49-16.17,17.64-6.66,5.55-13.71,10.63-21.08,15.19-6.54,3.93-13.07,7.69-19.6,11.28-6.32,3.45-12.31,7.46-17.89,12-5.26,4.26-9.74,9.41-13.24,15.2-3.43,5.72-5.14,12.66-5.14,20.83h-53.95Zm1,114.18v-67.63h54.4v67.63h-54.4Z"/>
    </g>
    <path class="cls-9" d="M168.29,288.95c0-16,2.61-30.38,7.84-43.13s16.01-23.86,32.35-33.33c4.9-2.94,10.94-6.27,18.13-10,7.4-3.88,14.45-8.39,21.08-13.48,6.77-5.12,12.65-11.33,17.4-18.37,4.78-7.18,7.26-15.65,7.1-24.27,.13-6.27-1.21-12.48-3.92-18.13-2.5-5.06-6-9.56-10.29-13.23-4.41-3.67-9.51-6.42-15-8.09-5.63-1.78-11.5-2.68-17.4-2.69-6.69-.11-13.34,1.11-19.55,3.59-5.71,2.35-11.07,5.49-15.93,9.31-4.73,3.74-9,8.02-12.74,12.75-3.45,4.3-6.64,8.8-9.56,13.47l-42.64-29.4c4.08-9.89,9.79-19.02,16.91-27,6.95-7.79,15.04-14.48,24-19.85,9.1-5.41,18.93-9.51,29.18-12.18,10.57-2.79,21.45-4.19,32.38-4.17,12.45,0,24.83,1.82,36.76,5.39,11.9,3.5,22.97,9.33,32.59,17.16,9.94,8.22,17.97,18.51,23.53,30.14,6.04,12.25,9.06,26.88,9.07,43.87,.15,9.36-1.09,18.69-3.68,27.69-2.35,7.79-5.92,15.15-10.58,21.82-4.6,6.56-10.03,12.49-16.17,17.64-6.66,5.56-13.7,10.63-21.08,15.19-6.53,3.93-13.06,7.69-19.6,11.28-6.32,3.45-12.31,7.46-17.89,12-5.26,4.26-9.73,9.41-13.23,15.2-3.43,5.72-5.14,12.66-5.15,20.83h-53.91Zm1,114.18v-67.63h54.34v67.63h-54.34Z"/>
  </g>
  <g id="freepik--Character--inject-2">
    <path class="cls-4" d="M145.87,408.55c-2.13,.68-62.86-.1-65.15-1.6-.88-.56-1.28-9.41-1.46-20.13v-.33c0-2.21-.07-4.49-.08-6.79v-.95c-.08-15.46,.16-31.51,.16-31.51l40.63,.41-1.23,31.17-.05,1.24-.25,6.46v.66s23.09,10.74,25.44,12.64,4.12,8.05,1.99,8.73Z"/>
    <path class="cls-1" d="M145.87,408.55c-2.13,.68-62.86-.1-65.15-1.6-.88-.56-1.28-9.41-1.46-20.13v-.33c0-2.21-.07-4.49-.08-6.79v-.95l39.57,.11-.05,1.24-.25,6.46v.66s23.08,10.7,25.43,12.6,4.12,8.05,1.99,8.73Z"/>
    <path class="cls-9" d="M145.87,408.55c-1.31,.42-24.84,.28-43.26-.24-11.5-.31-21-.79-21.89-1.36s-1.27-9.16-1.45-19.68v-.79l39.19,.08v.66s23.12,10.7,25.46,12.61,4.08,8.04,1.95,8.72Z"/>
    <path class="cls-8" d="M145.22,406.18c-10.24-.38-51.55-1-61.7-.57-.08,0-.08,.06,0,.07,10.14,.6,51.45,.85,61.69,.67,.22,0,.22-.16,0-.17Z"/>
    <path class="cls-8" d="M122.8,386.72c-4-.8-8.95-.25-12.07,2.58-.12,.11,0,.28,.17,.24,3.87-1.19,7.85-1.96,11.88-2.31,.14-.02,.24-.15,.22-.3-.02-.1-.09-.19-.2-.21Z"/>
    <path class="cls-8" d="M125.69,388.51c-4-.8-8.95-.25-12.07,2.58-.12,.11,0,.28,.17,.24,3.85-1.19,7.82-1.96,11.84-2.31,.14,0,.26-.13,.25-.27,0-.11-.08-.21-.19-.24Z"/>
    <path class="cls-8" d="M128.57,390.3c-4-.8-8.95-.25-12.07,2.58-.12,.11,0,.28,.17,.24,3.87-1.19,7.85-1.96,11.88-2.3,.14,0,.26-.11,.27-.25,0-.14-.11-.26-.25-.27h0Z"/>
    <path class="cls-8" d="M128.16,378c-1.56-2.2-4.52-1.25-6.22,.14-2.87,2.44-5.05,5.6-6.32,9.15-.02,.05,0,.11,.05,.13,.01,0,.03,0,.04,0,0,.31,.28,.64,.63,.51,3.34-1.19,7.06-2,9.94-4.22,1.68-1.27,3.35-3.63,1.88-5.72Zm-7.13,7.1c-1.63,.63-3.28,1.17-4.88,1.85,1.24-1.78,2.39-3.6,3.81-5.26,.67-.8,1.39-1.56,2.16-2.28,1.22-1.07,6-3.33,5.22,1.08-.42,2.43-4.36,3.87-6.31,4.61Z"/>
    <path class="cls-8" d="M105.39,386.1c3.3,1.46,7.12,1.44,10.65,1.83,.36,0,.55-.35,.49-.65,.06-.02,.09-.08,.07-.14,0,0,0-.01,0-.02-2.06-3.16-4.9-5.73-8.26-7.45-2-1-5.08-1.2-6.08,1.3s1.21,4.28,3.14,5.13Zm-1.78-2.9c-1.76-4.11,3.41-3,4.83-2.24,.92,.51,1.8,1.08,2.63,1.72,1.71,1.33,3.36,2.74,4.92,4.24-1.72-.3-3.45-.44-5.18-.68-2.06-.27-6.18-.77-7.18-3.04h-.02Z"/>
    <path class="cls-8" d="M102.63,408.31c-11.5-.31-21-.79-21.89-1.36s-1.27-9.16-1.45-19.68c4.7,4.21,16.42,14.66,23.34,21.04Z"/>
    <path class="cls-7" d="M66.87,172.3s9.12,102.62,10.6,110.45c.35,1.79,.56,11.49,.7,23.95,.31,27.21,.13,76.27,.13,76.27h42.81s-1.27-85-3.17-100.65-14-110-14-110l-37.07-.02Z"/>
    <path class="cls-8" d="M119.17,375.51c-6.68-.14-4.76-.19-11.44-.26-3.27,0-24.75-.21-27.81,.29-.04,0-.07,.03-.07,.07s.03,.07,.07,.07c3.06,.5,24.54,.32,27.81,.28,6.68-.06,4.76-.11,11.44-.25,.06,0,.1-.04,.1-.1s-.04-.1-.1-.1Z"/>
    <path class="cls-8" d="M86.43,326.92c-.05-6.21-.1-12.42-.14-18.63,0-6,0-12-.32-18-.58-12.17-3-24.13-4.8-36.16s-3.22-24.11-4.55-36.2c-1.49-13.56-2.8-27.15-4.19-40.72,0-.09-.16-.09-.15,0,2,24.24,4.27,48.47,7.62,72.56,.84,6,1.75,11.98,2.74,17.94,1,6,2,12.08,2.47,18.19s.54,12,.6,18c.07,6.21,.14,12.42,.19,18.62,.13,13.78,.26,35,.4,48.78,.03,.11,.14,.18,.25,.16,.08-.02,.14-.08,.16-.16-.08-12.36-.19-32.09-.28-44.38Z"/>
    <path class="cls-8" d="M57.84,172.3s18.15,102.62,19.63,110.45c.35,1.79,.56,11.49,.7,23.95h0l20.46-134.4H57.84Z"/>
    <path class="cls-4" d="M96.16,412.17c-2.17,.53-62.7-4.56-64.88-6.21-.84-.62-.61-9.48,0-20.18v-.34c.12-2.2,.25-4.47,.41-6.77l.06-1c1-15.43,2.39-31.42,2.39-31.42l40.49,3.34-3.43,31-.13,1.23-.7,6.43-.07,.66s22.29,12.31,24.5,14.38,3.53,8.35,1.36,8.88Z"/>
    <path class="cls-1" d="M96.16,412.17c-2.17,.53-62.7-4.56-64.88-6.21-.84-.62-.61-9.48,0-20.18v-.34c.12-2.2,.25-4.47,.41-6.77l.06-1,39.45,2.91-.13,1.23-.7,6.43-.07,.66s22.29,12.31,24.5,14.38,3.53,8.36,1.36,8.89Z"/>
    <path class="cls-9" d="M96.16,412.17c-2.17,.53-62.7-4.56-64.88-6.21-.84-.62-.61-9.48,0-20.18v-.34l39.09,2.85-.07,.66s22.29,12.31,24.5,14.38,3.53,8.31,1.36,8.84Z"/>
    <path class="cls-8" d="M95.63,409.76c-10.18-1.11-51.35-4.61-61.5-4.94-.08,0-.09,.06,0,.07,10.06,1.32,51.26,4.49,61.49,5,.25,.05,.27-.07,0-.13Z"/>
    <path class="cls-8" d="M74.69,388.76c-4-1.08-8.91-.88-12.22,1.72-.13,.1,0,.29,.15,.26,3.94-.92,7.96-1.41,12-1.47,.14,0,.26-.12,.26-.26,0-.12-.08-.22-.19-.25Z"/>
    <path class="cls-8" d="M77.45,390.75c-4-1.08-8.92-.88-12.23,1.72-.12,.1,0,.29,.15,.26,3.94-.92,7.96-1.41,12-1.47,.14,0,.26-.11,.27-.25,0-.12-.07-.23-.19-.26Z"/>
    <path class="cls-8" d="M80.2,392.74c-4-1.08-8.92-.88-12.23,1.72-.12,.1,0,.29,.16,.26,3.94-.92,7.96-1.41,12-1.47,.14,0,.26-.12,.26-.26,0-.12-.08-.22-.19-.25Z"/>
    <path class="cls-8" d="M80.63,380.45c-1.39-2.31-4.41-1.58-6.21-.31-3.06,2.22-5.47,5.22-7,8.68,0,.08,0,.13,.08,.15-.03,.27,.16,.52,.44,.56,.05,0,.1,0,.15,0,3.41-.95,7.19-1.54,10.21-3.51,1.84-1.19,3.67-3.38,2.33-5.56Zm-7.61,6.57c-1.67,.51-3.35,.93-5,1.5,1.3-1.74,2.7-3.41,4.17-5,.72-.76,1.5-1.47,2.32-2.12,1.29-1,6.21-2.91,5.13,1.44-.57,2.42-4.61,3.58-6.6,4.18h-.02Z"/>
    <path class="cls-8" d="M57.37,386.91c3.19,1.69,7,1.94,10.49,2.57,.36,.07,.58-.3,.54-.6,.06-.02,.09-.08,.07-.14,0,0,0-.01,0-.02-1.82-3.3-4.48-6.06-7.71-8-1.9-1.11-5-1.56-6.15,.86s.91,4.34,2.77,5.33Zm-1.57-3c-1.47-4.23,3.61-2.76,5-1.9,.88,.58,1.71,1.22,2.5,1.91,1.62,1.45,3.15,2.97,4.61,4.58-1.7-.42-3.41-.69-5.12-1-2.06-.49-6.16-1.27-6.99-3.61v.02Z"/>
    <path class="cls-7" d="M72.1,385.28l-42.77-1.81s11.68-93.86,11.89-99.65c.56-15,10.51-111.59,10.51-111.59h52.24s-3.3,22.31-8.93,36.45c-3.79,1.33-7.45,3-10.93,5,0,0-4.9,63.89-5.08,71.86-.4,15.78-6.93,99.74-6.93,99.74Z"/>
    <path class="cls-8" d="M70.96,377.44c-6.66-.42-4.74-.39-11.42-.74-3.26-.17-24.72-1.26-27.79-.89-.07,0-.07,.12,0,.14,3,.63,24.51,1.36,27.77,1.46,6.68,.22,4.77,.09,11.45,.23,.06,0,.1-.05,.1-.11s-.05-.1-.11-.1Z"/>
    <path class="cls-8" d="M55.56,177.99c-1.94,24.33-3.93,48.67-6.16,73s-4.84,48.76-8,73.05c-1.77,13.55-3.77,32.66-5.88,46.18,0,.09,.12,.13,.14,0,4.31-24,7.48-53.84,10.17-78.09s4.9-48.57,6.87-72.89c1.11-13.76,2.11-27.53,3.17-41.29,.01-.13-.24-.13-.31,.04Z"/>
    <path class="cls-8" d="M96.9,207.74c-4.43,1.62-8.71,3.63-12.79,6-.07,.03-.1,.12-.07,.19,.03,.07,.12,.1,.19,.07,4.31-1.85,8.7-3.62,12.9-5.71,.15-.06,.22-.24,.16-.39-.06-.15-.24-.22-.39-.16h0Z"/>
    <path class="cls-8" d="M98.27,178.17c0-.15-.27-.18-.27,0,0,5.11-.29,9.61-.72,14.4-.2,2.22-2,14.48-5.84,13.59-.64-.15-1-.79-1.07-1.76,0-1.27,.18-2.53,.51-3.76,.42-2.57,.77-5.14,1-7.74,.45-4.83,.39-9.69-.16-14.51-.02-.07-.09-.11-.16-.09-.04,.01-.08,.05-.09,.09,.11,6.69-.28,13.37-1.17,20-.48,3.19-2.09,8,1.25,8.48s5.6-7.54,6-9.74c1.06-6.26,1.3-12.64,.72-18.96Z"/>
    <path class="cls-8" d="M91.54,206.47c-.35,.83-.63,1.67-.86,2.54-.25,.67-.37,1.38-.36,2.09,0,.14,.19,.15,.26,.06,.4-.62,.7-1.29,.9-2,.29-.79,.6-1.57,.87-2.37,.09-.22-.02-.48-.24-.56s-.48,.02-.56,.24Z"/>
    <path class="cls-8" d="M74.12,182.18c.01-.53-.04-1.07-.16-1.59-.02-.04-.08-.06-.12-.04-.02,0-.03,.02-.04,.04-.11,.45-.17,.92-.18,1.38,0,.53-.12,1-.18,1.58-.11,1.08-.3,2.15-.56,3.21-.49,1.99-1.5,3.82-2.94,5.28-1.43,1.41-3.13,2.52-5,3.27-2.07,.73-4.17,1.34-6.31,1.83-.04,0-.08,.04-.08,.08s.04,.08,.08,.08c2.37,0,4.71-.47,6.9-1.36,1.94-.73,3.71-1.86,5.19-3.31,1.48-1.5,2.51-3.38,3-5.43,.24-1.06,.39-2.14,.42-3.22,.03-.6,.02-1.2-.02-1.8Z"/>
    <path class="cls-4" d="M125.25,84.4c3.22,3.89,6.72,14.4,6.59,17.27s-17.82,9.39-20.32,7.83-12.34-15.46-12.43-20.61,22.82-8.51,26.16-4.49Z"/>
    <path class="cls-4" d="M98.63,77.26c-1.62-1.69-6.86-6.74-9.19-4.46-1.46,1.42,2.06,5.31,3.54,6.85,3.05,3.16,5.41,8.75,6.51,11.48s6.25-2.66,6.25-2.66c0,0-2.88-6.82-7.11-11.21Z"/>
    <path class="cls-4" d="M102.93,94.18s1.81,4.86,4.76,4.75,2.2-4.29,2.16-4.59c.09,.26,1.87,4.68,4.83,4.27s1.7-4.52,1.61-4.78c.16,.21,2.44,3,4.61,2.17,3.74-1.42-1.87-8.69-1.33-11.88,0,0,5.52,.31,5.68,.28,0,0-5.2-7-9.55-7.52-1.3-.18-2.56,.58-3,1.82,0,0-1.43-2.45-3.77-2.2-1.2,.13-2.06,2.17-2.06,2.17-.72-1.1-1.99-1.7-3.29-1.56-1.65,.27-2.47,2.33-2.56,3.13-.7,6.12,1.91,13.94,1.91,13.94Z"/>
    <path class="cls-8" d="M101.21,79.68h-.08c-.9,4.97-.27,10.1,1.81,14.7,.07,.14,.33,.09,.28-.08-1.37-4.75-2.05-9.68-2.01-14.62Z"/>
    <path class="cls-8" d="M106.86,78.6c0-.06-.09-.06-.1,0-.93,5.49,.13,11.13,3,15.9,.11,.17,.37,.21,.26,0-1.83-3.32-3.26-11.27-3.16-15.9Z"/>
    <path class="cls-8" d="M116.63,94.09c-2.74-4.7-3.71-9.8-3.94-15.19,0-.07-.1-.06-.12,0-.6,2.67-.09,6.08,.53,8.71,.53,2.45,1.69,4.71,3.37,6.57,.05,.08,.16,0,.16-.09Z"/>
    <path class="cls-8" d="M102.93,94.18c.44,.9,.95,1.75,1.54,2.56,.54,.81,1.29,1.46,2.16,1.88,.42,.16,.87,.16,1.29,0,.42-.15,.8-.41,1.1-.75,.53-.74,.73-1.66,.54-2.55l-.37-2.16,1.1,1.9c.48,.85,1.1,1.62,1.82,2.27,.64,.65,1.53,.99,2.44,.94,.86-.05,1.57-.7,1.7-1.56,.12-.93,0-1.88-.35-2.76l-.89-2.44,1.63,2c.45,.56,.97,1.06,1.55,1.49,.53,.42,1.18,.68,1.86,.74,.62,.03,1.21-.3,1.52-.84,.24-.64,.29-1.33,.15-2-.29-1.48-.69-2.93-1.2-4.34-.24-.72-.48-1.45-.68-2.19-.25-.73-.33-1.5-.26-2.26,.01,.76,.17,1.5,.46,2.2,.26,.71,.55,1.41,.84,2.12,.62,1.41,1.11,2.88,1.45,4.39,.21,.81,.17,1.66-.1,2.45-.4,.85-1.26,1.37-2.2,1.34-.85-.05-1.66-.35-2.33-.86-.65-.47-1.24-1.01-1.75-1.63l.74-.44c.43,1.03,.59,2.15,.45,3.25-.09,.61-.4,1.18-.86,1.59-.46,.39-1.03,.62-1.63,.68-1.16,.07-2.29-.36-3.1-1.19-.8-.72-1.48-1.57-2-2.52l.73-.26c.19,1.11-.12,2.25-.84,3.11-.39,.4-.87,.7-1.4,.86-.54,.17-1.13,.12-1.64-.12-.92-.5-1.68-1.26-2.19-2.17-.53-.86-.96-1.77-1.28-2.73Z"/>
    <path class="cls-4" d="M109.43,107.43s-19.07-9.75-11.6-15.33c2.21-1.66,13.3-5.83,14.18-3.62,1.14,2.85-3.17,5.46-6.13,6.66,0,0,6.95,2.41,6.72,7.74-.12,1.99-1.34,3.75-3.17,4.55Z"/>
    <path class="cls-8" d="M97.24,92.6c.79-.76,1.68-1.39,2.66-1.88,.97-.52,1.97-.97,3-1.36,2.04-.8,4.15-1.42,6.3-1.86,.57-.12,1.16-.15,1.74-.1,.35,.02,.69,.12,1,.3,.16,.09,.3,.21,.42,.35,.12,.14,.21,.3,.27,.47,.23,.62,.23,1.29,0,1.91-.21,.56-.52,1.08-.92,1.53-.75,.85-1.65,1.57-2.65,2.11-.96,.55-1.96,1.03-3,1.42v-.71c.78,.31,1.54,.68,2.25,1.13,.72,.43,1.39,.94,2,1.51,.6,.59,1.12,1.26,1.52,2,.41,.72,.68,1.51,.79,2.33-.21-.78-.55-1.52-1-2.19-.46-.65-1-1.23-1.62-1.74-.62-.52-1.29-.97-2-1.34-.69-.38-1.42-.7-2.17-.94l-.93-.29,.9-.42c.98-.42,1.92-.91,2.83-1.46,.9-.52,1.71-1.18,2.4-1.95,.67-.65,.96-1.61,.76-2.52-.22-.7-1.41-.67-2.42-.52s-2.08,.42-3.13,.68-2.08,.55-3.11,.88c-2.09,.58-4.08,1.47-5.89,2.66Z"/>
    <path class="cls-4" d="M87.48,121.23c16.86,20.81,41.37,34.29,47.42,29.9s-14.34-27.37-14.69-27.71c-1.19-1.14-10.21-5.83-26.59-12.73-16.07-6.77-13.67,1.25-6.14,10.54Z"/>
    <path class="cls-9" d="M112.63,118.82l-12.7,16.7s-10.66-11-16.3-18.28-5.08-12.94,7.54-8.24c7.39,2.73,14.56,6.02,21.46,9.82Z"/>
    <path class="cls-8" d="M98.72,131.69c1.55-2.28,3.17-4.52,4.83-6.71,.83-1.08,1.63-2.18,2.48-3.25s1.82-2.14,2.69-3.24c.06-.08,.18,0,.12,.08-.8,1.1-1.52,2.25-2.32,3.35s-1.68,2.24-2.53,3.36c-1.67,2.2-3.4,4.36-5.17,6.48-.05,.06-.19,0-.1-.07Z"/>
    <path class="cls-8" d="M106.01,127.5l-6.08,8s-10.66-11-16.3-18.28l-.54-.71-.23-.33-.35-.51c-.3-.44-.57-.87-.81-1.29-.09-.15-.17-.3-.25-.45-.42-.76-.75-1.56-1-2.39-.07-.26-.13-.52-.17-.78v-.37c5.54,3.84,18.54,12.25,25.73,17.11Z"/>
    <path class="cls-9" d="M106.52,182.55s-57.87,1-58.21,.64c-.9-1,10.79-60.59,22.88-72.87,4.27-4.34,13.08-2.57,14.55-1.86,3.39,1.64,6.58,5.18,9.25,11.74,5.34,13.12,12.26,61.41,11.53,62.35Z"/>
    <path class="cls-11" d="M88.63,110.42h-17.53l.09-.1c.41-.41,.86-.78,1.35-1.09h14.55c.54,.35,1.06,.75,1.54,1.19Zm1.93,2h-21.11c-.28,.37-.55,.77-.82,1.19h22.85c-.29-.42-.59-.79-.85-1.19h-.07Zm2.18,3.19h-25.32c-.22,.39-.44,.79-.65,1.2h26.65c-.21-.41-.43-.82-.66-1.2h-.02Zm1.63,3.2h-28.61l-.57,1.19h29.71c-.16-.41-.33-.81-.51-1.18h-.02Zm1.27,3.18h-31.33l-.51,1.19h32.25c-.13-.37-.26-.81-.42-1.19h0Zm1,3.19H62.99c-.15,.4-.31,.79-.47,1.2h34.47l-.35-1.2Zm.86,3.19H61.78c-.14,.4-.29,.79-.43,1.2h36.47c-.13-.41-.23-.81-.3-1.2h-.02Zm.78,3.2H60.63c-.14,.39-.27,.79-.4,1.19h38.32l-.27-1.19Zm.72,3.19H59.63c-.13,.39-.25,.79-.38,1.19h40.08c-.14-.4-.22-.8-.31-1.14l-.02-.05Zm.68,3.19H58.63c-.13,.39-.25,.79-.37,1.2h41.74c-.13-.4-.21-.8-.3-1.2h-.02Zm.65,3.19H57.63c-.12,.4-.24,.8-.35,1.2h43.35l-.3-1.2Zm.62,3.2H56.69c-.12,.4-.23,.79-.34,1.19h44.84c-.07-.4-.14-.8-.22-1.19h-.02Zm.59,3.19H55.8c-.11,.4-.22,.8-.32,1.19h46.3c-.07-.4-.15-.79-.22-1.19h-.02Zm.57,3.19H54.95c-.11,.4-.21,.8-.31,1.2h47.7c-.06-.4-.13-.8-.21-1.2h-.02Zm.57,3.2H54.12c-.09,.4-.19,.79-.29,1.19h49.06c-.06-.39-.13-.79-.19-1.19h-.02Zm.52,3.19H53.33c-.09,.4-.19,.8-.28,1.19h50.37c-.06-.39-.13-.79-.2-1.19h-.02Zm.52,3.19H52.57c-.09,.41-.18,.81-.28,1.2h51.64c-.06-.4-.12-.79-.19-1.2h-.02Zm.51,3.19H51.84c-.09,.4-.18,.81-.27,1.2h52.85c-.06-.39-.12-.79-.17-1.2h-.02Zm.47,3.2H51.13c-.08,.4-.17,.8-.25,1.19h54l-.18-1.19Zm.46,3.19H50.45c-.08,.41-.16,.8-.24,1.19h55.14c-.06-.39-.11-.79-.17-1.19h-.02Zm.44,3.19H49.82c-.09,.41-.17,.81-.24,1.2h56.2c-.05-.39-.15-.79-.15-1.2h-.03Zm.4,3.19H49.21c-.08,.42-.15,.82-.22,1.2h57.18c-.04-.38-.09-.78-.15-1.2h-.02Zm.37,3.2H48.63c-.07,.43-.12,.83-.18,1.19h58c.02-.35-.02-.75-.06-1.19h-.02Zm-58.12,3.19c-.04,.17-.04,.36,0,.53,.27,.27,36.16-.28,51.45-.53H48.25Z"/>
    <path class="cls-4" d="M74.49,117.54c-3.9,5.35-23.9,27.46-24.64,29.51s3.89,6.58,3.81,7.43c-.3,3.46-7.77,26.48-10.76,24.14-3.94-3.08-20.62-25.14-18.26-34.69s41.31-32.48,47.49-34.47,6.21,2.8,2.36,8.08Z"/>
    <path class="cls-9" d="M58.78,137.67l-11.36-15.95s12.71-8.34,21.21-11.9,12.69-1.58,4.92,9.41c-4.54,6.44-9.47,12.6-14.77,18.44Z"/>
    <path class="cls-8" d="M50.78,120.68c1.8,2.09,3.55,4.22,5.25,6.4,.84,1.07,1.69,2.13,2.5,3.22s1.61,2.31,2.46,3.43c.06,.08-.06,.18-.12,.1-.86-1-1.78-2-2.64-3.1s-1.74-2.2-2.6-3.3c-1.7-2.18-3.35-4.41-4.94-6.67-.06-.06,.04-.14,.09-.08Z"/>
    <path class="cls-8" d="M58.76,137.75c1.74-2.31,3.79-4.37,5.67-6.56s3.75-4.45,5.54-6.73c0,0,.13,0,.09,.06-.83,1.19-1.64,2.39-2.51,3.55-.43,.57-.88,1.13-1.34,1.69l.67-.55c.69-.52,1.4-1,2.13-1.44,0,0,.08,0,0,.06-.64,.59-1.3,1.14-2,1.66-.5,.38-1,.73-1.53,1.08l-.8,1c-1.75,2.25-3.69,4.34-5.81,6.25-.06,.09-.17,0-.11-.07Z"/>
    <path class="cls-4" d="M52.68,187.36c2.67-1.81-1-3.93-1-3.93,0,0,6,1.78,8-1.15s-2.56-5.23-2.88-5.41c.32,.1,5.88,1.58,7.62-1.57s-3.14-4.91-3.46-5c.33,0,4.66-.19,5.44-2.89,1.33-4.63-11.11-5.17-13.79-8,0,0,1.2-6.12,1.3-6.29-.8,1.37-2.05,2.43-3.54,3-2.69,.76-5.11,1.2-6.2,2.49-1.04,1.16-1.21,2.86-.4,4.2,0,0-3.4-.39-4.85,2.05-.74,1.25,.61,3.56,.61,3.56-1.57-.11-3.07,.66-3.89,2-.93,1.8,.57,3.83,.57,3.83,0,0-2.72,1-3.07,3.16-.67,4.33,13.82,13.81,19.54,9.95Z"/>
    <path class="cls-8" d="M36.45,174.62s-.11,0-.07,.07c4.15,4.47,9.55,7.56,15.5,8.88,.19,0,.33-.26,.13-.34-5.58-2.1-10.82-5-15.56-8.61Z"/>
    <path class="cls-8" d="M39.49,168.38s-.07-.02-.09,.01c-.02,.03-.02,.07,.01,.09,4.62,4.87,10.83,7.93,17.51,8.63,.23,0,.46-.2,.19-.24-4.48-.68-13.22-5.05-17.62-8.49Z"/>
    <path class="cls-8" d="M61.5,170.15c-6.52-.74-12.15-3.5-17.52-7.16-.07,0-.13,.05-.09,.11,2.14,2.51,5.81,4.49,8.8,5.79,2.75,1.26,5.77,1.77,8.78,1.49,.16,0,.16-.21,.03-.23Z"/>
    <path class="cls-8" d="M36.08,174.25c-1.11-1.12-1.49-2.76-1-4.25,.31-.69,.86-1.24,1.55-1.56,.82-.28,1.69-.36,2.55-.23-.98-1.38-1-3.21-.07-4.62,.51-.59,1.23-.96,2-1.05,.88-.09,1.78-.05,2.65,.1-.74-.87-1.02-2.04-.77-3.15,.34-1.21,1.23-2.19,2.4-2.63,1.36-.49,2.77-.83,4.21-1,.74-.11,1.46-.31,2.15-.59,.74-.34,1.37-.9,1.79-1.6,.08-.12,.08,0,0,.11-.28,.48-.64,.9-1.06,1.26-.44,.38-.93,.7-1.45,.95-1.3,.49-2.64,.88-4,1.17-1.19,.32-2.25,1.02-3,2-.7,1.06-.75,2.42-.12,3.52,0,0,0,.13-.09,.12-.8,0-1.59,.09-2.37,.28-.64,.15-1.22,.5-1.66,1-.82,1.29-.9,2.92-.2,4.28-.86,.06-1.71,.27-2.49,.64-.51,.31-.92,.76-1.18,1.3-.61,1.26-.46,2.76,.39,3.87,0,.02,0,.03,0,.05h0s-.87,.36-.91,.36,0,0,0,0c.22-.12,.45-.23,.68-.33Z"/>
    <path class="cls-4" d="M85.72,117.33c-3.18,1.17-9.4-3.16-12.11-6.94-.18-.26-.36-11.51-.62-13.73-.06-.46,14.37,1.72,14.37,1.72-.46,2.88-.57,5.8-.32,8.7,.04,.32,1.75,9.13-1.32,10.25Z"/>
    <path class="cls-8" d="M87.36,98.38s-.16,.93-.29,2.31c-4,4.91-10.42,5.43-13.68,5.32-.11-3.49-.24-8-.4-9.35-.06-.45,14.37,1.72,14.37,1.72Z"/>
    <path class="cls-8" d="M73.05,72.69s-4.6,1.78-5.54,6.38,0,9.48,.38,9.73,5.16-16.11,5.16-16.11Z"/>
    <path class="cls-4" d="M91.63,78.63c1.18,5.07-2.4,19.26-6.16,22.22-5.44,4.3-13.88,4.18-17.42-2.25-3.42-6.23,1.58-24.63,5.73-27.28,6.1-3.89,16.08-.19,17.85,7.31Z"/>
    <path class="cls-8" d="M77.36,86.6s.07,.06,.06,.1c-.2,1-.27,2.13,.57,2.61,0,0,0,.06,0,.05-1.08-.34-.98-1.87-.63-2.76Z"/>
    <path class="cls-8" d="M78.41,85.72c1.61,.15,1.18,3.35-.3,3.21s-1.04-3.34,.3-3.21Z"/>
    <path class="cls-8" d="M71.78,85.61s-.08,0-.09,.08c-.09,1-.36,2.11-1.3,2.33v.06c1.12-.02,1.46-1.52,1.39-2.47Z"/>
    <path class="cls-8" d="M71.03,84.46c-1.58-.32-2.11,2.86-.64,3.16s1.96-2.89,.64-3.16Z"/>
    <path class="cls-8" d="M77.14,94.87c-.26,.21-.53,.51-.89,.51-.37-.04-.73-.15-1.05-.34h0c.25,.43,.72,.68,1.21,.65,.43-.05,.78-.38,.86-.81,0,0-.09-.06-.13,0Z"/>
    <path class="cls-8" d="M72.51,90.31s-.42,1.44-.52,2.14c1.36,.2,2.68,.59,3.93,1.17,.29,.14,.33-.11,0-.37-.93-.76-2.07-1.22-3.26-1.32,0-.2,.69-2.21,.58-2.24-.54-.03-1.08,.01-1.61,.13,.78-3,2-5.92,2.78-9,0-.11-.13-.17-.18-.08-1.44,3.05-2.58,6.24-3.4,9.52-.13,.44,1.38,.13,1.68,.05Z"/>
    <path class="cls-8" d="M79.63,84.63c-.38-.24-.68-.53-1-.8s-.74-.52-.89-1c-.07-.3,.08-.6,.36-.73,.57-.19,1.2-.05,1.64,.37,.51,.34,.86,.86,1,1.45,.07,.39-.18,.76-.57,.83-.19,.04-.39,0-.54-.12Z"/>
    <path class="cls-8" d="M70.33,80.94c.44-.07,.84-.19,1.27-.3,.46-.04,.9-.23,1.24-.55,.18-.24,.18-.58,0-.82-.45-.41-1.08-.54-1.65-.35-.6,.1-1.14,.42-1.52,.9-.22,.33-.14,.78,.19,1,.14,.09,.3,.13,.47,.12Z"/>
    <path class="cls-8" d="M89.27,90.75c-2.94-.29-1.34-13.26-1.34-13.26-1.81,.62-3.71,.96-5.63,1-1.94-.07-3.86-.36-5.73-.86-.4-.15,4.91-1.65,4.91-1.65,0,0-13.06,1.14-13.5-1.32-.16-.85,2.27-8.59,13.11-8.1,8,.36,11.73,8.72,11.73,8.72,0,0,3.89,4.33,3.22,6.29-1.14,3.44-3.65,9.49-6.77,9.18Z"/>
    <path class="cls-4" d="M87.49,90.82s3.65-4.36,5.66-3-1,7.85-3.58,8.56c-1.32,.46-2.76-.24-3.22-1.56-.01-.03-.02-.06-.03-.09l1.17-3.91Z"/>
    <path class="cls-8" d="M92.23,89.71c-1.68,.66-3,1.99-3.63,3.68,.45-.63,1.32-.78,1.95-.33,.06,.04,.11,.08,.16,.13,.02,.03,0,.07-.02,.08-.01,0-.03,0-.04,0-.61-.25-1.31-.09-1.75,.39-.36,.4-.67,.84-.93,1.31-.1,.15-.37,0-.29-.13h0c.17-2.26,2.16-5.2,4.55-5.21v.07Z"/>
    <path class="cls-4" d="M136.2,150.38c8.12-6.27,.36-38.1-4.36-49.82-1.39-3.45-23.44,3-22.41,6.87,5.89,21.89,17.88,49.82,26.77,42.95Z"/>
    <path class="cls-8" d="M113.08,119.44l2.43,6c.83,2,1.64,4,2.54,6s1.77,3.93,2.69,5.88,1.94,3.86,2.94,5.78c-1.27-1.76-2.42-3.6-3.45-5.51-1-1.91-2-3.87-2.87-5.85s-1.67-4-2.39-6.06-1.34-4.13-1.89-6.24Z"/>
  </g>
  <g id="freepik--speech-bubble--inject-2">
    <path class="cls-2" d="M111.63,56.17c.27,3.14-2.06,5.91-5.2,6.18-3.14,.27-5.91-2.06-6.18-5.2-.27-3.14,2.05-5.9,5.19-6.18,3.14-.28,5.91,2.05,6.19,5.19,0,0,0,0,0,.01Z"/>
    <path class="cls-8" d="M111.63,56.17c.26,3.18-2.02,6-5.18,6.43-3.25,.65-6.41-1.45-7.06-4.7-.65-3.25,1.45-6.41,4.7-7.06,.45-.09,.9-.13,1.36-.11,3.18-.11,5.89,2.28,6.18,5.45Zm0,0c-.26-3.01-2.91-5.24-5.92-4.98-.08,0-.16,.02-.24,.03-3,.39-5.11,3.13-4.73,6.12,.36,2.82,2.83,4.89,5.67,4.77,3.02-.13,5.36-2.68,5.24-5.69,0-.08,0-.16-.02-.25Z"/>
    <path class="cls-2" d="M99.21,66.7c.15,1.75-1.15,3.29-2.9,3.44-1.75,.15-3.29-1.15-3.44-2.9-.15-1.75,1.15-3.29,2.9-3.44,1.74-.15,3.28,1.13,3.44,2.88,0,0,0,.02,0,.02Z"/>
    <path class="cls-8" d="M99.21,66.7c.15,1.89-1.25,3.54-3.14,3.7-1.89,.15-3.54-1.25-3.7-3.14-.15-1.89,1.25-3.54,3.14-3.7,.08,0,.16-.01,.24-.01,1.8,0,3.3,1.36,3.46,3.15Zm0,0c-.13-1.61-1.54-2.81-3.16-2.68-.09,0-.18,.02-.26,.03-1.6,.27-2.68,1.79-2.41,3.39,.27,1.6,1.79,2.68,3.39,2.41,1.51-.26,2.57-1.62,2.44-3.15Z"/>
    <path class="cls-2" d="M154.29,29.61c1.11,9.14-5.4,17.45-14.54,18.57-2.89,.36-5.82-.05-8.5-1.19-4.69,6.14-13.48,7.32-19.62,2.63-.99-.75-1.87-1.64-2.63-2.63-.61,.18-1.24,.31-1.88,.39-6.22,.76-11.87-3.67-12.63-9.88-.34-2.79,.37-5.6,1.98-7.9-5.69-7.24-4.44-17.73,2.81-23.42,5.7-4.48,13.64-4.77,19.64-.71,4.85-6.03,13.66-6.98,19.68-2.14,1.94,1.56,3.43,3.61,4.32,5.95,.58-.2,1.19-.33,1.8-.4,5.02-.6,9.58,2.98,10.18,8,.31,2.62-.52,5.24-2.27,7.21,.87,1.73,1.44,3.6,1.66,5.52Z"/>
    <path class="cls-8" d="M154.29,29.61c.52,4.39-.7,8.81-3.39,12.31-.9,1.14-1.94,2.17-3.1,3.05-4.76,3.6-11.07,4.43-16.6,2.16h.16c-2.66,3.53-6.83,5.62-11.25,5.64-2.19,0-4.36-.49-6.33-1.45-1.97-.98-3.7-2.39-5.05-4.12l.36,.12c-2.33,.7-4.81,.67-7.12-.1-2.32-.76-4.33-2.24-5.77-4.21-.7-.99-1.26-2.08-1.65-3.23-.37-1.16-.57-2.36-.59-3.58-.02-2.45,.72-4.85,2.12-6.86v.56c-2.56-3.2-3.86-7.23-3.67-11.32,.33-9.38,8.21-16.72,17.59-16.38,3.25,.12,6.4,1.16,9.08,3.01l-.44,.06c3.23-3.98,8.35-5.92,13.41-5.08,5.03,.83,9.22,4.29,11,9.07l-.13-.07c1.95-.64,4.06-.61,6,.08,4.78,1.71,7.27,6.97,5.56,11.75-.41,1.14-1.04,2.19-1.85,3.08h0c.88,1.72,1.44,3.59,1.66,5.51Zm0,0c-.24-1.92-.81-3.79-1.7-5.51h0c2.8-3.07,3.15-7.64,.87-11.11-2.26-3.46-6.57-4.95-10.48-3.63h-.1v-.1c-.89-2.27-2.35-4.27-4.25-5.8-1.9-1.53-4.17-2.52-6.58-2.88-2.4-.36-4.85-.08-7.11,.8-2.25,.89-4.22,2.36-5.71,4.26l-.19,.24-.26-.18c-7.49-4.99-17.6-2.97-22.59,4.52-3.89,5.84-3.61,13.5,.7,19.04l.22,.28-.21,.29c-1.31,1.84-2.01,4.05-2,6.31,.02,1.12,.19,2.24,.53,3.31,.35,1.07,.86,2.08,1.51,3,2.71,3.79,7.52,5.46,12,4.17l.23-.06,.13,.18c1.27,1.68,2.91,3.04,4.78,4,5.88,2.98,13.06,1.37,17.1-3.84l.07-.09h.1c2.66,1.15,5.59,1.58,8.47,1.24,2.9-.36,5.66-1.46,8-3.21,1.15-.87,2.2-1.88,3.1-3,.89-1.15,1.63-2.41,2.21-3.74,1.11-2.68,1.51-5.61,1.16-8.49Z"/>
    <path class="cls-9" d="M125.78,30.13c-.02-1.22,.2-2.43,.64-3.56,.56-1.19,1.5-2.16,2.67-2.75,.41-.25,.9-.52,1.5-.83,.61-.32,1.19-.69,1.73-1.11,.56-.43,1.05-.94,1.44-1.52,.39-.59,.6-1.29,.59-2,.01-.52-.1-1.03-.33-1.5-.21-.42-.49-.79-.85-1.09-.36-.3-.78-.53-1.23-.66-.46-.15-.94-.23-1.43-.23-.56-.01-1.11,.1-1.62,.31-.47,.19-.91,.45-1.31,.76-.37,.31-.71,.67-1,1.06-.29,.35-.55,.72-.79,1.11l-3.52-2.43c.34-.81,.81-1.56,1.4-2.22,.56-.65,1.22-1.21,1.96-1.65,.75-.44,1.56-.78,2.4-1,.87-.23,1.77-.34,2.67-.34,1.02,0,2.03,.15,3,.44,.98,.29,1.89,.78,2.69,1.42,.82,.68,1.48,1.52,1.94,2.48,.52,1.13,.77,2.37,.74,3.62,.01,.77-.09,1.54-.3,2.28-.19,.64-.49,1.25-.87,1.8-.38,.54-.83,1.03-1.33,1.46-.55,.46-1.13,.88-1.74,1.25l-1.62,.93c-.52,.29-1.01,.62-1.47,1-.44,.35-.82,.77-1.11,1.25-.3,.52-.45,1.12-.43,1.72h-4.42Zm.08,9.42v-5.58h4.48v5.58h-4.48Z"/>
    <path class="cls-9" d="M115.77,19.69c.28,1.18,.31,2.41,.1,3.61-.29,1.27-.99,2.41-2,3.24-.35,.32-.78,.69-1.3,1.12-.53,.44-1.02,.92-1.47,1.44-.46,.53-.83,1.13-1.09,1.78-.26,.66-.32,1.39-.16,2.08,.09,.51,.3,.98,.62,1.39,.29,.37,.65,.68,1.06,.9,.42,.22,.87,.36,1.34,.4,.48,.04,.97,.02,1.45-.08,.54-.1,1.06-.32,1.52-.63,.42-.28,.8-.62,1.13-1,.32-.38,.59-.8,.81-1.25,.2-.41,.38-.82,.54-1.25l3.94,1.66c-.16,.87-.47,1.7-.91,2.46-.43,.74-.97,1.42-1.6,2-.64,.59-1.36,1.09-2.14,1.48-.8,.4-1.66,.7-2.54,.88-1.01,.21-2.04,.28-3.06,.19-1.02-.08-2.01-.36-2.92-.83-.94-.49-1.76-1.17-2.41-2-1.18-1.65-1.76-3.66-1.65-5.69,.06-.66,.22-1.32,.48-1.93,.26-.61,.59-1.18,1-1.7,.44-.56,.92-1.1,1.44-1.59,.46-.42,.93-.84,1.39-1.24,.44-.4,.85-.84,1.21-1.31,.35-.43,.63-.92,.81-1.45,.18-.57,.2-1.19,.06-1.77l4.35-.91Zm-2-9.2l1.15,5.46-4.39,.92-1.15-5.46,4.39-.92Z"/>
  </g>
</svg>