<?xml version="1.0" encoding="UTF-8"?>
<svg id="Layer_1" data-name="Layer 1" xmlns="http://www.w3.org/2000/svg" viewBox="0 0 500 372.56">
  <defs>
    <style>
      .cls-1 {
        fill: #ebebeb;
      }

      .cls-2 {
        fill: #f0f0f0;
      }

      .cls-3 {
        fill: #e6e6e6;
      }

      .cls-4 {
        fill: #f5f5f5;
      }

      .cls-5 {
        fill: #ff5652;
      }

      .cls-6 {
        fill: #ea7063;
      }

      .cls-7 {
        fill: #fff;
      }

      .cls-8 {
        fill: #f1f1f1;
      }

      .cls-9 {
        fill: #fafafa;
      }

      .cls-10 {
        fill: #ff8b7b;
      }

      .cls-11 {
        fill: #407bff;
      }

      .cls-12 {
        fill: #263238;
      }

      .cls-13, .cls-14, .cls-15, .cls-16 {
        fill: #36c727;
      }

      .cls-14, .cls-17, .cls-15, .cls-16, .cls-18, .cls-19, .cls-20 {
        isolation: isolate;
      }

      .cls-14, .cls-19 {
        opacity: .2;
      }

      .cls-17 {
        opacity: .1;
      }

      .cls-15 {
        opacity: .7;
      }

      .cls-16 {
        opacity: .6;
      }

      .cls-18 {
        opacity: .3;
      }

      .cls-20 {
        opacity: .4;
      }
    </style>
  </defs>
  <g id="freepik--background-complete--inject-2">
    <g id="freepik--group--inject-2">
      <rect class="cls-1" y="327.4" width="500" height=".25"/>
      <rect class="cls-1" x="52.46" y="336.92" width="33.12" height=".25"/>
      <rect class="cls-1" x="171.14" y="334.21" width="8.69" height=".25"/>
      <rect class="cls-1" x="86.58" y="346.21" width="19.19" height=".25"/>
      <rect class="cls-1" x="406.71" y="344.53" width="43.19" height=".25"/>
      <rect class="cls-1" x="391.47" y="344.53" width="6.33" height=".25"/>
      <rect class="cls-1" x="277.21" y="340.31" width="93.68" height=".25"/>
      <path class="cls-1" d="M237,282.8H43.92c-3.15,0-5.71-2.56-5.71-5.71V5.66C38.24,2.53,40.79,0,43.92,0H237c3.15,0,5.71,2.56,5.71,5.71h0V277.09c0,3.15-2.56,5.71-5.71,5.71ZM43.92,.2c-3.01,0-5.45,2.45-5.46,5.46V277.09c0,3.01,2.45,5.45,5.46,5.46H237c3.01,0,5.45-2.45,5.46-5.46V5.66c0-3.01-2.45-5.45-5.46-5.46H43.92Z"/>
      <path class="cls-1" d="M453.31,282.8h-193.1c-3.15,0-5.7-2.56-5.71-5.71V5.66C254.53,2.53,257.08,0,260.21,0h193.1c3.13,.01,5.66,2.53,5.69,5.66V277.09c0,3.15-2.54,5.7-5.69,5.71ZM260.21,.2c-3.01,0-5.45,2.45-5.46,5.46V277.09c0,3.01,2.45,5.45,5.46,5.46h193.1c3.01,0,5.45-2.45,5.46-5.46V5.66c0-3.01-2.45-5.45-5.46-5.46h-193.1Z"/>
      <rect class="cls-1" x="61.39" y="18.68" width="192.88" height="214.99"/>
      <rect class="cls-4" x="64.31" y="18.68" width="196.22" height="214.99"/>
      <rect class="cls-1" x="61.39" y="233.67" width="192.88" height="11.65"/>
      <rect class="cls-2" x="94.09" y="233.67" width="196.22" height="11.65"/>
      <rect class="cls-9" x="73.09" y="27.45" width="178.67" height="197.44"/>
      <polygon class="cls-7" points="80.35 224.89 131.87 27.45 156.19 27.45 104.67 224.89 80.35 224.89"/>
      <path class="cls-8" d="M77.16,141c-.35,0-.63-.28-.63-.63h0V33.16c.04-.35,.36-.59,.7-.55,.29,.04,.51,.26,.55,.55v107.17c.02,.35-.24,.65-.59,.67-.01,0-.02,0-.03,0Z"/>
      <polygon class="cls-7" points="109.89 224.89 161.41 27.45 170.89 27.45 119.38 224.89 109.89 224.89"/>
      <rect class="cls-1" x="250.66" y="27.46" width="1.11" height="197.44"/>
      <polygon class="cls-1" points="262.61 36.93 69.73 36.93 68.92 30.86 261.81 30.86 262.61 36.93"/>
      <polygon class="cls-1" points="262.61 41.38 69.73 41.38 68.92 35.31 261.81 35.31 262.61 41.38"/>
      <polygon class="cls-1" points="262.61 46.71 69.73 46.71 68.92 40.64 261.81 40.64 262.61 46.71"/>
      <polygon class="cls-1" points="262.61 52.64 69.73 52.64 68.92 46.57 261.81 46.57 262.61 52.64"/>
      <polygon class="cls-1" points="262.61 59.75 69.73 59.75 68.92 53.68 261.81 53.68 262.61 59.75"/>
      <polygon class="cls-1" points="262.61 67.75 69.73 67.75 68.92 61.68 261.81 61.68 262.61 67.75"/>
      <polygon class="cls-1" points="77.67 220.24 99.23 220.24 99.23 222.37 97.86 222.37 96.74 233.67 80.15 233.67 79.03 222.37 77.67 222.37 77.67 220.24"/>
      <path class="cls-1" d="M76.08,200.45h0c-.28-.94-.53-1.89-.77-2.84-1.41,1.83-2.78,2.29-3.8,2.29h-.33c-2-.2-4-2.16-5.19-5.25-.06-.11-.06-.25,0-.36,.05-.11,.16-.19,.28-.22,2.93-.75,6.05-.21,8.56,1.48-.19-.9-.34-1.8-.47-2.7-.33,.06-.66,.1-1,.1-3.3,0-5.73-2.95-5.84-3.09-.15-.19-.12-.47,.07-.62,.03-.03,.07-.05,.11-.06,1.56-.79,3.38-.86,5-.2,.86,.43,1.57,1.14,2,2,1.26-3.86,4.58-6.69,8.59-7.34,.23-.06,.45,.08,.51,.31,0,.03,.01,.06,.01,.09,.17,3,.08,6.67-2.17,8.42-.94,.69-2.08,1.04-3.24,1-1.04-.03-2.08-.19-3.08-.48,.32,2.16,.78,4.31,1.38,6.41,2.2-2.99,5.31-5.18,8.87-6.23,.23-.06,.47,.08,.53,.31,.68,2.58,.33,4.68-1,6.06-1.36,1.23-3.17,1.86-5,1.73-.98-.01-1.95-.12-2.91-.31,.55,1.77,1.17,3.5,1.83,5.15,1.35-1.19,5.31-4.22,9.62-2.95,.12,.03,.22,.12,.27,.23,.05,.11,.05,.24,0,.35-1.17,2.86-2.5,4.44-4.18,5-.45,.14-.91,.21-1.38,.21-1.27-.06-2.51-.42-3.61-1.05,.94,2.18,1.91,4.23,2.85,6.05,1-1.09,3.78-3.35,8.69-2.3,.21,.04,.36,.24,.34,.46-.22,1.87-1.42,3.47-3.14,4.22-.63,.27-1.31,.41-2,.41-.97-.02-1.92-.26-2.78-.71,2.18,4,3.92,6.56,4,6.62,.11,.22,.02,.48-.2,.59-.18,.09-.39,.05-.52-.1-1.73-2.62-3.33-5.34-4.77-8.13-.03-.04-.05-.08-.07-.13-.29-.55-.57-1.11-.86-1.69-1,1.51-2.68,2.44-4.49,2.5-.18,0-.37,0-.55,0-2.01-.23-3.73-1.57-4.44-3.47-.07-.2,.01-.42,.2-.52,2.58-1.45,5.7-1.58,8.38-.33-.62-1.33-1.25-2.74-1.85-4.21-.03-.06-.06-.12-.07-.18-.17-.42-.34-.84-.5-1.26-1.44,1.82-2.88,2.71-4.37,2.71h0c-1.82,0-3.65-1.34-5.61-4.09-.14-.19-.1-.46,.09-.6,3.08-2.31,7.31-.73,9.23,.19-.39-1.08-.76-2.19-1.1-3.32l-.12-.15Z"/>
      <path class="cls-1" d="M98.67,212.08c-.69,.21-1.4,.32-2.12,.33-3.18,.04-5.78-2.5-5.82-5.68,0-.51,.05-1.01,.18-1.5,.05-.21,.25-.34,.46-.31,3.42,.34,6.46,2.31,8.15,5.3,1-2.18,1.91-4.49,2.73-6.89-1.05,.6-2.22,.94-3.43,1-.48,0-.95-.08-1.4-.23-2.38-.81-3.81-3.72-5-6.75-.05-.11-.05-.25,0-.36,.05-.11,.15-.19,.27-.22,4.89-1.36,8.85,3.31,10.08,5,.65-2.01,1.18-4.06,1.61-6.13-1.02,.19-2.05,.29-3.09,.3-2.09,.15-4.14-.58-5.68-2-1.46-1.55-1.81-3.87-1-6.71,.06-.23,.29-.37,.52-.31,0,0,0,0,0,0,3.87,1.23,7.24,3.68,9.59,7l.18-1.11c.01-.09,.05-.18,.12-.25,.4-1.43,1.37-2.62,2.68-3.31,1.45-.69,3.28-.59,5.43,.29,.22,.09,.33,.35,.24,.57-.02,.04-.04,.08-.07,.12-.13,.15-2.79,3.3-6.38,3.3-.38,0-.76-.05-1.14-.12-.16,1-.35,2.06-.58,3.08,2.8-1.84,6.25-2.4,9.48-1.53,.23,.06,.37,.31,.31,.54,0,.02-.01,.03-.02,.05-1.4,3.38-3.55,5.5-5.78,5.69h-.3c-1.13,0-2.65-.52-4.2-2.6-.62,2.37-1.36,4.71-2.22,7,2.1-1,6.82-2.71,10.19-.1,.18,.15,.22,.41,.08,.6-2.17,3-4.19,4.41-6.16,4.41h0c-1.64,0-3.21-1-4.77-3.07-.9,2.24-1.86,4.37-2.82,6.34,2.09-1.3,4.4-1.1,7.12,.62,.12,.08,.19,.21,.2,.35,0,.15-.06,.28-.18,.37-1.64,1.11-3.56,1.75-5.54,1.84-1.03,.02-2.04-.29-2.88-.88-1.86,3.6-3.93,7.09-6.2,10.44-.09,.13-.24,.21-.4,.21-.1,0-.19-.03-.27-.09-.22-.15-.27-.45-.12-.67,0,0,0,0,0,0,3-4.43,5.66-9.09,7.94-13.93Z"/>
      <rect class="cls-1" x="382.17" y="95.6" width="45.25" height="49.69"/>
      <path class="cls-1" d="M422.72,98.77s-.09,.01-.13,0c-.12-.07-12.19-7.25-16-7.25s-15.36,7.18-15.47,7.25c-.12,.07-.27,.04-.35-.08-.07-.11-.04-.26,.07-.33,0,0,0,0,.01,0,.48-.3,11.76-7.33,15.74-7.33s15.79,7,16.29,7.32c.12,.08,.15,.23,.08,.35-.06,.07-.15,.1-.24,.08Z"/>
      <rect class="cls-4" x="385.58" y="95.6" width="46.74" height="49.69"/>
      <rect class="cls-7" x="389.5" y="99.52" width="38.91" height="41.86"/>
      <path class="cls-4" d="M410,125.5c-.63,0-1.25,.07-1.86,.21,.16-.54,.24-1.09,.24-1.65,0-1.35-.48-2.66-1.35-3.7,.44,.14,.89,.21,1.35,.22,2.66,.03,4.84-2.11,4.87-4.77s-2.11-4.84-4.77-4.87c-2.66-.03-4.84,2.11-4.87,4.77-.01,1.06,.33,2.09,.96,2.94-2.99-1.09-6.3,.45-7.39,3.44s.45,6.3,3.44,7.39c.61,.22,1.25,.34,1.89,.35-.77,1.32-1.18,2.82-1.18,4.35,0,4.79,3.88,8.67,8.67,8.67,4.79,0,8.67-3.88,8.67-8.67,0-4.79-3.88-8.67-8.67-8.67Z"/>
      <path class="cls-4" d="M401.62,106.92c0,2.63-2.13,4.77-4.76,4.78s-4.77-2.13-4.78-4.76c0-2.63,2.13-4.77,4.76-4.78,0,0,0,0,.01,0,2.63,0,4.76,2.13,4.77,4.76Z"/>
      <rect class="cls-1" x="314.99" y="48.46" width="51.14" height="56.15"/>
      <path class="cls-1" d="M359.82,50.76s-.09,.01-.13,0c-.12-.08-12.2-7.26-16-7.26s-15.35,7.18-15.46,7.25c-.12,.08-.27,.04-.35-.07,0,0,0,0,0,0-.07-.12-.03-.27,.08-.34,.48-.3,11.75-7.33,15.73-7.33s15.8,7,16.3,7.33c.11,.07,.15,.21,.09,.33,0,0,0,0,0,.01-.06,.08-.16,.11-.25,.09Z"/>
      <rect class="cls-4" x="318.84" y="48.46" width="52.82" height="56.15"/>
      <rect class="cls-7" x="323.27" y="52.88" width="43.97" height="47.3"/>
      <rect class="cls-4" x="327.2" y="58.1" width="3.95" height="44.96" rx="1.59" ry="1.59"/>
      <path class="cls-4" d="M342.35,80.58h-3.07v-8.77c0-.88-.71-1.59-1.59-1.59h-2.78c-.88,0-1.59,.71-1.59,1.59v29.63c0,.88,.71,1.59,1.59,1.59h2.78c.34,0,.67-.11,.94-.31,.27,.2,.59,.31,.93,.31h2.79c.88,0,1.59-.71,1.59-1.59v-19.27c0-.88-.71-1.59-1.59-1.59Z"/>
      <rect class="cls-4" x="345.74" y="68.65" width="13.48" height="34.4" rx="1.59" ry="1.59"/>
      <circle class="cls-4" cx="360.1" cy="60.02" r="4.87"/>
      <path class="cls-1" d="M183.14,220.17c0,7.45,8.06,13.5,18,13.5s18-6.05,18-13.5h-36Z"/>
    </g>
  </g>
  <g id="freepik--Shadow--inject-2">
    <ellipse id="freepik--path--inject-2" class="cls-4" cx="250" cy="361.24" rx="193.89" ry="11.32"/>
  </g>
  <g id="freepik--speech-bubble--inject-2">
    <g id="freepik--group--inject-2-2" data-name="freepik--group--inject-2">
      <ellipse class="cls-3" cx="342.63" cy="361.24" rx="18.07" ry="1.11"/>
      <g id="freepik--group--inject-2-3" data-name="freepik--group--inject-2">
        <rect class="cls-12" x="192.04" y="190.03" width="213.65" height="144.96" rx="27.84" ry="27.84"/>
        <polygon id="freepik--path--inject-2-2" data-name="freepik--path--inject-2" class="cls-12" points="350.3 361.24 335.35 361.24 304.97 289.26 327.85 289.26 350.3 361.24"/>
      </g>
      <g id="freepik--group--inject-2-4" data-name="freepik--group--inject-2">
        <g id="freepik--group--inject-2-5" data-name="freepik--group--inject-2">
          <rect class="cls-13" x="409.19" y="255.17" width="1" height="7.34"/>
          <rect class="cls-14" x="409.19" y="255.17" width="1" height="7.34"/>
        </g>
        <g id="freepik--group--inject-2-6" data-name="freepik--group--inject-2">
          <rect class="cls-13" x="409.19" y="223.88" width="1" height="26.28"/>
          <rect class="cls-14" x="409.19" y="223.88" width="1" height="26.28"/>
        </g>
        <g id="freepik--group--inject-2-7" data-name="freepik--group--inject-2">
          <rect class="cls-13" x="269.58" y="185.53" width="13.56" height="1"/>
          <rect class="cls-14" x="269.58" y="185.53" width="13.56" height="1"/>
        </g>
        <g id="freepik--group--inject-2-8" data-name="freepik--group--inject-2">
          <polygon class="cls-13" points="391.44 289.26 350.27 361.24 319.89 289.26 391.44 289.26"/>
          <polygon class="cls-19" points="391.44 289.26 350.27 361.24 319.89 289.26 391.44 289.26"/>
        </g>
        <g id="freepik--group--inject-2-9" data-name="freepik--group--inject-2">
          <rect id="freepik--rectangle--inject-2" class="cls-13" x="204.61" y="190.03" width="201.08" height="144.96" rx="27.84" ry="27.84"/>
          <rect id="freepik--rectangle--inject-2-2" data-name="freepik--rectangle--inject-2" class="cls-19" x="204.43" y="189.98" width="201.08" height="144.96" rx="27.84" ry="27.84"/>
        </g>
        <g id="freepik--group--inject-2-10" data-name="freepik--group--inject-2">
          <polygon class="cls-15" points="282.75 334.99 256.15 334.99 284.29 190.03 310.9 190.03 282.75 334.99"/>
          <polygon class="cls-15" points="306.78 334.99 291.65 334.99 319.8 190.03 334.92 190.03 306.78 334.99"/>
        </g>
      </g>
      <g id="freepik--group--inject-2-11" data-name="freepik--group--inject-2">
        <path id="freepik--path--inject-2-3" data-name="freepik--path--inject-2" class="cls-7" d="M369.62,236.8h-73.92c-4.26-.15-7.59-3.73-7.44-7.99,.15-4.05,3.39-7.29,7.44-7.44h73.92c4.26-.15,7.84,3.18,7.99,7.44,.15,4.26-3.18,7.84-7.44,7.99-.19,0-.37,0-.56,0Z"/>
        <path id="freepik--path--inject-2-4" data-name="freepik--path--inject-2" class="cls-7" d="M270.37,236.8h-33.48c-4.26-.15-7.59-3.73-7.44-7.99,.15-4.05,3.39-7.29,7.44-7.44h33.48c4.26-.15,7.84,3.18,7.99,7.44,.15,4.26-3.18,7.84-7.44,7.99-.19,0-.37,0-.56,0Z"/>
        <path id="freepik--path--inject-2-5" data-name="freepik--path--inject-2" class="cls-7" d="M369.62,269.32h-124.88c-4.26-.15-7.59-3.73-7.44-7.99,.15-4.05,3.39-7.29,7.44-7.44h124.88c4.26-.15,7.84,3.18,7.99,7.44,.15,4.26-3.18,7.84-7.44,7.99-.19,0-.37,0-.56,0Z"/>
        <path id="freepik--path--inject-2-6" data-name="freepik--path--inject-2" class="cls-7" d="M369.62,301.83h-57.85c-4.26-.15-7.59-3.73-7.44-7.99,.15-4.05,3.39-7.29,7.44-7.44h57.85c4.26-.15,7.84,3.18,7.99,7.44,.15,4.26-3.18,7.84-7.44,7.99-.19,0-.37,0-.56,0Z"/>
      </g>
      <path id="freepik--path--inject-2-7" data-name="freepik--path--inject-2" class="cls-17" d="M240.72,190s-11.06,59.8-11.06,85.06,9.14,59.9,9.14,59.9h-29.21l-1.93-32.81c-1.82-30.68,1.22-61.46,9-91.2l5.48-21,18.58,.05Z"/>
    </g>
  </g>
  <g id="freepik--Character--inject-2">
    <g id="freepik--group--inject-2-12" data-name="freepik--group--inject-2">
      <path id="freepik--path--inject-2-8" data-name="freepik--path--inject-2" class="cls-3" d="M225.49,361.24c0,1.18-16.4,2.14-36.63,2.14s-36.63-1-36.63-2.14,16.4-2.14,36.63-2.14,36.63,.96,36.63,2.14Z"/>
      <path id="freepik--path--inject-2-9" data-name="freepik--path--inject-2" class="cls-10" d="M212.93,112.73c-3.1,.49-6,.74-9,1s-6,.25-9,.23c-6.11,0-12.2-.67-18.16-2-1.89-.52-3.67-1.41-5.21-2.62-1.3-1-2.52-2.09-3.66-3.27-2.1-2.21-4.04-4.58-5.8-7.07-3.45-4.82-6.52-9.91-9.19-15.2l3.75-2.25c1.68,2.27,3.41,4.58,5.19,6.79s3.55,4.43,5.43,6.52c1.8,2.06,3.72,4.02,5.76,5.85,.94,.84,1.94,1.62,3,2.31,.77,.54,1.63,.94,2.54,1.18,2.67,.45,5.36,.75,8.06,.91,2.75,.12,5.52,.19,8.31,.15s5.59-.19,8.38-.39,5.64-.49,8.27-.81l1.33,8.67Z"/>
      <path id="freepik--path--inject-2-10" data-name="freepik--path--inject-2" class="cls-12" d="M221.93,104.61c-7.61-4.61-17.93-1.26-17.93-1.26l5.22,18s8.24-2.32,11.47-5.83c3.38-3.63,5.83-8.14,1.24-10.91Z"/>
      <path id="freepik--path--inject-2-11" data-name="freepik--path--inject-2" class="cls-10" d="M157.3,83.42l1.84-6.2-8.71,1.08c.57,2.46,1.65,4.78,3.17,6.79l3.7-1.67Z"/>
      <polygon id="freepik--path--inject-2-12" data-name="freepik--path--inject-2" class="cls-10" points="158.51 69.99 151.26 71.29 150.43 78.3 159.14 77.22 158.51 69.99"/>
      <path id="freepik--path--inject-2-13" data-name="freepik--path--inject-2" class="cls-12" d="M257.46,47.75c7.7,.16,5.54,6.59,5.54,6.59,0,0,8.39-5.3,11.06,.89s-3.35,8.15-6.87,9.08c2.21,1.27,2.33,5.39-.77,6.74s-8.29-2.36-12.21-2.31l-3.86-4.57c5.24-3.4-.6-16.58,7.11-16.42Z"/>
      <path id="freepik--path--inject-2-14" data-name="freepik--path--inject-2" class="cls-11" d="M256.26,71.92c3.36,.59,5.8,.17,5.14-3.54-.85-4.19-3.79-7.65-7.78-9.17-4.24-1.56-5.19,5.44-5.19,5.44l7.83,7.27Z"/>
      <polygon id="freepik--path--inject-2-15" data-name="freepik--path--inject-2" class="cls-10" points="158 331.07 149.42 330.08 151.13 310.16 159.71 311.14 158 331.07"/>
      <polygon id="freepik--path--inject-2-16" data-name="freepik--path--inject-2" class="cls-10" points="214.83 354.42 206.21 354.03 204.35 333.93 212.98 334.33 214.83 354.42"/>
      <path id="freepik--path--inject-2-17" data-name="freepik--path--inject-2" class="cls-12" d="M205.88,351.42h9.7c.35,0,.64,.25,.69,.59l1.1,7.68c.08,.76-.46,1.44-1.22,1.52-.05,0-.11,0-.16,0-3.38-.06-5-.25-9.28-.25-2.62,0-6.46,.27-10.08,.27s-3.81-3.58-2.31-3.91c6.77-1.45,7.84-3.46,10.12-5.37,.4-.35,.91-.54,1.44-.54Z"/>
      <path id="freepik--path--inject-2-18" data-name="freepik--path--inject-2" class="cls-12" d="M149.13,326.94l9.63-1.14c.35-.05,.67,.17,.76,.51l2,7.49c.17,.75-.31,1.49-1.06,1.66-.05,.01-.09,.02-.14,.02-3.36,.34-5,.34-9.24,.84-2.6,.31-8,1.22-11.56,1.64s-4.21-3.11-2.75-3.61c6.55-2.24,8.95-4.54,11-6.71,.36-.38,.84-.63,1.36-.7Z"/>
      <polygon id="freepik--path--inject-2-19" data-name="freepik--path--inject-2" class="cls-6" points="151.14 310.16 150.25 320.43 158.83 321.42 159.72 311.15 151.14 310.16"/>
      <polygon id="freepik--path--inject-2-20" data-name="freepik--path--inject-2" class="cls-6" points="212.98 334.33 204.35 333.94 205.31 344.3 213.94 344.69 212.98 334.33"/>
      <path id="freepik--path--inject-2-21" data-name="freepik--path--inject-2" class="cls-12" d="M213.57,102.32s-4.35,.27-10.24,51.25l33.73,9.56c3.33-13.89,5.71-22.36,20.26-48.67-4.45-2.33-9.05-4.34-13.79-6-5-1.81-10.12-3.26-15.32-4.34-6.75-1.21-14.64-1.8-14.64-1.8Z"/>
      <path id="freepik--path--inject-2-22" data-name="freepik--path--inject-2" class="cls-10" d="M246.9,90.84c-2.36,4.65-5.89,13.41-3.37,17.67,0,0-2.77,4.62-11.92,2-10.07-2.85-3.4-6.36-3.4-6.36,5.87,.25,6.88-3.87,7-8l11.69-5.31Z"/>
      <path id="freepik--path--inject-2-23" data-name="freepik--path--inject-2" class="cls-10" d="M218.78,102.82c2.76,.3,6.23,.75,9.43,1.35,5.2,1.08,10.32,2.53,15.32,4.34,2.87,1,5.65,2.1,7.94,3.13-.47,1.67-3.78,10.36-23.47,5.36-18.32-4.72-11.31-12.48-9.22-14.18Z"/>
      <path id="freepik--path--inject-2-24" data-name="freepik--path--inject-2" class="cls-6" d="M242.14,93l-6.91,3.17c-.02,.96-.12,1.92-.3,2.86,2.18,.29,5.88-.69,6.73-2.83,.35-1.03,.51-2.11,.48-3.2Z"/>
      <path id="freepik--path--inject-2-25" data-name="freepik--path--inject-2" class="cls-10" d="M251.29,79.89c-2.07,8.31-2.76,11.88-7.8,15.41-7.58,5.32-17.35,1-17.81-7.79-.42-7.89,3-20.16,11.87-22,6.32-1.34,12.52,2.69,13.86,9.01,.38,1.78,.34,3.61-.12,5.37Z"/>
      <path id="freepik--path--inject-2-26" data-name="freepik--path--inject-2" class="cls-12" d="M248.59,87.91c-2.51-1.3-4.52-5-.9-8.44,0,0-5-2.85-2.49-6.78s12.54-7.2,14.11-1.92-3.31,7.45-3.31,7.45c0,0,4,6.12-3.19,8.14,0,0-.62,8.83-5.78,4.9l1.56-3.35Z"/>
      <path id="freepik--path--inject-2-27" data-name="freepik--path--inject-2" class="cls-10" d="M251.2,87.72c-.48,1.58-1.55,2.91-3,3.71-1.94,1-3.38-.59-3.24-2.66,.13-1.87,1.3-4.66,3.43-4.83,1.55-.1,2.88,1.08,2.98,2.63,.02,.39-.03,.78-.17,1.15Z"/>
      <path id="freepik--path--inject-2-28" data-name="freepik--path--inject-2" class="cls-11" d="M203.33,153.57s-39.18,46.21-45.81,71.69c-6.9,26.5-10,92-10,92l13.48,1.74s9-59.93,20.33-84.35c12.06-26,46.75-74.06,46.75-74.06l-24.75-7.02Z"/>
      <polygon id="freepik--path--inject-2-29" data-name="freepik--path--inject-2" class="cls-11" points="162.8 319.22 145.65 316.98 145.35 312.28 164.22 316.11 162.8 319.22"/>
      <polygon id="freepik--path--inject-2-30" data-name="freepik--path--inject-2" class="cls-18" points="162.8 319.22 145.65 316.98 145.35 312.28 164.22 316.11 162.8 319.22"/>
      <path id="freepik--path--inject-2-31" data-name="freepik--path--inject-2" class="cls-19" d="M202.66,174.58c-3.21,11.35-5.62,22.91-7.22,34.6,3.58-5.8,7.35-11.67,11-17.23,1.33-2.94,2.69-5.85,4-8.69v-.1l-7.78-8.58Z"/>
      <path id="freepik--path--inject-2-32" data-name="freepik--path--inject-2" class="cls-11" d="M212.24,156.09s-11.34,58.37-15.44,91.91c-3.32,27.1,7.13,92.83,7.13,92.83l11.24,.69s-2.37-58.7,2.85-84.95c13.22-66.41,25.58-75.32,19-93.44l-24.78-7.04Z"/>
      <polygon id="freepik--path--inject-2-33" data-name="freepik--path--inject-2" class="cls-11" points="216.56 341.6 202.01 340.71 201.33 336.57 217.09 338.21 216.56 341.6"/>
      <polygon id="freepik--path--inject-2-34" data-name="freepik--path--inject-2" class="cls-18" points="216.56 341.6 202.01 340.71 201.33 336.57 217.09 338.21 216.56 341.6"/>
      <path id="freepik--path--inject-2-35" data-name="freepik--path--inject-2" class="cls-11" d="M238.13,161.29l.66,3.45c.05,.27-.29,.43-.68,.32l-35.37-10c-.31-.08-.52-.3-.48-.5l.55-3.1c0-.22,.35-.32,.68-.23l34.16,9.68c.21,.04,.39,.18,.48,.38Z"/>
      <path id="freepik--path--inject-2-36" data-name="freepik--path--inject-2" class="cls-20" d="M238.13,161.29l.66,3.45c.05,.27-.29,.43-.68,.32l-35.37-10c-.31-.08-.52-.3-.48-.5l.55-3.1c0-.22,.35-.32,.68-.23l34.16,9.68c.21,.04,.39,.18,.48,.38Z"/>
      <path id="freepik--path--inject-2-37" data-name="freepik--path--inject-2" class="cls-11" d="M232.46,163.81l.91,.26c.18,.05,.35,0,.37-.12l.68-4c0-.12-.11-.26-.29-.31l-.92-.26c-.18-.05-.34,0-.36,.12l-.69,4c-.02,.12,.12,.26,.3,.31Z"/>
      <path id="freepik--path--inject-2-38" data-name="freepik--path--inject-2" class="cls-11" d="M205.21,156.09l.92,.26c.18,.05,.35,0,.37-.12l.68-4c0-.11-.11-.25-.3-.3l-.91-.26c-.18-.06-.35,0-.37,.12l-.68,4c-.02,.11,.08,.21,.29,.3Z"/>
      <path id="freepik--path--inject-2-39" data-name="freepik--path--inject-2" class="cls-11" d="M218.84,160l.91,.26c.18,0,.35,0,.37-.12l.68-4c0-.12-.11-.26-.29-.31l-.92-.26c-.18-.06-.35,0-.37,.12l-.68,4c-.02,.07,.11,.21,.3,.31Z"/>
      <path id="freepik--path--inject-2-40" data-name="freepik--path--inject-2" class="cls-12" d="M238.1,79.9c-.13,.68-.59,1.17-1,1.09s-.71-.71-.58-1.39,.59-1.18,1-1.09,.7,.7,.58,1.39Z"/>
      <path id="freepik--path--inject-2-41" data-name="freepik--path--inject-2" class="cls-12" d="M230.36,78.47c-.13,.69-.59,1.18-1,1.09s-.71-.7-.58-1.38,.59-1.18,1-1.1,.7,.71,.58,1.39Z"/>
      <path id="freepik--path--inject-2-42" data-name="freepik--path--inject-2" class="cls-12" d="M230,77.16l-1.55-.78s.55,1.44,1.55,.78Z"/>
      <path id="freepik--path--inject-2-43" data-name="freepik--path--inject-2" class="cls-5" d="M232.19,80c-.9,1.45-1.99,2.77-3.25,3.92,.62,.63,1.48,.96,2.36,.9l.89-4.82Z"/>
      <path id="freepik--path--inject-2-44" data-name="freepik--path--inject-2" class="cls-12" d="M234.42,88.11c-.41,0-.81-.04-1.21-.12-.11-.02-.18-.12-.16-.23,.02-.11,.13-.19,.24-.17,1.72,.35,3.51-.13,4.81-1.31,.09-.07,.22-.06,.3,.03,.06,.08,.06,.18,0,.26-1.08,1.01-2.5,1.56-3.98,1.54Z"/>
      <path id="freepik--path--inject-2-45" data-name="freepik--path--inject-2" class="cls-12" d="M241,77.83c-.15,0-.29-.08-.36-.22-.44-.94-1.31-1.62-2.33-1.82-.23,0-.41-.18-.41-.41,0-.23,.18-.41,.41-.41,.03,0,.06,0,.09,.01,1.31,.22,2.43,1.06,3,2.26,.1,.2,.02,.45-.18,.55-.07,.03-.14,.05-.22,.04Z"/>
      <path id="freepik--path--inject-2-46" data-name="freepik--path--inject-2" class="cls-12" d="M227.57,74.27c-.11,0-.21-.04-.28-.12-.16-.15-.17-.41-.01-.57,0,0,0,0,.01-.01,.9-.96,2.2-1.44,3.51-1.27,.22,.05,.36,.26,.32,.48-.04,.22-.25,.36-.46,.32,0,0-.01,0-.02,0-1.03-.12-2.05,.25-2.76,1-.07,.1-.19,.16-.31,.17Z"/>
      <path id="freepik--path--inject-2-47" data-name="freepik--path--inject-2" class="cls-10" d="M258.37,123.93c.68,3.06,1.11,5.94,1.51,8.92s.61,6,.78,8.94c.35,6.1,.04,12.22-.93,18.25-.4,1.92-1.18,3.75-2.3,5.36-.9,1.35-1.91,2.64-3,3.85-2.08,2.24-4.32,4.33-6.69,6.26-4.61,3.74-9.51,7.11-14.64,10.09l-2.47-3.6c2.16-1.82,4.36-3.69,6.46-5.59s4.21-3.82,6.17-5.82c1.96-1.92,3.79-3.96,5.5-6.11,.78-.99,1.49-2.03,2.12-3.12,.49-.8,.83-1.69,1-2.61,.29-2.69,.43-5.39,.42-8.1,0-2.76-.15-5.53-.36-8.31s-.53-5.56-.9-8.34-.83-5.6-1.31-8.2l8.64-1.87Z"/>
      <path id="freepik--path--inject-2-48" data-name="freepik--path--inject-2" class="cls-12" d="M257.32,114.46c3.08,2,3.85,14.77,3.85,14.77l-15.77,5.66s-2-11.07,.63-15c2.77-4.17,7.76-7.7,11.29-5.43Z"/>
      <path class="cls-11" d="M202.92,352.93c-.58,.05-1.16-.11-1.64-.45-.29-.28-.42-.69-.34-1.08,.02-.25,.18-.48,.41-.58,1-.46,3.62,1.24,3.92,1.43,.07,.05,.1,.13,.09,.21-.02,.08-.08,.14-.16,.16-.75,.19-1.51,.29-2.28,.31Zm-1.14-1.78c-.09-.02-.17-.02-.26,0-.1,.04-.17,.15-.17,.26-.07,.26,.01,.54,.2,.73,.44,.4,1.57,.45,3.08,.15-.86-.57-1.83-.96-2.85-1.14Z"/>
      <path class="cls-11" d="M205.16,352.63s-.07,.01-.1,0c-.83-.47-2.4-2.33-2.2-3.3,.06-.33,.35-.58,.69-.57,.31-.04,.63,.06,.86,.27,.94,.83,1,3.32,1,3.42,0,.07-.04,.14-.1,.18-.05,.02-.1,.02-.15,0Zm-1.47-3.5h-.1c-.26,0-.31,.14-.33,.24-.12,.59,.86,2,1.68,2.65,.02-.97-.26-1.92-.8-2.72-.12-.11-.28-.17-.45-.17Z"/>
      <path class="cls-11" d="M145.33,328.87c-.48,.03-.96-.08-1.38-.33-.31-.21-.49-.57-.48-.94-.02-.23,.09-.46,.28-.59,1-.7,4.6,.64,5,.8,.08,.03,.14,.11,.13,.2,0,.09-.06,.16-.14,.19-1.1,.38-2.25,.61-3.41,.67Zm-.72-1.65c-.22-.02-.44,.03-.63,.13-.07,.05-.11,.14-.1,.23,0,.25,.11,.49,.31,.63,.57,.4,2,.32,3.85-.22-1.1-.42-2.26-.67-3.43-.77Z"/>
      <path class="cls-11" d="M148.69,328.21h-.06c-1.08-.34-3.32-1.95-3.27-2.94,0-.24,.13-.54,.69-.67,.4-.09,.83,0,1.17,.22,1.18,.77,1.65,3.05,1.67,3.15,.01,.07,0,.14-.06,.19-.04,.03-.09,.05-.14,.05Zm-2.3-3.25c-.08,0-.17,0-.25,0-.37,.08-.37,.23-.38,.28,0,.6,1.52,1.89,2.64,2.4-.2-.97-.69-1.85-1.41-2.52-.18-.09-.39-.14-.6-.12v-.04Z"/>
      <path class="cls-16" d="M185.52,75.48c-35.86-8.34-71.7,13.96-80.04,49.83-2.87,12.35-2.17,25.27,2.04,37.23l-19.43,20.68,29.39-2.28c22.36,29.27,64.21,34.88,93.48,12.52s34.88-64.21,12.52-93.48c-9.43-12.34-22.87-21.01-38-24.5h.04Z"/>
      <path class="cls-17" d="M185.52,75.48c-35.86-8.34-71.7,13.96-80.04,49.83-2.87,12.35-2.17,25.27,2.04,37.23l-19.43,20.68,29.39-2.28c22.36,29.27,64.21,34.88,93.48,12.52,29.27-22.36,34.88-64.21,12.52-93.48-9.43-12.34-22.87-21.01-38-24.5h.04Z"/>
      <path class="cls-7" d="M170.54,203.91h0c-19.78,0-38.44-9.21-50.48-24.91l-1.06-1.44-22.42,1.74c-.06,0-.11-.03-.14-.08-.03-.05-.03-.11,0-.16l14.81-15.73-.65-1.87c-11.61-33.05,5.76-69.26,38.81-80.87,6.75-2.37,13.85-3.59,21.01-3.59,35.05-.02,63.48,28.39,63.5,63.44,0,4.82-.54,9.62-1.63,14.32-6.54,28.82-32.2,49.24-61.75,49.15Zm-51.48-26.64s.08,.02,.11,.06l1.12,1.47c11.97,15.65,30.55,24.83,50.25,24.83h0c34.89-.04,63.14-28.36,63.09-63.25-.04-29.37-20.3-54.83-48.91-61.46-4.69-1.09-9.49-1.64-14.3-1.64-34.88,.03-63.12,28.33-63.09,63.21,0,7.11,1.21,14.17,3.57,20.88l.68,1.95s.03,.1,0,.14l-14.65,15.54,22.12-1.72h0Z"/>
      <path class="cls-7" d="M193.62,129.1c.32-.74,.1-1.61-.54-2.11-3.45-2.51-7.39-4.28-11.56-5.19-14.88-3.43-29.73,5.84-33.18,20.71-2.3,9.93,3.15,16.67,9.72,18.19,5.51,1.39,11.34,.07,15.72-3.55,.11,4.39,3.27,8.11,7.58,8.94,10.27,2.38,22.82-4.51,26.93-22.27,4.43-19.12-5.93-35.59-25.18-40-23.12-5.35-44.8,8.92-50.42,33.2-4.68,20.24,6.21,38.23,25.89,42.79,7.81,1.81,14.22,1.84,20.78,.11,.86-.23,1.42-1.06,1.3-1.94l-.64-5c-.07-.51-.36-.97-.79-1.25-.43-.29-.97-.37-1.46-.22-5.25,1.33-10.75,1.33-16,0-15.32-3.55-23.11-16.78-19.37-32.94,4.5-19.47,20.47-30.66,38-26.61,14.82,3.43,21.83,15,18.3,30.33-1.55,6.69-4.74,11.93-8.76,14.39-1.48,1.03-3.3,1.43-5.07,1.11-.54-.09-1-.44-1.23-.93-.43-.88-.74-3.27,2-9.3l7.98-18.46Zm-15.48,1.49c1.12,.26,2.21,.62,3.26,1.08l-4.36,10c-2.46,5.78-9.25,11.6-14.3,10.43-4.61-1.06-4.37-5.21-3.82-7.58,2.18-9.46,10.99-15.83,19.22-13.93h0Z"/>
      <path id="freepik--path--inject-2-49" data-name="freepik--path--inject-2" class="cls-10" d="M232.5,181.24l-7.58-4.3,1.61,8.63s5.26,1.74,7.86-.74l-1.89-3.59Z"/>
      <polygon id="freepik--path--inject-2-50" data-name="freepik--path--inject-2" class="cls-10" points="217.74 178.01 219.48 185.16 226.53 185.57 224.92 176.94 217.74 178.01"/>
      <path id="freepik--path--inject-2-51" data-name="freepik--path--inject-2" class="cls-12" d="M237.71,78.58l-1.56-.78s.61,1.44,1.56,.78Z"/>
      <path id="freepik--path--inject-2-52" data-name="freepik--path--inject-2" class="cls-12" d="M248.43,74.63c-4.28-.27-7.42-2.15-7.84-4.62,0,0-9.82,4.08-13.79-2,0,0-4.48,.74-5.59-2.38s3.55-4,5.75-2.6c0,0-6.82-6,.18-7.67s8.5,4,8.5,4c0,0,2.76-8.28,9-4.6s2.36,7.24,2.36,7.24c0,0,14.82,1.15,9.3,7-5.52,5.85-7.87,5.63-7.87,5.63Z"/>
      <path id="freepik--path--inject-2-53" data-name="freepik--path--inject-2" class="cls-12" d="M243.07,103.37c.84,.08,.47,3,.09,3.2-.87,.47-11.35-1.68-11-3.3,.36-.78,.86-1.48,1.48-2.08,.46-.34,2.06,1.57,9.43,2.18Z"/>
    </g>
  </g>
  <g id="freepik--quotation-marks--inject-2">
    <g id="freepik--group--inject-2-13" data-name="freepik--group--inject-2">
      <path class="cls-13" d="M297.8,126.27c-9.24-.03-16.75,7.44-16.78,16.68-.03,8.37,6.13,15.47,14.42,16.62,.08,4.23-1.4,8.33-4.16,11.53,0,0,23.26-5.79,23.26-28.09,0-9.25-7.49-16.74-16.74-16.74h0Z"/>
      <path class="cls-13" d="M335.47,126.27c-9.24-.03-16.75,7.44-16.78,16.68-.03,8.37,6.13,15.47,14.42,16.62,.1,4.22-1.37,8.32-4.11,11.53,0,0,23.26-5.79,23.26-28.09,0-9.24-7.48-16.73-16.72-16.74-.02,0-.05,0-.07,0Z"/>
    </g>
  </g>
</svg>