<?xml version="1.0" encoding="UTF-8"?>
<svg id="Layer_1" data-name="Layer 1" xmlns="http://www.w3.org/2000/svg" viewBox="0 0 471.22 451.07">
  <defs>
    <style>
      .cls-1 {
        fill: #ebebeb;
      }

      .cls-2 {
        fill: #f28f8f;
      }

      .cls-3, .cls-4 {
        fill: #e6e6e6;
      }

      .cls-5 {
        fill: #f5f5f5;
      }

      .cls-6, .cls-7, .cls-8 {
        fill: #fff;
      }

      .cls-9 {
        fill: #ffa8a7;
      }

      .cls-10, .cls-11 {
        fill: #fafafa;
      }

      .cls-12, .cls-13 {
        fill: #ba68c8;
      }

      .cls-14 {
        fill: #e0e0e0;
      }

      .cls-15, .cls-16 {
        fill: #37474f;
      }

      .cls-17, .cls-18 {
        fill: #455a64;
      }

      .cls-19, .cls-20 {
        fill: #263238;
      }

      .cls-21, .cls-22 {
        fill: #36c727;
      }

      .cls-23 {
        opacity: .1;
      }

      .cls-23, .cls-4, .cls-22, .cls-20, .cls-16, .cls-7, .cls-18, .cls-13, .cls-8, .cls-11, .cls-24, .cls-25, .cls-26, .cls-27, .cls-28, .cls-29, .cls-30, .cls-31, .cls-32, .cls-33, .cls-34 {
        isolation: isolate;
      }

      .cls-4, .cls-22, .cls-20, .cls-16, .cls-25 {
        opacity: .7;
      }

      .cls-7, .cls-18, .cls-35, .cls-34 {
        opacity: .5;
      }

      .cls-13, .cls-36 {
        opacity: .6;
      }

      .cls-8, .cls-29 {
        opacity: .4;
      }

      .cls-11 {
        opacity: .95;
      }

      .cls-24 {
        opacity: .05;
      }

      .cls-37, .cls-26 {
        opacity: .15;
      }

      .cls-27 {
        opacity: .3;
      }

      .cls-28 {
        opacity: .2;
      }

      .cls-30 {
        opacity: .45;
      }

      .cls-31 {
        opacity: .55;
      }

      .cls-32 {
        opacity: .35;
      }

      .cls-33 {
        opacity: .65;
      }
    </style>
  </defs>
  <g id="freepik--Floor--inject-2">
    <ellipse id="freepik--floor--inject-2" class="cls-5" cx="235.61" cy="315.04" rx="235.61" ry="136.03"/>
  </g>
  <g id="freepik--Shadows--inject-2">
    <path id="freepik--Shadow--inject-2" class="cls-3" d="M58.92,368.19l-40.64-23.46c-2.29-1.32-2.29-3.47,0-4.79L254.67,203.46c2.61-1.32,5.69-1.32,8.3,0l40.64,23.46c2.29,1.33,2.29,3.47,0,4.79L67.22,368.19c-2.61,1.33-5.69,1.33-8.3,0Z"/>
    <path id="freepik--shadow--inject-2" class="cls-3" d="M427.16,279.08l-73.53-42c-1.36-.69-2.97-.69-4.33,0l-.76,.44c-1.2,.69-1.19,1.79,0,2.47l25.07,14.03-25.63,14.79-24.77-14.27c-1.36-.69-2.97-.69-4.33,0l-.76,.44c-.69,.23-1.06,.98-.83,1.67,.13,.39,.44,.69,.83,.83l74.77,43.16,.81-1,.4,.23,29.51-17,.23,.14,.43-.52,.63-.36-.22-.13,2.48-2.92Z"/>
    <path class="cls-14" d="M204.36,398.83c-5.74,.12-11.41-1.26-16.46-4-.53-.31-1-.62-1.49-1l-4.1-2.81,24-3.52,1.61-3.36-5.31-3.12-22.49,3.28,1.1-3.12c1-2.91,3.43-5.5,6.94-7.5,4.98-2.64,10.55-3.96,16.19-3.86,2.39,0,4.78,.22,7.13,.65l73-42.16c-.75-1.84-.89-3.88-.4-5.81,.82-3.26,3.3-6.15,7.19-8.36,10.29-5.2,22.44-5.14,32.68,.15,.52,.3,1,.62,1.48,.95l4.1,2.89-24,3.51-1.61,3.36,5.34,3.13,22.48-3.28-1.1,3.12c-1,2.91-3.43,5.5-6.94,7.5-4.98,2.64-10.55,3.96-16.19,3.86-2.39,0-4.78-.22-7.13-.66l-73,42.16c.75,1.85,.89,3.89,.4,5.82-.82,3.26-3.3,6.15-7.19,8.36-5,2.63-10.58,3.94-16.23,3.82Z"/>
  </g>
  <g id="freepik--Plants--inject-2">
    <g id="freepik--plants--inject-2">
      <path class="cls-21" d="M47.61,300.33v-22.64s-1.15-12.78-10.1-22.47-17-6.39-19.58-1.79,3.33,13.33,7.12,18.24c4.56,5.91,22.56,33.35,22.56,45.66v-17Z"/>
      <g class="cls-37">
        <path d="M47.61,300.41v-22.64s-1.15-12.78-10.1-22.47-17-6.39-19.58-1.79,3.33,13.33,7.12,18.24c4.56,5.91,22.56,33.35,22.56,45.66v-17Z"/>
      </g>
      <path class="cls-6" d="M47.61,296.75c-.27,0-.5-.2-.54-.46-4.09-24.69-22.87-41.64-23.06-41.8-.21-.22-.21-.57,0-.79,.21-.22,.55-.22,.76-.02,0,0,.01,.01,.02,.02,.2,.17,19.27,17.36,23.42,42.45,.05,.3-.15,.58-.45,.63l-.15-.03Z"/>
      <path class="cls-21" d="M51.49,309.95s.78-2.36-2.7-3-4.8-3.49-5.13-8.34-1.79-8.33-6.15-9.05-7.87,1.48-10.7-.7-10.15-7.42-16.2-5.02-4.1,7.61-.93,11,4.09,4.51,1.67,10-.66,10.62,4.95,11.91c5.61,1.29,8.74,.62,8.83,6.78s.94,8.89,4,11.3,12.74,1.33,16.76,2.26c2.44,.62,4.5,2.27,5.64,4.52l-.04-31.66Z"/>
      <path class="cls-6" d="M51.49,335.3c-.2,0-.39-.13-.45-.32-10.22-30.32-33.32-42.57-33.56-42.69-.23-.13-.32-.41-.2-.65,.12-.23,.41-.32,.65-.2,0,0,0,0,0,0,.23,.12,23.68,12.52,34,43.23,.08,.25-.05,.52-.3,.61-.05,.01-.09,.02-.14,.02Z"/>
      <path class="cls-6" d="M36.84,308.88h-.1c-6.67-1.52-17.34-.7-17.45-.69-.28,.02-.52-.19-.53-.46s.19-.52,.47-.54c.44,0,10.92-.84,17.73,.71,.26,.06,.42,.32,.36,.57,0,0,0,0,0,0-.04,.23-.24,.39-.47,.4Z"/>
      <path class="cls-6" d="M42.28,323.45c-3.05,0-6.28-.2-6.48-.21-.26-.02-.47-.24-.45-.51,0,0,0,0,0-.01,.01-.26,.23-.46,.49-.45,0,0,.01,0,.02,0,.07,0,7.52,.47,10.43,0,.26-.04,.5,.14,.55,.4,.04,.26-.14,.51-.4,.55,0,0,0,0,0,0-1.38,.17-2.77,.25-4.16,.23Z"/>
      <path class="cls-6" d="M33.71,305.32h0c-.26-.01-.47-.23-.46-.5h0c.23-3.47,.96-6.89,2.15-10.16,.1-.24,.37-.37,.62-.27,.24,.1,.37,.37,.28,.62-1.15,3.17-1.85,6.49-2.08,9.86-.02,.26-.25,.46-.51,.45Z"/>
    </g>
  </g>
  <g id="freepik--Clouds--inject-2">
    <path class="cls-1" d="M122.61,40.74l-6.47,3.73c.03-.28,.05-.57,.06-.85v-1.87c0-3.34-2.34-4.69-5.23-3-1.25,.76-2.31,1.78-3.12,3-.47-4.19-3.76-5.75-7.75-3.44-4.62,3.01-7.52,8.04-7.82,13.54v2.8c-.03,1.12,.2,2.23,.66,3.25l-5.33,3.12c-1.71,1.11-2.78,2.97-2.9,5,0,1.85,1.3,2.6,2.9,1.67l35-20.22c1.7-1.11,2.77-2.97,2.89-5,.04-1.9-1.25-2.65-2.89-1.73Z"/>
    <path class="cls-1" d="M79.91,23.57l-3.57,1.37v-7.86c0-6.22-5-7.72-10.36-4.6h0c-5.37,3.11-9.76,10.68-9.76,16.91v1.14c-1.54-.47-3.21-.22-4.54,.7h0c-4.14,2.71-6.74,7.23-7,12.17v.52l-5,2.87c-2.72,1.78-4.44,4.75-4.62,8,0,2.95,2.07,4.15,4.62,2.67l40.23-23.2c2.73-1.78,4.45-4.75,4.63-8,0-2.97-2.07-4.17-4.63-2.69Z"/>
  </g>
  <g id="freepik--Device--inject-2">
    <g id="freepik--device--inject-2">
      <path class="cls-21" d="M205,321.73l34.94-20.2c3.6-2.08,5.4-4.81,5.4-7.53v-4.86l-36.23-20.44c-2.05-1.33-3.34-3.56-3.48-6v-37.29l-61,35.26v37.27c.14,2.44,1.43,4.66,3.47,6l30.84,17.77c7.18,4.18,18.86,4.18,26.06,.02Z"/>
      <path class="cls-29" d="M205,321.73l34.94-20.2c3.6-2.08,5.4-4.81,5.4-7.53v-4.86l-36.23-20.44c-2.05-1.33-3.34-3.56-3.48-6v-37.29l-61,35.26v37.27c.14,2.44,1.43,4.66,3.47,6l30.84,17.77c7.18,4.18,18.86,4.18,26.06,.02Z"/>
      <path class="cls-28" d="M159.26,305.56v4.84l-11.19-6.44c-2.04-1.34-3.33-3.56-3.47-6v-37.29l11.63-6.71c.24,2.95,.5,6,.74,9l-8.15,4.72v27.84c.13,2.44,1.42,4.67,3.47,6l6.97,4.04Z"/>
      <path class="cls-21" d="M148.82,295.51c.13,2.44,1.42,4.67,3.47,6l26.63,15.34c7.2,4.16,18.88,4.16,26.08,0l35-20.2c7.2-4.15,7.2-10.89,0-15l-26.64-15.35c-2.05-1.33-3.34-3.56-3.48-6v-27.9l-61,35.26-.06,27.85Z"/>
      <path class="cls-27" d="M148.82,295.51c.13,2.44,1.42,4.67,3.47,6l26.63,15.34c7.2,4.16,18.88,4.16,26.08,0l35-20.2c7.2-4.15,7.2-10.89,0-15l-26.64-15.35c-2.05-1.33-3.34-3.56-3.48-6v-27.9l-61,35.26-.06,27.85Z"/>
      <path class="cls-13" d="M220.4,270.37h0l-7.08-4.09c-2.05-1.33-3.34-3.56-3.48-6v-27.88l-61,35.26v27.85c.13,2.44,1.42,4.67,3.47,6l7,4,61.09-35.14Z"/>
      <path class="cls-27" d="M220.4,270.37h0l-7.08-4.09c-2.05-1.33-3.34-3.56-3.48-6v-27.88l-61,35.26v27.85c.13,2.44,1.42,4.67,3.47,6l7,4,61.09-35.14Z"/>
      <path class="cls-21" d="M245.35,289.14v4.88c0,2.73-1.81,5.44-5.4,7.53l-34.94,20.17c-3.81,2.04-8.07,3.1-12.4,3.09v-4.79c4.34,.02,8.62-1.04,12.45-3.09l34.94-20.21c3.54-2.12,5.35-4.85,5.35-7.58Z"/>
      <path class="cls-28" d="M245.35,289.14v4.88c0,2.73-1.81,5.44-5.4,7.53l-34.94,20.17c-3.81,2.04-8.07,3.1-12.4,3.09v-4.79c4.34,.02,8.62-1.04,12.45-3.09l34.94-20.21c3.54-2.12,5.35-4.85,5.35-7.58Z"/>
      <path class="cls-21" d="M50.83,337.35c2.67,1.29,5.81,1.23,8.43-.16l236-136.25c2.56-1.68,4.18-4.47,4.34-7.53V8.3c-.11-2.96-1.62-5.7-4.07-7.37-2.67-1.29-5.81-1.23-8.43,.16L51.11,137.34c-2.57,1.67-4.18,4.46-4.35,7.52v185.16c.12,2.95,1.63,5.67,4.07,7.33Z"/>
      <path class="cls-27" d="M50.83,337.35c2.67,1.29,5.81,1.23,8.43-.16l236-136.25c2.56-1.68,4.18-4.47,4.34-7.53V8.3c-.11-2.96-1.62-5.7-4.07-7.37-2.67-1.29-5.81-1.23-8.43,.16L51.11,137.34c-2.57,1.67-4.18,4.46-4.35,7.52v185.16c.12,2.95,1.63,5.67,4.07,7.33Z"/>
      <path class="cls-21" d="M59.26,337.18l236-136.24c2.56-1.68,4.18-4.47,4.34-7.53V8.3c0-2.77-1.94-3.9-4.34-2.51L59.26,142.02c-2.57,1.67-4.18,4.47-4.34,7.53v185.1c0,2.8,1.94,3.92,4.34,2.53Z"/>
      <path class="cls-34" d="M59.26,336.61l236-136.24c2.56-1.68,4.18-4.47,4.34-7.53V7.73c0-2.77-1.94-3.9-4.34-2.51L59.26,141.45c-2.57,1.67-4.18,4.47-4.34,7.53v185.1c0,2.8,1.94,3.92,4.34,2.53Z"/>
      <path class="cls-21" d="M58.61,342.15c-2.5,1.07-5.34,1.02-7.79-.16-2.46-1.67-3.97-4.42-4.08-7.39v-11.58l8.16,4.72v11.58c.01,2.53,1.61,3.7,3.71,2.83Z"/>
      <path class="cls-29" d="M58.61,342.15c-2.5,1.07-5.34,1.02-7.79-.16-2.46-1.67-3.97-4.42-4.08-7.39v-11.58l8.16,4.72v11.58c.01,2.53,1.61,3.7,3.71,2.83Z"/>
      <path class="cls-21" d="M54.91,327.74v11.57c0,2.77,2,3.9,4.35,2.51l236-136.25c2.57-1.68,4.19-4.48,4.35-7.55v-11.59L54.91,327.74Z"/>
      <path class="cls-27" d="M54.91,327.74v11.57c0,2.77,2,3.9,4.35,2.51l236-136.25c2.57-1.68,4.19-4.48,4.35-7.55v-11.59L54.91,327.74Z"/>
      <path class="cls-12" d="M63.07,305.93V152.27c.1-1.83,1.07-3.51,2.61-4.51L288.83,18.92c1.45-.83,2.61-.16,2.61,1.5V174.08c-.1,1.84-1.07,3.52-2.61,4.52L65.68,307.44c-1.44,.83-2.61,.15-2.61-1.51Z"/>
      <path class="cls-15" d="M63.07,305.93V152.27c.1-1.83,1.07-3.51,2.61-4.51L288.83,18.92c1.45-.83,2.61-.16,2.61,1.5V174.08c-.1,1.84-1.07,3.52-2.61,4.52L65.68,307.44c-1.44,.83-2.61,.15-2.61-1.51Z"/>
      <path class="cls-21" d="M177.26,261.41c-2.12,1.39-3.45,3.7-3.6,6.23,0,2.29,1.61,3.22,3.6,2.07,2.12-1.38,3.45-3.69,3.59-6.22,0-2.3-1.61-3.23-3.59-2.08Z"/>
      <path class="cls-21" d="M56.19,145.27c-.77,1.3-1.21,2.78-1.28,4.29v178.18l-8.16-4.72V144.86c.06-1.51,.5-2.99,1.28-4.29l8.16,4.7Z"/>
      <path class="cls-25" d="M56.19,145.35c-.77,1.3-1.21,2.78-1.28,4.29v178.18l-8.16-4.72V144.94c.06-1.51,.5-2.99,1.28-4.29l8.16,4.7Z"/>
    </g>
  </g>
  <g id="freepik--Ladder--inject-2">
    <path class="cls-21" d="M393.7,125.42l-41.61,113.24h0c-.14,.34-.4,.62-.73,.78-1.19,.61-2.6,.61-3.79,0-.38-.18-.67-.52-.78-.93-.01-.1-.01-.21,0-.31,.01-.27,.06-.53,.15-.78l41.73-113.87c.37-1.43,1.83-2.3,3.26-1.93s2.3,1.83,1.93,3.26c-.05,.18-.11,.35-.19,.52l.03,.02Z"/>
    <path class="cls-34" d="M393.53,125.92l-41.61,113.24h0c-.14,.34-.4,.62-.73,.78-1.19,.61-2.6,.61-3.79,0-.38-.18-.67-.52-.78-.93-.01-.1-.01-.21,0-.31,.01-.27,.06-.53,.15-.78l41.73-113.87c.37-1.43,1.83-2.3,3.26-1.93s2.3,1.83,1.93,3.26c-.05,.18-.11,.35-.19,.52l.03,.02Z"/>
    <rect class="cls-21" x="355.94" y="189.28" width="6" height="48.18" transform="translate(-5.31 417.54) rotate(-60)"/>
    <g class="cls-36">
      <rect x="356.63" y="189.72" width="6" height="48.18" transform="translate(-5.35 418.35) rotate(-60)"/>
    </g>
    <rect class="cls-21" x="386.28" y="171.77" width="6" height="48.18" transform="translate(25.02 435.06) rotate(-60)"/>
    <g class="cls-36">
      <rect x="385.31" y="171.2" width="6" height="48.18" transform="translate(25.03 433.93) rotate(-60)"/>
    </g>
    <path class="cls-21" d="M359.75,117.64l22.25-12.85c2.72-1.77,6.35-1,8.12,1.72,.45,.69,.75,1.47,.88,2.28l36.94,172.82c.03,.12,.05,.24,.05,.36,.01,.12,.01,.25,0,.37-.11,.41-.4,.74-.78,.92-1.19,.61-2.6,.61-3.79,0-.33-.17-.59-.46-.74-.8,0-.05,0-.11,0-.16l-36.94-172.39c.06-.32-.14-.63-.46-.69-.22-.04-.45,.04-.59,.22l-22.26,12.85"/>
    <path class="cls-29" d="M359.75,117.65l22.25-12.85c2.72-1.77,6.35-1,8.12,1.72,.45,.69,.75,1.47,.88,2.28l36.94,172.82c.03,.12,.05,.24,.05,.36,.01,.12,.01,.25,0,.37-.11,.41-.4,.74-.78,.92-1.19,.61-2.6,.61-3.79,0-.33-.17-.59-.46-.74-.8,0-.05,0-.11,0-.16l-36.94-172.39c.06-.32-.14-.63-.46-.69-.22-.04-.45,.04-.59,.22l-22.26,12.85"/>
    <path class="cls-21" d="M396.06,282.8l-13.55-7.78c-.48-.31-.78-.83-.81-1.4v-.32c.03-.57,.33-1.09,.81-1.4l32.52-18.78c.51-.26,1.11-.26,1.62,0l13.55,7.83c.48,.31,.78,.83,.81,1.4v.32c-.03,.57-.33,1.09-.81,1.4l-32.52,18.78c-.52,.23-1.12,.22-1.62-.05Z"/>
    <path class="cls-23" d="M381.94,272.45c-.15,.24-.23,.52-.24,.8v.32c.03,.57,.33,1.09,.81,1.4l13.55,7.83c.25,.13,.53,.2,.81,.19v-1.92l-14.93-8.62Z"/>
    <path class="cls-26" d="M396.87,281.07v1.95c.28,0,.56-.06,.81-.19l16.26-9.39,16.26-9.42c.48-.31,.78-.83,.81-1.4v-.32c0-.28-.09-.56-.24-.8l-33.9,19.57Z"/>
    <path class="cls-21" d="M390.19,255.31l-13.58-7.82c-.48-.31-.78-.83-.81-1.4v-.33c.03-.57,.33-1.09,.81-1.4l32.52-18.77c.51-.26,1.11-.26,1.62,0l13.55,7.82c.48,.31,.78,.83,.81,1.4v.33c-.03,.57-.33,1.09-.81,1.4l-32.52,18.77c-.5,.25-1.09,.25-1.59,0Z"/>
    <path class="cls-23" d="M376.06,245.02c-.15,.24-.23,.51-.24,.79v.33c.03,.57,.33,1.09,.81,1.4l13.56,7.82c.24,.13,.52,.2,.8,.2v-1.92l-14.93-8.62Z"/>
    <path class="cls-26" d="M390.99,253.59v1.92c.28,0,.56-.06,.81-.2l16.26-9.38,16.26-9.39c.48-.31,.78-.83,.81-1.4v-.33c0-.28-.09-.55-.24-.79l-33.9,19.57Z"/>
    <path class="cls-21" d="M384.31,227.83l-13.56-7.81c-.48-.31-.78-.83-.81-1.4v-.32c.04-.57,.34-1.09,.81-1.4l32.52-18.77c.51-.26,1.11-.26,1.62,0l13.56,7.82c.47,.32,.77,.83,.8,1.4v.32c-.03,.57-.33,1.09-.8,1.41l-32.52,18.77c-.51,.25-1.11,.25-1.62-.02Z"/>
    <path class="cls-23" d="M370.18,217.48c-.15,.24-.23,.52-.24,.8v.32c.03,.57,.33,1.09,.81,1.4l6.78,3.92,6.78,3.91c.25,.13,.53,.2,.81,.19v-1.91l-14.94-8.63Z"/>
    <path class="cls-26" d="M385.12,226.11v1.91c.28,0,.56-.06,.81-.19l16.26-9.39,16.26-9.42c.47-.32,.77-.84,.8-1.41v-.32c0-.28-.09-.55-.23-.79l-33.9,19.61Z"/>
    <path class="cls-21" d="M378.43,200.35l-13.55-7.83c-.48-.31-.78-.83-.81-1.4v-.32c.03-.57,.33-1.09,.81-1.4l32.52-18.78c.51-.26,1.1-.26,1.61,0l13.6,7.83c.48,.31,.78,.83,.81,1.4v.32c-.03,.57-.33,1.09-.81,1.4l-32.52,18.78c-.52,.27-1.14,.27-1.66,0Z"/>
    <path class="cls-26" d="M379.24,198.62v1.92c.28,0,.56-.06,.81-.19l16.26-9.39,16.3-9.39c.48-.31,.78-.83,.81-1.4v-.32c0-.28-.09-.56-.24-.8l-33.94,19.57Z"/>
    <path class="cls-23" d="M364.3,190.02c-.14,.24-.22,.52-.23,.8v.32c.03,.57,.33,1.09,.81,1.4l13.55,7.83c.25,.13,.53,.2,.81,.19v-1.94l-14.94-8.6Z"/>
    <path class="cls-21" d="M372.55,172.87l-22.52-13c-.48-.31-.78-.83-.81-1.4v-.32c.03-.57,.33-1.09,.81-1.4l32.52-18.78c.51-.25,1.11-.25,1.62,0l22.52,13c.48,.31,.78,.83,.81,1.4v.32c-.03,.57-.33,1.09-.81,1.4l-32.52,18.78c-.51,.25-1.11,.25-1.62,0Z"/>
    <path class="cls-26" d="M373.36,171.14v1.88c.28,0,.56-.06,.81-.19l16.26-9.39,16.26-9.39c.48-.31,.78-.83,.81-1.4v-.32c0-.28-.09-.56-.24-.8l-33.9,19.61Z"/>
    <path class="cls-23" d="M349.46,157.34c-.15,.24-.23,.52-.24,.8v.32c.03,.57,.33,1.09,.81,1.4l22.52,13c.25,.13,.53,.19,.81,.19v-1.92l-23.9-13.79Z"/>
    <path class="cls-21" d="M363.36,142.93l-41.57,113.09h0l-.1,.25c-.16,.28-.39,.51-.67,.66-1.2,.6-2.6,.6-3.8,0-.38-.18-.66-.53-.77-.94-.01-.1-.01-.2,0-.3,0-.27,.06-.54,.16-.79l41.72-113.87c.36-1.44,1.81-2.31,3.25-1.96,1.44,.36,2.31,1.81,1.96,3.25-.05,.19-.12,.37-.2,.55l.03,.06Z"/>
    <path class="cls-34" d="M363.36,142.93l-41.57,113.09h0l-.1,.25c-.16,.28-.39,.51-.67,.66-1.2,.6-2.6,.6-3.8,0-.38-.18-.66-.53-.77-.94-.01-.1-.01-.2,0-.3,0-.27,.06-.54,.16-.79l41.72-113.87c.36-1.44,1.81-2.31,3.25-1.96,1.44,.36,2.31,1.81,1.96,3.25-.05,.19-.12,.37-.2,.55l.03,.06Z"/>
    <path class="cls-21" d="M362.43,122.29c-1.31,.88-2.01,2.43-1.79,4l36.97,172.83c.04,.14,.06,.28,.06,.42,.01,.1,.01,.2,0,.3-.11,.41-.4,.76-.78,.94-1.19,.61-2.6,.61-3.79,0-.32-.17-.58-.44-.74-.77h0l-.05-.22-36.9-172.33c-.68-3.85,1.04-7.72,4.36-9.79"/>
    <path class="cls-29" d="M397.66,299.14l-37-172.82c-.22-1.57,.48-3.12,1.79-4l-2.68-4.65c-3.32,2.07-5.04,5.94-4.36,9.79l36.9,172.33,.05,.22h0c.16,.33,.42,.6,.74,.77,1.19,.61,2.6,.61,3.79,0,.38-.18,.67-.53,.78-.94,.01-.1,.01-.2,0-.3,.01-.13,.01-.27-.01-.4Z"/>
  </g>
  <g id="freepik--Windows--inject-2">
    <path class="cls-12" d="M329.46,41.73c.06,.09,.12,.19,.15,.29-.03-.1-.09-.2-.15-.29Z"/>
    <path class="cls-12" d="M329.72,42.13c.05,.11,.08,.23,.11,.35-.03-.12-.06-.24-.11-.35Z"/>
    <path class="cls-1" d="M101.61,328.19V175.19c.11-2,1.16-3.83,2.84-4.92L327.11,41.64c.58-.42,1.35-.5,2-.2-.54-.32-3.52-2-4-2.34-.67-.35-1.48-.29-2.09,.15L100.34,167.84c-1.67,1.1-2.73,2.92-2.84,4.92v153c-.08,.72,.24,1.42,.83,1.84l4.06,2.34h0c-.55-.4-.85-1.07-.78-1.75Z"/>
    <path class="cls-21" d="M98.12,170.39c-.38,.73-.59,1.54-.62,2.37v23.07l4.06,2.34h0v-23c.03-.84,.24-1.66,.63-2.41l-4.07-2.37Z"/>
    <path class="cls-26" d="M98.12,170.39c-.38,.73-.59,1.54-.62,2.37v23.07l4.06,2.34h0v-23c.03-.84,.24-1.66,.63-2.41l-4.07-2.37Z"/>
    <path class="cls-21" d="M104.41,170.23L327.11,41.64c.58-.42,1.35-.5,2-.2-.54-.32-3.52-2-4-2.34-.67-.35-1.48-.29-2.09,.15L100.34,167.84c-.97,.62-1.74,1.5-2.22,2.55l4.08,2.35h0c.48-1.03,1.25-1.9,2.21-2.51Z"/>
    <path class="cls-8" d="M104.36,170.36L327.06,41.77c.58-.42,1.35-.5,2-.2-.54-.32-3.52-2-4-2.34-.67-.35-1.48-.29-2.09,.15L100.29,167.97c-.97,.62-1.74,1.5-2.22,2.55l4.08,2.35h0c.48-1.03,1.25-1.9,2.21-2.51Z"/>
    <path class="cls-10" d="M329.95,43.26V196.26c-.11,2-1.16,3.83-2.84,4.92L104.41,329.81c-1.58,.84-2.85,.11-2.84-1.64V175.17c.11-2,1.16-3.83,2.84-4.92L327.11,41.62c1.57-.91,2.84-.17,2.84,1.64Z"/>
    <path class="cls-12" d="M329.12,41.44h0c.07,.05,.14,.1,.2,.16-.06-.06-.13-.11-.2-.16Z"/>
    <path class="cls-12" d="M329.89,42.65c.04,.21,.06,.42,.06,.63,0-.21-.02-.42-.06-.63Z"/>
    <path class="cls-10" d="M329.83,42.48c.02,.06,.04,.11,.06,.17-.02-.06-.04-.11-.06-.17Z"/>
    <path class="cls-10" d="M329.61,42.02s.08,.09,.1,.15c-.02-.06-.06-.11-.1-.15Z"/>
    <path class="cls-10" d="M329.31,41.6s.11,.08,.15,.13-.1-.08-.15-.13Z"/>
    <path class="cls-21" d="M329.95,43.28v10L101.61,185.15v-10c.11-2,1.16-3.83,2.84-4.92L327.11,41.64c1.57-.91,2.84-.17,2.84,1.64Z"/>
    <path class="cls-3" d="M329.94,53.28v13L101.61,198.17v-13l4.26-2.47c1.14-.66,1.52-1.66,2.06-3.58l1.45-5c.45-1.74,.92-2.93,2.07-3.59l49.33-28.51c1.15-.66,2-.73,2.91,.71l1.77,3.22c.65,1.12,1,1.78,2.12,1.12L329.94,53.28Z"/>
    <path class="cls-6" d="M321.91,48.65c1.22-.71,2.21-.14,2.21,1.27-.09,1.56-.91,2.98-2.21,3.83-1.22,.7-2.21,.13-2.21-1.28,.08-1.55,.9-2.97,2.21-3.82Z"/>
    <path class="cls-6" d="M313.96,53.23c1.22-.7,2.21-.13,2.21,1.27-.09,1.56-.91,2.98-2.21,3.83-1.22,.7-2.21,.13-2.21-1.28,.09-1.55,.91-2.97,2.21-3.82Z"/>
    <path class="cls-6" d="M306.01,57.81c1.22-.7,2.21-.13,2.21,1.28-.08,1.55-.9,2.97-2.21,3.82-1.22,.71-2.21,.14-2.21-1.27,.09-1.56,.91-2.98,2.21-3.83Z"/>
    <path class="cls-18" d="M111.06,186.12l-3.25,1.9,1.24-2.39c.11-.18,.11-.4,0-.58-.09-.11-.26,0-.37,.18l-1.76,3.39h0s0,.08,0,.12h0c-.01,.06-.01,.11,0,.17-.01,.05-.01,.1,0,.15h0s0,.05,0,.07h0l1.76,1.36c.06,.03,.12,.03,.18,0,.24-.19,.31-.53,.17-.81l-1.24-.95,3.25-1.88c.17-.13,.26-.34,.26-.55,.02-.15-.1-.28-.24-.18Z"/>
    <path class="cls-18" d="M113.77,184.55l3.25-1.87-1.24-1c-.11-.08-.12-.33,0-.55s.26-.33,.37-.25l1.76,1.35h0s0,.05,0,.07h0s0,.1,0,.15c0,.06,0,.11,0,.17h0v.13h0l-1.76,3.39c-.04,.08-.1,.15-.17,.2-.06,.05-.14,.05-.2,0-.11-.18-.11-.41,0-.59l1.24-2.38-3.25,1.88c-.14,.08-.26,0-.26-.25,.03-.18,.12-.34,.26-.45Z"/>
    <path class="cls-18" d="M124.43,175.2c0-.2-.19-.18-.28,0l-.44,1.09c-.76-.09-1.68,.65-2.3,2-.8,1.7-.8,3.72,0,4.49,.4,.38,1.01,.41,1.46,.09,.65-.43,1.16-1.05,1.46-1.77,.1-.18,.1-.39,0-.57-.1-.1-.27,0-.37,.21-.6,1.27-1.58,1.84-2.18,1.26s-.6-2.08,0-3.36c.43-.9,1-1.44,1.58-1.47l-.34,.82c-.08,.21,0,.41,.13,.32l1.33-.86c.1-.09,.16-.23,.15-.37l-.2-1.88Z"/>
    <path class="cls-18" d="M159.35,148.14l1.19-2.51c.14-.24,.14-.54,0-.78-.14-.13-.37,0-.51,.29l-1.18,2.51-1.19-1.14c-.14-.13-.36,0-.5,.29-.14,.24-.14,.54,0,.78l1.18,1.14-1.18,2.51c-.14,.24-.14,.54,0,.78,.07,.06,.18,.06,.25,0,.11-.08,.2-.19,.25-.31l1.19-2.51,1.18,1.14c.07,.06,.18,.06,.25,0,.12-.07,.21-.18,.26-.31,.14-.24,.14-.54,0-.78l-1.19-1.1Z"/>
    <path class="cls-10" d="M128.74,178.28v-4.19c.08-1.46,.85-2.79,2.07-3.59L316.23,63.5c1.14-.66,2.07-.13,2.07,1.19v4.19c-.08,1.46-.85,2.78-2.07,3.58l-185.42,107c-1.14,.67-2.07,.14-2.07-1.18Z"/>
    <path class="cls-3" d="M313.41,72.8c-.06,.01-.13,.01-.19,0-.24-.11-.38-.38-.32-.64l.2-1.69-.79-.57c-.15-.11-.23-.29-.22-.47,0-.29,.12-.56,.34-.74l1.22-.94v-.08l.54-1.79c.07-.31,.32-.54,.63-.59,.21-.02,.41,.1,.49,.3l.45,1,1-.39c.2-.08,.43-.03,.57,.13,.17,.26,.17,.59,0,.85l-.88,1.65,.18,1.59c.02,.28-.07,.55-.26,.76-.13,.14-.31,.21-.5,.19l-1-.12-1.07,1.36c-.1,.11-.24,.17-.39,.19Zm-.56-3.48l.78,.57c.18,.14,.26,.36,.22,.58l-.13,1.08,.69-.87c.12-.18,.34-.29,.56-.27l1,.12s0-.06,0-.09l-.21-1.49c-.02-.19,.02-.38,.11-.55l.74-1.38-.75,.28c-.25,.1-.54-.01-.65-.26l-.34-.72-.48,1.54c-.05,.18-.15,.35-.3,.47l-1.22,.93s-.01,.04-.02,.06Z"/>
    <g class="cls-35">
      <path class="cls-17" d="M320.96,63.09c-.37,.01-.68-.27-.69-.64,0-.25,.12-.48,.33-.61l5.41-3.24c.32-.19,.73-.09,.92,.23,.19,.32,.09,.73-.23,.92l-5.41,3.27c-.1,.06-.22,.08-.33,.07Z"/>
      <path class="cls-17" d="M320.92,66.2c-.37,0-.67-.3-.67-.67,0-.24,.13-.46,.33-.58l5.47-3.16c.31-.18,.72-.08,.9,.24,0,0,0,0,0,.01,.19,.32,.08,.73-.24,.92,0,0,0,0,0,0l-5.46,3.15c-.1,.06-.22,.09-.34,.09Z"/>
      <path class="cls-17" d="M320.92,69.36c-.24,0-.46-.13-.58-.34-.19-.32-.08-.73,.24-.92,0,0,0,0,0,0l5.47-3.15c.31-.19,.72-.08,.9,.23,0,0,0,0,0,0,.19,.32,.08,.73-.24,.92,0,0,0,0,0,0l-5.46,3.16c-.1,.06-.22,.09-.34,.09Z"/>
    </g>
    <polygon class="cls-3" points="101.56 185.15 97.5 182.8 97.5 195.83 101.56 198.17 101.56 185.15"/>
    <path class="cls-21" d="M322.24,82.39c-.48-.17-1.02-.1-1.44,.2L113.9,202.02c-1.28,.83-2.08,2.23-2.16,3.75v9.07c-.05,.53,.17,1.05,.59,1.38-.37-.24-3.64-2.09-4-2.33-.44-.32-.67-.85-.62-1.39v-9.07c.08-1.52,.89-2.92,2.17-3.75l206.85-119.44c.45-.32,1.04-.38,1.55-.15,.33,.22,3.19,1.83,3.96,2.3Z"/>
    <path class="cls-21" d="M113.91,202.02l206.89-119.43c1.2-.7,2.17-.14,2.17,1.25v9.07c-.08,1.52-.89,2.92-2.17,3.75L113.91,216.11c-1.2,.69-2.17,.13-2.17-1.25v-9.07c.08-1.53,.88-2.93,2.17-3.77Z"/>
    <path class="cls-26" d="M112.42,203.65l-4.07-2.34c-.39,.65-.61,1.38-.64,2.14v9.07c-.05,.54,.18,1.07,.62,1.39,.4,.24,3.67,2.09,4,2.33-.42-.33-.64-.85-.59-1.38v-9.07c.04-.76,.28-1.5,.68-2.14Z"/>
    <path class="cls-8" d="M322.24,82.34c-.77-.47-3.61-2.08-4-2.3-.51-.23-1.1-.17-1.55,.15L109.84,199.65c-.64,.4-1.17,.95-1.53,1.61l4.07,2.34c.36-.66,.88-1.21,1.52-1.61l206.9-119.45c.42-.3,.96-.37,1.44-.2Z"/>
    <path class="cls-10" d="M314.84,93.02c-.11,1.48-.91,2.81-2.16,3.6l-52.54,30.4c-1.2,.69-2.17,.2-2.17-1.1,.11-1.47,.92-2.81,2.17-3.59l52.54-30.31c1.19-.74,2.16-.25,2.16,1Z"/>
    <path class="cls-17" d="M223.42,165.32l95.84-55.3c.91-.52,1.65-.15,1.65,.84-.09,1.12-.7,2.14-1.65,2.74l-95.84,55.34c-.91,.53-1.65,.16-1.65-.83,.07-1.14,.68-2.18,1.65-2.79Z"/>
    <path class="cls-17" d="M223.42,172.47l95.84-55.35c.91-.52,1.65-.15,1.65,.84-.08,1.12-.7,2.14-1.65,2.74l-95.84,55.32c-.91,.53-1.65,.16-1.65-.83,.09-1.12,.7-2.13,1.65-2.72Z"/>
    <path class="cls-17" d="M223.42,179.62l95.84-55.35c.91-.52,1.65-.15,1.65,.84-.08,1.12-.7,2.14-1.65,2.74l-95.84,55.35c-.91,.52-1.65,.15-1.65-.84,.08-1.12,.7-2.14,1.65-2.74Z"/>
    <g id="freepik--Gears--inject-2">
      <path class="cls-4" d="M109.84,225.02l93.16-53.79c1.19-.69,2.16-.13,2.16,1.25v84.14c-.08,1.52-.89,2.91-2.16,3.75l-93.16,53.8c-1.2,.69-2.17,.13-2.17-1.25v-84.12c.07-1.54,.88-2.94,2.17-3.78Z"/>
      <path class="cls-21" d="M151.07,238.86c-.17-.36-.38-.69-.63-1-.12-.14-.24-.28-.37-.41-.33-.35-.73-.64-1.16-.85-.21-.12-.43-.21-.66-.29-.64-.21-1.32-.3-2-.26-.24,.01-.48,.04-.72,.08l-.52,.1-.51,.13c-.19,.06-.38,.12-.58,.2l-.51,.2c.01,.19,.01,.39,0,.58v.76c0,6.17-4.34,13.68-9.68,16.77-.38,.23-.77,.43-1.18,.61h0c.01,.17,.04,.33,.07,.5,0,.07,0,.14,0,.21,.03,.18,.07,.36,.12,.54,.03,.17,.08,.33,.14,.49,.05,.18,.11,.35,.18,.52,.06,.14,.12,.28,.19,.42,.18,.38,.4,.74,.67,1.07,.22,.28,.47,.53,.75,.76l.08,.06,.35,.25h.07c.14,.09,.29,.17,.44,.24l.5,.2c1.22,.37,2.53,.35,3.74-.06,.38-.12,.75-.25,1.11-.41,.38-.17,.76-.37,1.15-.59,5.35-3.09,9.69-10.59,9.69-16.77,.07-1.39-.18-2.77-.73-4.05Z"/>
      <path class="cls-21" d="M157.82,228.02l-1,2c-.17,.4-.14,.86,.08,1.24,.48,.79,.86,1.64,1.13,2.52,.08,.33,.42,.52,.74,.44,.04,0,.07-.02,.11-.04l5.1-2.3c.13-.05,.28-.05,.41,0l-6.57-3.86Zm-6.31-10.75l-3.7-2.14c-.09-.02-.17-.02-.26,0-.08,0-.16,0-.24,0-.05-.01-.09-.01-.14,0-.09,.05-.17,.12-.24,.19,0,0-.1,0-.13,.09l-3,4.53-3.81-2.2h-.08l-2.76-1.59h0s-.09,0-.14,0c-.1,0-.2,.03-.29,.08l-3.94,2.28-.45,.26h0l-1.24,.71h-.08c-.08,.05-.15,.11-.22,.18-.15,.16-.27,.34-.36,.54h0c-.05,.11-.09,.22-.1,.34l-.58,6.38s0,.07,0,.1c-.01,.12-.04,.23-.09,.34-.1,.28-.27,.54-.48,.75-1.14,1.05-2.2,2.18-3.19,3.37-.29,.3-.72,.42-1.13,.32l-3.67-1.29c-.09-.01-.18-.01-.27,0h-.37l-.15,.08s-.09,.05-.12,.09c-.05,.04-.1,.1-.13,.16l-1.73,3-1.83,3.17-.65,1.13c-.1,.17-.13,.37-.1,.56h0c.03,.2,.12,.38,.27,.51l3,2.55c.05,.05,.1,.1,.14,.16,.12,.17,.19,.38,.2,.59,0,.13-.02,.26-.06,.38-.54,1.45-.98,2.93-1.32,4.44-.07,.26-.19,.5-.35,.71-.11,.16-.24,.29-.39,.41l-5.23,3.68c-.07,.05-.13,.11-.19,.18-.06,.08-.12,.16-.17,.25h0c-.14,.21-.21,.45-.23,.7v6.62c-.01,.17,.06,.33,.2,.42l6.64,3.84-2.42,4.88c-.18,.36-.05,.8,.3,1l9,5.23h.12l-.11-.06-.6-.35c-.34-.2-.48-.64-.31-1l3.41-6.86c.04-.08,.07-.18,.08-.27,.07-.34,0-.7-.16-1-.48-.8-.86-1.64-1.14-2.53-.08-.33-.42-.52-.74-.44-.04,0-.07,.02-.11,.04l-2.57,1.16-2.53,1.14c-.14,.08-.31,.08-.45,0h0c-.13-.1-.21-.26-.19-.42v-6.62c0-.25,.08-.49,.22-.7,.09-.17,.21-.31,.36-.42l5.24-3.69c.15-.11,.27-.25,.38-.4,.16-.21,.28-.45,.35-.71,.34-1.51,.78-2.99,1.33-4.44,.04-.12,.06-.24,.06-.37h0c0-.29-.14-.56-.35-.76l-2.95-2.54c-.29-.29-.37-.72-.19-1.09l1.2-2.08,1.49-2.58,1.53-2.64c.14-.23,.38-.38,.65-.4h0c.12-.04,.25-.04,.37,0l3.68,1.28c.21,.07,.45,.07,.66,0,.18-.06,.35-.16,.47-.31,.98-1.19,2.05-2.32,3.18-3.37,.21-.21,.38-.46,.48-.74,.06-.14,.1-.3,.12-.45l.57-6.38c0-.12,.04-.23,.1-.34,.11-.3,.32-.56,.59-.73l1.08-.62,2.31-1.34,2.25-1.2c.13-.08,.29-.1,.43-.05h0c.14,.08,.23,.23,.23,.39l.29,2.92,.27,2.65c.03,.34,.32,.59,.66,.56,.03,0,.07,0,.1-.02,.9-.21,1.83-.31,2.76-.28,.29,0,.57-.09,.8-.26,.12-.08,.22-.18,.31-.3l4.24-6.37c.04-.06,.08-.11,.13-.15,.18-.16,.43-.22,.67-.17,.06,0,.11,.03,.16,.06l-4.65-2.73Zm-12.7,58.75s-.06-.08-.08-.13c-.03-.06-.04-.12-.05-.19l-.55-5.56c-.02-.33-.3-.58-.63-.56-.05,0-.09,.01-.14,.02-.91,.2-1.83,.3-2.76,.28-.43,0-.84,.21-1.11,.55l-1.22,1.83,6.55,3.78s0-.02,0-.02Z"/>
      <path class="cls-31" d="M156.27,219.85s-.1-.05-.16-.06c-.24-.05-.49,.01-.67,.17-.05,.04-.09,.09-.13,.15l-4.24,6.37c-.09,.12-.19,.22-.31,.3-.23,.17-.51,.26-.8,.26-.93-.03-1.86,.07-2.76,.28-.33,.08-.66-.11-.74-.44,0-.03-.01-.07-.02-.1l-.27-2.65-.29-2.92c0-.14-.07-.28-.19-.36h0c-.14-.05-.3-.03-.43,.05l-2.34,1.35-2.31,1.34-1.08,.62c-.27,.17-.48,.43-.59,.73-.06,.11-.09,.22-.1,.34l-.57,6.38c-.02,.15-.06,.31-.12,.45-.1,.28-.27,.53-.48,.74-1.13,1.05-2.2,2.18-3.18,3.37-.12,.15-.29,.25-.47,.31-.21,.07-.45,.07-.66,0l-3.68-1.28c-.12-.04-.25-.04-.37,0h0c-.27,.02-.51,.17-.65,.4l-1.53,2.64-1.57,2.56-1.2,2.08c-.18,.37-.1,.8,.19,1.09l2.95,2.54c.21,.2,.34,.47,.35,.76h0c0,.13-.02,.25-.06,.37-.55,1.45-.99,2.93-1.33,4.44-.07,.26-.19,.5-.35,.71-.11,.15-.23,.29-.38,.4l-5.24,3.69c-.15,.11-.27,.25-.36,.42-.14,.21-.21,.45-.22,.7v6.62c-.02,.16,.06,.32,.19,.42h0c.14,.08,.31,.08,.45,0l2.53-1.14,2.57-1.16c.3-.14,.67-.01,.81,.29,.02,.03,.03,.07,.04,.11,.28,.89,.66,1.73,1.14,2.53,.17,.3,.23,.66,.16,1,0,.09-.04,.19-.08,.27l-3.41,6.86c-.17,.36-.03,.8,.31,1l.6,.35,.11,.06h-.12l-9-5.23c-.35-.2-.48-.64-.3-1l2.42-4.88-6.64-3.95c-.14-.09-.21-.25-.2-.42v-6.62c.02-.25,.09-.49,.23-.7h0c.05-.09,.11-.17,.17-.25,.06-.07,.12-.13,.19-.18l5.23-3.68c.15-.12,.28-.25,.39-.41,.16-.21,.28-.45,.35-.71,.34-1.51,.78-2.99,1.32-4.44,.04-.12,.06-.25,.06-.38-.01-.21-.08-.42-.2-.59-.04-.06-.09-.11-.14-.16l-3-2.55c-.15-.13-.24-.31-.27-.51h0c-.03-.19,0-.39,.1-.56l.65-1.13,1.83-3.17,.5-.87,1.27-2.2c.19-.32,.58-.47,.93-.34h.06l3.37,1.19h0l.29,.1c.41,.1,.84-.02,1.13-.32,.99-1.19,2.05-2.32,3.19-3.37,.21-.21,.38-.47,.48-.75,.05-.11,.08-.22,.09-.34,0-.03,0-.07,0-.1l.58-6.38c.01-.12,.05-.23,.1-.34h0c.09-.2,.21-.38,.36-.54,.09-.09,.19-.17,.3-.23l1.24-.71h0l.45-.26,3.94-2.28c.09-.05,.19-.08,.29-.08,.05,0,.09,0,.14,0h0l2.76,1.59h.08l3.81,2.2,3-4.53c0-.05,.09-.05,.13-.09,.07-.07,.15-.14,.24-.19,.05-.01,.09-.01,.14,0,.08,0,.16,0,.24,0,.09-.02,.17-.02,.26,0l3.7,2.14,4.8,2.81Z"/>
      <path class="cls-31" d="M138.73,275.93c-.03-.06-.04-.12-.05-.19l-.55-5.56c-.02-.33-.3-.58-.63-.56-.05,0-.09,.01-.14,.02-.91,.2-1.83,.3-2.76,.28-.43,0-.84,.21-1.11,.55l-1.22,1.83,6.55,3.78h0s-.07-.09-.09-.15Z"/>
      <path class="cls-31" d="M157.82,228.02l-1,2c-.17,.4-.14,.86,.08,1.24,.48,.79,.86,1.64,1.13,2.52,.08,.33,.42,.52,.74,.44,.04,0,.07-.02,.11-.04l5.1-2.3c.13-.05,.28-.05,.41,0l-6.57-3.86Z"/>
      <path class="cls-26" d="M138.79,225.02c-.06,.11-.09,.22-.1,.34l-.57,6.38c-.02,.15-.06,.31-.12,.45l-8.39-4.83h0c.04-.11,.08-.22,.11-.33,0-.03,0-.07,0-.1l.58-6.38c.02-.12,.06-.23,.11-.34l8.38,4.81Z"/>
      <path class="cls-26" d="M127.77,247.45l-8.43-4.87h0c0-.2-.06-.4-.16-.57-.04-.06-.09-.11-.14-.16l-3-2.55c-.15-.13-.24-.31-.27-.51l8.43,4.87c.03,.2,.12,.38,.27,.51l2.95,2.54c.21,.19,.34,.46,.35,.74Z"/>
      <path class="cls-26" d="M124.24,273.95c-.17,.36-.03,.8,.31,1l.6,.35h0l-9-5.23c-.35-.2-.48-.64-.3-1l2.42-4.88,1.78,1h0c.14,.08,.31,.08,.45,0l2.53-1.14,4.72,2.73c0,.09-.04,.19-.08,.27l-3.43,6.9Z"/>
      <path class="cls-26" d="M138.81,276.02h0l-6.55-3.78,1.22-1.83c.27-.34,.68-.55,1.11-.55,.93,.02,1.85-.08,2.76-.28,.32-.09,.65,.09,.75,.4,.01,.04,.02,.09,.02,.14l.55,5.56c0,.07,.02,.13,.05,.19,.02,.06,.05,.11,.09,.15Z"/>
      <path class="cls-33" d="M151.93,243.02c0,6.18-4.34,13.68-9.69,16.77-.39,.22-.77,.42-1.15,.59-.36,.16-.73,.29-1.11,.41-1.21,.41-2.52,.43-3.74,.06l-.5-.2c-.15-.07-.3-.15-.44-.24h-.07l-.35-.25-.08-.06c-.28-.23-.53-.48-.75-.76-.27-.33-.49-.69-.67-1.07-.07-.14-.13-.28-.19-.42-.07-.17-.13-.34-.18-.52-.06-.16-.11-.32-.14-.49-.05-.18-.09-.36-.12-.54,0-.07,0-.14,0-.21-.03-.17-.06-.33-.07-.5h0c.41-.18,.8-.38,1.18-.61,5.34-3.09,9.68-10.6,9.68-16.77v-.76c0-.19-.02-.39-.05-.58h0l.51-.2c.2-.08,.39-.14,.58-.2l.51-.13,.52-.1c.24-.04,.48-.07,.72-.08,.68-.04,1.36,.05,2,.26,.23,.08,.45,.17,.66,.29,.43,.21,.83,.5,1.16,.85,.13,.13,.25,.27,.37,.41,.25,.31,.46,.64,.63,1,.57,1.27,.83,2.66,.78,4.05Z"/>
      <path class="cls-26" d="M164.41,231.86c-.13-.05-.28-.05-.41,0l-5.1,2.3c-.3,.14-.67,.01-.81-.29-.02-.03-.03-.07-.04-.11-.27-.88-.65-1.73-1.13-2.52-.22-.38-.25-.84-.08-1.24l1-2,6.57,3.86Z"/>
      <path class="cls-26" d="M156.19,220.02s-.1-.05-.16-.06c-.24-.05-.49,.01-.67,.17-.05,.05-.09,.1-.13,.15l-4.24,6.37c-.09,.12-.19,.22-.31,.3l-2.37-1.37-2.22-1.28-.29-2.92c0-.14-.07-.28-.19-.36h0l-1.75-1,3-4.53c.09-.13,.22-.23,.37-.28,.05-.01,.09-.01,.14,0,.17-.04,.35-.02,.5,.07l3.7,2.14,4.62,2.6Z"/>
      <path class="cls-26" d="M126.03,253.02c-.11,.15-.23,.29-.38,.4l-5.24,3.69c-.15,.11-.27,.25-.36,.42l-8.44-4.9,.17-.25c.06-.07,.12-.13,.19-.18l5.23-3.68c.15-.12,.28-.25,.39-.41l8.44,4.91Z"/>
      <path class="cls-21" d="M164.66,238.93v-6.62c.03-.24-.14-.45-.37-.48-.1-.01-.19,0-.28,.06l-5.1,2.3c-.3,.14-.67,.01-.81-.29-.02-.03-.03-.07-.04-.1-.28-.89-.66-1.74-1.14-2.53-.22-.38-.25-.84-.08-1.24l3.4-6.86c.18-.36,.05-.8-.3-1l-3.69-2.15c-.34-.19-.78-.09-1,.23l-4.24,6.38c-.27,.34-.68,.55-1.11,.55-.93-.02-1.85,.08-2.76,.28-.32,.09-.66-.1-.75-.43-.01-.04-.02-.08-.02-.11l-.56-5.57c0-.24-.18-.43-.42-.44-.1,0-.19,.03-.27,.09l-5.73,3.31c-.37,.24-.62,.63-.68,1.07l-.58,6.37c-.06,.45-.26,.87-.59,1.19-1.14,1.05-2.2,2.18-3.19,3.38-.28,.31-.72,.43-1.12,.31l-3.68-1.28c-.38-.1-.78,.05-1,.38l-4.21,7.3c-.2,.36-.12,.81,.18,1.09l3,2.54c.31,.29,.41,.74,.28,1.14-.54,1.45-.98,2.93-1.32,4.44-.12,.44-.38,.83-.74,1.11l-5.23,3.69c-.35,.27-.57,.69-.59,1.13v6.61c-.04,.23,.13,.45,.36,.49,.1,.01,.2,0,.29-.06l5.11-2.3c.3-.15,.66-.03,.8,.27,.02,.04,.03,.08,.05,.12,.27,.89,.65,1.74,1.13,2.53,.22,.38,.25,.84,.08,1.24l-3.4,6.85c-.18,.36-.05,.8,.3,1l3.69,2.13c.35,.18,.77,.08,1-.24l4.24-6.37c.26-.35,.67-.55,1.11-.55,.92,.02,1.85-.08,2.75-.28,.32-.09,.66,.1,.75,.43,.01,.04,.02,.08,.02,.11l.56,5.57c0,.24,.18,.43,.42,.44,.1,0,.19-.03,.27-.09l5.73-3.31c.37-.24,.62-.63,.69-1.07l.57-6.38c.07-.45,.28-.87,.6-1.19,1.14-1.05,2.2-2.18,3.18-3.37,.28-.31,.72-.44,1.13-.32l3.68,1.29c.38,.11,.79-.05,1-.39l4.21-7.3c.2-.36,.12-.81-.18-1.08l-2.95-2.55c-.31-.29-.42-.73-.29-1.13,.54-1.45,.98-2.93,1.33-4.44,.11-.44,.37-.83,.73-1.11l5.24-3.69c.32-.28,.52-.67,.54-1.1Zm-22.41,20.82c-5.35,3.08-9.69,.58-9.69-5.6s4.34-13.68,9.69-16.77,9.68-.58,9.68,5.59-4.32,13.69-9.68,16.78Z"/>
      <path class="cls-30" d="M164.62,238.93v-6.62c.03-.24-.14-.45-.37-.48-.1-.01-.19,0-.28,.06l-5.1,2.3c-.3,.14-.67,.01-.81-.29-.02-.03-.03-.07-.04-.1-.28-.89-.66-1.74-1.14-2.53-.22-.38-.25-.84-.08-1.24l3.4-6.86c.18-.36,.05-.8-.3-1l-3.69-2.15c-.34-.19-.78-.09-1,.23l-4.24,6.38c-.27,.34-.68,.55-1.11,.55-.93-.02-1.85,.08-2.76,.28-.32,.09-.66-.1-.75-.43-.01-.04-.02-.08-.02-.11l-.56-5.57c0-.24-.18-.43-.42-.44-.1,0-.19,.03-.27,.09l-5.73,3.31c-.37,.24-.62,.63-.68,1.07l-.58,6.37c-.06,.45-.26,.87-.59,1.19-1.14,1.05-2.2,2.18-3.19,3.38-.28,.31-.72,.43-1.12,.31l-3.68-1.28c-.38-.1-.78,.05-1,.38l-4.21,7.3c-.2,.36-.12,.81,.18,1.09l3,2.54c.31,.29,.41,.74,.28,1.14-.54,1.45-.98,2.93-1.32,4.44-.12,.44-.38,.83-.74,1.11l-5.23,3.69c-.35,.27-.57,.69-.59,1.13v6.61c-.04,.23,.13,.45,.36,.49,.1,.01,.2,0,.29-.06l5.11-2.3c.3-.15,.66-.03,.8,.27,.02,.04,.03,.08,.05,.12,.27,.89,.65,1.74,1.13,2.53,.22,.38,.25,.84,.08,1.24l-3.4,6.85c-.18,.36-.05,.8,.3,1l3.69,2.13c.35,.18,.77,.08,1-.24l4.24-6.37c.26-.35,.67-.55,1.11-.55,.92,.02,1.85-.08,2.75-.28,.32-.09,.66,.1,.75,.43,.01,.04,.02,.08,.02,.11l.56,5.57c0,.24,.18,.43,.42,.44,.1,0,.19-.03,.27-.09l5.73-3.31c.37-.24,.62-.63,.69-1.07l.57-6.38c.07-.45,.28-.87,.6-1.19,1.14-1.05,2.2-2.18,3.18-3.37,.28-.31,.72-.44,1.13-.32l3.68,1.29c.38,.11,.79-.05,1-.39l4.21-7.3c.2-.36,.12-.81-.18-1.08l-2.95-2.55c-.31-.29-.42-.73-.29-1.13,.54-1.45,.98-2.93,1.33-4.44,.11-.44,.37-.83,.73-1.11l5.24-3.69c.32-.28,.52-.67,.54-1.1Zm-22.3,20.89c-5.35,3.08-9.69,.58-9.69-5.6s4.34-13.68,9.69-16.77,9.68-.58,9.68,5.59-4.32,13.69-9.68,16.78Z"/>
      <path class="cls-21" d="M122.7,231.61l-2-1.16c-.26,.02-.49,.16-.62,.38l-1.26,2.2h0l-.51,.87-1.83,3.17-.65,1.13c-.1,.17-.13,.37-.1,.56h0l8.43,4.87c-.04-.2-.02-.4,.08-.58l1.2-2.08,1.49-2.58,1.53-2.64c.14-.23,.38-.38,.65-.4l-6.41-3.74Z"/>
      <path class="cls-32" d="M122.7,231.61l-2-1.16c-.26,.02-.49,.16-.62,.38l-1.26,2.2h0l-.51,.87-1.83,3.17-.65,1.13c-.1,.17-.13,.37-.1,.56h0l8.43,4.87c-.04-.2-.02-.4,.08-.58l1.2-2.08,1.49-2.58,1.53-2.64c.14-.23,.38-.38,.65-.4l-6.41-3.74Z"/>
      <path class="cls-26" d="M125.43,231.78c-.21,.07-.44,.07-.65,0l-.28-.1h0l-3.38-1.19h-.07c-.1-.02-.21-.02-.31,0l.11,.07h0l1.86,1.09,.64,.36h0l5.81,3.39h0c.12-.04,.25-.04,.37,0l3.68,1.28c.21,.07,.45,.07,.66,0l-8.44-4.9Z"/>
      <path class="cls-21" d="M145.54,221.02c-.14-.05-.3-.03-.43,.05l-2.34,1.35-2.31,1.34-1.08,.62c-.27,.17-.48,.43-.59,.73l-8.42-4.86h0c.09-.2,.21-.38,.36-.54,.07-.07,.14-.13,.22-.18h.08l1.24-.71h0l.45-.26,3.94-2.28c.09-.05,.19-.08,.29-.08,.05,0,.09,0,.14,0h0l2.76,1.59h.08l3.81,2.2,1.8,1.03Z"/>
      <path class="cls-32" d="M145.54,221.02c-.14-.05-.3-.03-.43,.05l-2.34,1.35-2.31,1.34-1.08,.62c-.27,.17-.48,.43-.59,.73l-8.42-4.86h0c.09-.2,.21-.38,.36-.54,.07-.07,.14-.13,.22-.18h.08l1.24-.71h0l.45-.26,3.94-2.28c.09-.05,.19-.08,.29-.08,.05,0,.09,0,.14,0h0l2.76,1.59h.08l3.81,2.2,1.8,1.03Z"/>
      <path class="cls-21" d="M188.93,243.18c-.4-1.06-1.34-1.83-2.46-2h-.37c-.77-.02-1.53,.14-2.22,.47v.85c-.22,4.43-2.55,8.49-6.27,10.92-.24,.14-.49,.27-.74,.39,.05,.57,.19,1.12,.43,1.64,.48,1.23,1.68,2.03,3,2h.62l.28-.05h.29c1.58-.48,2.99-1.4,4.08-2.64,3.17-3.51,4.69-8.64,3.36-11.58Z"/>
      <path class="cls-33" d="M185.55,254.71c-1.09,1.24-2.5,2.16-4.08,2.64h-.29l-.28,.05h-.62c-1.32,.03-2.52-.77-3-2-.24-.52-.38-1.07-.43-1.64,.25-.12,.5-.25,.74-.39,3.72-2.42,6.06-6.47,6.29-10.9v-.85c.69-.33,1.45-.49,2.22-.47h.37c1.12,.17,2.06,.94,2.46,2,1.35,3.04-.17,8.17-3.38,11.56Z"/>
      <path class="cls-21" d="M186.4,263.53l-1.61-2.45c-.11-.17-.41-.16-.67,0s-.63,.42-.94,.6l3.25,1.88-.03-.03Z"/>
      <path class="cls-21" d="M193.87,243.19c0,.41-.02,.83-.06,1.26,0,.24,.2,.44,.44,.44,0,0,0,0,.01,0l2.69,.15c.07,0,.14,.02,.2,.05l-3.28-1.9Z"/>
      <path class="cls-21" d="M176.21,262.82c-.49-.2-.96-.47-1.37-.8-.23-.13-.53-.08-.7,.12l-3.2,2.93c-.1,.09-.22,.15-.35,.16l3.14,1.81,1.94,1.13c-.1-.07-.16-.19-.13-.31l1-4.48c.04-.24-.1-.48-.33-.56Z"/>
      <path class="cls-21" d="M170.15,265.02h.06l.19,.11h.05s-.06-.05-.07-.09l-1.43-3.15c-.04-.12-.04-.26,0-.38,.03-.13,.1-.26,.18-.37l3-3.63c.13-.16,.22-.35,.27-.55,.01-.08,.01-.17,0-.25-.07-.86-.07-1.73,0-2.59,0-.24-.19-.43-.43-.43,0,0-.01,0-.02,0l-2.69-.16c-.19,.02-.36-.12-.38-.31,0-.05,0-.09,.01-.14l1.48-5c.13-.28,.37-.49,.67-.56l2.94-.71c.31-.08,.58-.28,.75-.55,.47-.95,1-1.86,1.58-2.75,.04-.07,.08-.14,.11-.22,0-.05,0-.09,0-.14v-.14c.02-.09,.02-.19,0-.28l-1-3.24c-.04-.12-.04-.25,0-.37,.02-.07,.05-.14,.09-.2,.04-.07,.09-.13,.14-.19l3.44-3.63c.1-.15,.29-.21,.46-.16h0s.07,.04,.09,.07l1.6,2.45c.11,.17,.41,.16,.67,0,.62-.42,1.27-.8,1.94-1.12,.29-.14,.54-.37,.69-.66l1.69-4.56s.04-.08,.07-.12c.11-.14,.26-.25,.43-.31h.19l3.13-.32h.19s.07,0,.11,0c.12,.05,.17,.19,.13,.31l-1,4.49c-.04,.24,.09,.47,.32,.56,.5,.19,.96,.46,1.37,.79,.23,.13,.53,.08,.7-.12l3.2-2.92c.17-.15,.34-.2,.46-.14l-6.31-3.66h-.12l-1.14-.66h0l-1.25-.72-.5-.29-1.13-.66-.18-.11-.88-.5c-.09-.05-.2-.08-.31-.06l-3.13,.31s-.09,0-.14,0l-.14,.05-.14,.08-.1,.09c-.07,.06-.13,.14-.16,.23l-1.7,4.55s-.03,.08-.06,.11c-.03,.06-.07,.11-.12,.16l-.16,.16h0l-.14,.1-.18,.11c-.33,.15-.65,.33-1,.52l-3.29-1.9h-.05c-.08-.04-.19-.04-.27,0-.07,.03-.14,.07-.19,.13h0l-2.44,2.57-1,1.06c-.06,.06-.11,.13-.15,.2-.04,.07-.07,.15-.1,.23-.02,.09-.02,.17,0,.26v.06l1,3.24c.02,.1,.02,.19,0,.29,0,.03,0,.07,0,.1h0v.05c-.03,.11-.08,.21-.14,.31-.58,.88-1.11,1.8-1.58,2.74-.16,.28-.43,.48-.74,.56l-3,.71c-.3,.07-.54,.27-.66,.55l-1.49,5c-.04,.13,0,.28,.12,.36l2.27,1.32,1.06,.61c0,.46,0,.91,.06,1.34h0c0,.07,0,.13,0,.2-.01,.08-.04,.16-.07,.23-.06,.11-.12,.22-.19,.32l-3,3.64c-.08,.11-.15,.24-.18,.37,0,.07,0,.13,0,.2-.01,.06-.01,.11,0,.17l1.43,3.15s.05,.08,.09,.11h0l.9,.52c.13,.07,.28,.15,.43,.25l3.83,2.21,.42,.24,.23,.14"/>
      <path class="cls-31" d="M170.15,265.02h.06l.19,.11h.05s-.06-.05-.07-.09l-1.43-3.15c-.04-.12-.04-.26,0-.38,.03-.13,.1-.26,.18-.37l3-3.63c.13-.16,.22-.35,.27-.55,.01-.08,.01-.17,0-.25-.07-.86-.07-1.73,0-2.59,0-.24-.19-.43-.43-.43,0,0-.01,0-.02,0l-2.69-.16c-.19,.02-.36-.12-.38-.31,0-.05,0-.09,.01-.14l1.48-5c.13-.28,.37-.49,.67-.56l2.94-.71c.31-.08,.58-.28,.75-.55,.47-.95,1-1.86,1.58-2.75,.04-.07,.08-.14,.11-.22,0-.05,0-.09,0-.14v-.14c.02-.09,.02-.19,0-.28l-1-3.24c-.04-.12-.04-.25,0-.37,.02-.07,.05-.14,.09-.2,.04-.07,.09-.13,.14-.19l3.44-3.63c.1-.15,.29-.21,.46-.16h0s.07,.04,.09,.07l1.6,2.45c.11,.17,.41,.16,.67,0,.62-.42,1.27-.8,1.94-1.12,.29-.14,.54-.37,.69-.66l1.69-4.56s.04-.08,.07-.12c.11-.14,.26-.25,.43-.31h.19l3.13-.32h.19s.07,0,.11,0c.12,.05,.17,.19,.13,.31l-1,4.49c-.04,.24,.09,.47,.32,.56,.5,.19,.96,.46,1.37,.79,.23,.13,.53,.08,.7-.12l3.2-2.92c.17-.15,.34-.2,.46-.14l-6.31-3.66h-.12l-1.14-.66h0l-1.25-.72-.5-.29-1.13-.66-.18-.11-.88-.5c-.09-.05-.2-.08-.31-.06l-3.13,.31s-.09,0-.14,0l-.14,.05-.14,.08-.1,.09c-.07,.06-.13,.14-.16,.23l-1.7,4.55s-.03,.08-.06,.11c-.03,.06-.07,.11-.12,.16l-.16,.16h0l-.14,.1-.18,.11c-.33,.15-.65,.33-1,.52l-3.29-1.9h-.05c-.08-.04-.19-.04-.27,0-.07,.03-.14,.07-.19,.13h0l-2.44,2.57-1,1.06c-.06,.06-.11,.13-.15,.2-.04,.07-.07,.15-.1,.23-.02,.09-.02,.17,0,.26v.06l1,3.24c.02,.1,.02,.19,0,.29,0,.03,0,.07,0,.1h0v.05c-.03,.11-.08,.21-.14,.31-.58,.88-1.11,1.8-1.58,2.74-.16,.28-.43,.48-.74,.56l-3,.71c-.3,.07-.54,.27-.66,.55l-1.49,5c-.04,.13,0,.28,.12,.36l2.27,1.32,1.06,.61c0,.46,0,.91,.06,1.34h0c0,.07,0,.13,0,.2-.01,.08-.04,.16-.07,.23-.06,.11-.12,.22-.19,.32l-3,3.64c-.08,.11-.15,.24-.18,.37,0,.07,0,.13,0,.2-.01,.06-.01,.11,0,.17l1.43,3.15s.05,.08,.09,.11h0l.9,.52c.13,.07,.28,.15,.43,.25l3.83,2.21,.42,.24,.23,.14"/>
      <path class="cls-33" d="M186.4,263.53l-1.61-2.45c-.11-.17-.41-.16-.67,0s-.63,.42-.94,.6l3.25,1.88-.03-.03Z"/>
      <path class="cls-31" d="M193.87,243.19c0,.41-.02,.83-.06,1.26,0,.24,.2,.44,.44,.44,0,0,0,0,.01,0l2.69,.15c.07,0,.14,.02,.2,.05l-3.28-1.9Z"/>
      <path class="cls-33" d="M176.21,262.82c-.49-.2-.96-.47-1.37-.8-.23-.13-.53-.08-.7,.12l-3.2,2.93c-.1,.09-.22,.15-.35,.16l3.14,1.81,1.94,1.13c-.1-.07-.16-.19-.13-.31l1-4.48c.04-.24-.1-.48-.33-.56Z"/>
      <path class="cls-28" d="M172.33,257.23c-.05,.12-.12,.24-.2,.34l-3,3.63c-.08,.11-.15,.24-.18,.37l-6.34-3.66c.03-.13,.1-.26,.18-.37l3-3.64c.07-.1,.13-.21,.19-.32l6.35,3.65Z"/>
      <path class="cls-24" d="M172.42,256.77c.01,.16-.02,.32-.09,.46l-6.33-3.65c.03-.07,.06-.15,.07-.23,0-.07,0-.13,0-.2h0c0-.43-.06-.87-.06-1.33l3,1.71c.08,.06,.18,.1,.28,.1l2.69,.16c.24-.01,.44,.17,.45,.41,0,0,0,.01,0,.02-.08,.85-.08,1.7-.01,2.55Z"/>
      <path class="cls-23" d="M174.41,246.7c-.12,.09-.25,.16-.4,.19l-2.94,.71c-.21,.06-.4,.18-.54,.35l-6.34-3.65c.09-.12,.2-.21,.33-.28l.22-.08,3-.71c.14-.04,.26-.1,.38-.18h0l6.29,3.65Z"/>
      <path class="cls-32" d="M168.92,253.14c-.04,.12,0,.26,.09,.35l-3-1.71h0l-3.26-1.89h-.05c-.11-.08-.16-.23-.12-.36l1.49-5c.02-.07,.06-.13,.1-.19l6.35,3.65c-.06,.06-.1,.13-.13,.21l-1.47,4.94Z"/>
      <path class="cls-23" d="M169.26,235.58l6.33,3.63c-.04,.12-.04,.24,0,.36l1,3.24c.03,.14,.03,.28,0,.42l-6.33-3.66h0v-.1c.02-.1,.02-.19,0-.29l-1-3.24c-.03-.1-.03-.22,0-.32"/>
      <path class="cls-23" d="M186.5,230.68c-.07,.06-.13,.14-.17,.23l-1.69,4.56c-.08,.17-.19,.31-.34,.42l-6.33-3.66c.11-.09,.21-.2,.28-.32,.03-.03,.05-.07,.06-.11l1.7-4.55c.03-.09,.09-.17,.16-.23l6.33,3.66Z"/>
      <path class="cls-21" d="M168.92,253.14c-.04,.12,0,.26,.09,.35l-3-1.71h0l-3.26-1.89h-.05c-.11-.08-.16-.23-.12-.36l1.49-5c.02-.07,.06-.13,.1-.19l6.35,3.65c-.06,.06-.1,.13-.13,.21l-1.47,4.94Z"/>
      <path class="cls-32" d="M168.92,253.14c-.04,.12,0,.26,.09,.35l-3-1.71h0l-3.26-1.89h-.05c-.11-.08-.16-.23-.12-.36l1.49-5c.02-.07,.06-.13,.1-.19l6.35,3.65c-.06,.06-.1,.13-.13,.21l-1.47,4.94Z"/>
      <path class="cls-21" d="M179.77,235.02h0c-.18-.07-.38,0-.49,.15l-3.44,3.63c-.1,.12-.19,.25-.24,.4l-6.33-3.63c.02-.08,.05-.16,.09-.23,.04-.07,.09-.14,.15-.2l3.44-3.63c.06-.06,.12-.1,.19-.14,.08-.04,.19-.04,.27,0h.05l3.29,1.9,3.02,1.75Z"/>
      <path class="cls-32" d="M179.77,235.02h0c-.18-.07-.38,0-.49,.15l-3.44,3.63c-.1,.12-.19,.25-.24,.4l-6.33-3.63c.02-.08,.05-.16,.09-.23,.04-.07,.09-.14,.15-.2l3.44-3.63c.06-.06,.12-.1,.19-.14,.08-.04,.19-.04,.27,0h.05l3.29,1.9,3.02,1.75Z"/>
      <path class="cls-21" d="M190.54,230.45c-.09-.04-.18-.06-.28-.05l-3.13,.32c-.2,.02-.38,.1-.52,.24l-6.33-3.66,.1-.09,.14-.08,.14-.05s.09,0,.14,0l3.13-.31c.11-.02,.22,0,.31,.06l6.3,3.62Z"/>
      <path class="cls-32" d="M190.54,230.45c-.09-.04-.18-.06-.28-.05l-3.13,.32c-.2,.02-.38,.1-.52,.24l-6.33-3.66,.1-.09,.14-.08,.14-.05s.09,0,.14,0l3.13-.31c.11-.02,.22,0,.31,.06l6.3,3.62Z"/>
      <path class="cls-32" d="M165.86,251.67l.18,.1h0l-.18-.1Z"/>
      <path class="cls-21" d="M197.15,245.09c-.06-.03-.13-.05-.2-.05l-2.69-.15c-.24,0-.44-.19-.45-.43,0,0,0,0,0-.01,.04-.43,.06-.85,.06-1.26,.03-.44,.03-.89,0-1.33,0-.29,.1-.57,.29-.79l3-3.64c.18-.2,.25-.48,.18-.74l-1.42-3.15s-.05-.08-.09-.1h0c-.12-.06-.29,0-.46,.14l-3.2,2.92c-.17,.2-.47,.25-.7,.12-.41-.33-.87-.6-1.37-.79-.23-.09-.36-.32-.32-.56l1-4.49c.04-.12-.01-.26-.13-.31-.09-.05-.2-.07-.3-.06l-3.13,.32c-.3,.03-.56,.2-.69,.47l-1.69,4.56c-.15,.29-.4,.52-.69,.66-.67,.32-1.32,.7-1.94,1.12-.26,.18-.56,.19-.67,0l-1.6-2.45c-.12-.17-.38-.14-.58,.08l-3.44,3.63c-.2,.2-.3,.48-.27,.76l1,3.24c.04,.27-.02,.55-.18,.78-.58,.89-1.11,1.8-1.58,2.75-.17,.27-.44,.47-.75,.55l-2.94,.71c-.3,.07-.54,.28-.67,.56l-1.48,5c-.06,.18,.05,.38,.23,.44,.04,.01,.09,.02,.14,.01l2.69,.16c.24-.01,.44,.17,.45,.41,0,0,0,.01,0,.02-.07,.86-.07,1.73,0,2.59,0,.29-.1,.58-.29,.8l-3,3.63c-.18,.21-.24,.49-.18,.75l1.4,3.13s.03,.05,.06,.07h.12c.13,0,.26-.06,.35-.16l3.2-2.93c.17-.2,.47-.25,.7-.12,.41,.33,.88,.6,1.37,.8,.23,.08,.36,.32,.32,.56l-1,4.48c-.03,.12,.03,.24,.13,.31h0c.1,.03,.2,.03,.3,0l3.13-.31c.3-.04,.55-.22,.69-.48l1.7-4.55c.14-.29,.38-.53,.68-.67,.33-.15,.67-.33,1-.52s.63-.38,.94-.6,.56-.19,.67,0l1.61,2.45s.04,.06,.07,.08c.18,.07,.39,0,.5-.16l3.45-3.63c.2-.2,.29-.47,.26-.75l-1-3.24c-.04-.28,.02-.56,.18-.79,.58-.88,1.11-1.8,1.58-2.74,.17-.28,.44-.48,.75-.56l2.94-.71c.3-.07,.54-.27,.67-.55l1.48-5c.05-.15-.02-.32-.16-.39l-.03,.11Zm-11.62,9.55c-1.09,1.24-2.5,2.16-4.08,2.64h-.29l-.28,.05h-.62c-1.32,.03-2.52-.77-3-2-.24-.52-.38-1.07-.43-1.64-.04-.3-.06-.61-.05-.91,.24-3.29,1.64-6.39,3.93-8.76,.7-.75,1.5-1.4,2.38-1.92,.25-.15,.52-.29,.79-.4,.69-.33,1.45-.49,2.22-.47h.37c1.12,.17,2.06,.94,2.46,2,1.33,2.89-.19,8.02-3.4,11.41Z"/>
      <path class="cls-30" d="M197.15,245.09c-.06-.03-.13-.05-.2-.05l-2.69-.15c-.24,0-.44-.19-.45-.43,0,0,0,0,0-.01,.04-.43,.06-.85,.06-1.26,.03-.44,.03-.89,0-1.33,0-.29,.1-.57,.29-.79l3-3.64c.18-.2,.25-.48,.18-.74l-1.42-3.15s-.05-.08-.09-.1h0c-.12-.06-.29,0-.46,.14l-3.2,2.92c-.17,.2-.47,.25-.7,.12-.41-.33-.87-.6-1.37-.79-.23-.09-.36-.32-.32-.56l1-4.49c.04-.12-.01-.26-.13-.31-.09-.05-.2-.07-.3-.06l-3.13,.32c-.3,.03-.56,.2-.69,.47l-1.69,4.56c-.15,.29-.4,.52-.69,.66-.67,.32-1.32,.7-1.94,1.12-.26,.18-.56,.19-.67,0l-1.6-2.45c-.12-.17-.38-.14-.58,.08l-3.44,3.63c-.2,.2-.3,.48-.27,.76l1,3.24c.04,.27-.02,.55-.18,.78-.58,.89-1.11,1.8-1.58,2.75-.17,.27-.44,.47-.75,.55l-2.94,.71c-.3,.07-.54,.28-.67,.56l-1.48,5c-.06,.18,.05,.38,.23,.44,.04,.01,.09,.02,.14,.01l2.69,.16c.24-.01,.44,.17,.45,.41,0,0,0,.01,0,.02-.07,.86-.07,1.73,0,2.59,0,.29-.1,.58-.29,.8l-3,3.63c-.18,.21-.24,.49-.18,.75l1.4,3.13s.03,.05,.06,.07h.12c.13,0,.26-.06,.35-.16l3.2-2.93c.17-.2,.47-.25,.7-.12,.41,.33,.88,.6,1.37,.8,.23,.08,.36,.32,.32,.56l-1,4.48c-.03,.12,.03,.24,.13,.31h0c.1,.03,.2,.03,.3,0l3.13-.31c.3-.04,.55-.22,.69-.48l1.7-4.55c.14-.29,.38-.53,.68-.67,.33-.15,.67-.33,1-.52s.63-.38,.94-.6,.56-.19,.67,0l1.61,2.45s.04,.06,.07,.08c.18,.07,.39,0,.5-.16l3.45-3.63c.2-.2,.29-.47,.26-.75l-1-3.24c-.04-.28,.02-.56,.18-.79,.58-.88,1.11-1.8,1.58-2.74,.17-.28,.44-.48,.75-.56l2.94-.71c.3-.07,.54-.27,.67-.55l1.48-5c.05-.15-.02-.32-.16-.39l-.03,.11Zm-11.62,9.55c-1.09,1.24-2.5,2.16-4.08,2.64h-.29l-.28,.05h-.62c-1.32,.03-2.52-.77-3-2-.24-.52-.38-1.07-.43-1.64-.04-.3-.06-.61-.05-.91,.24-3.29,1.64-6.39,3.93-8.76,.7-.75,1.5-1.4,2.38-1.92,.25-.15,.52-.29,.79-.4,.69-.33,1.45-.49,2.22-.47h.37c1.12,.17,2.06,.94,2.46,2,1.33,2.89-.19,8.02-3.4,11.41Z"/>
    </g>
    <g id="freepik--Code--inject-2">
      <path class="cls-16" d="M251.99,184.02l93.16-53.79c1.2-.69,2.17-.13,2.17,1.25v84.11c-.08,1.52-.89,2.92-2.17,3.75l-93.16,53.8c-1.19,.69-2.16,.13-2.16-1.25v-84.13c.09-1.52,.89-2.91,2.16-3.74Z"/>
      <path class="cls-20" d="M250.47,185.63l-4.07-2.35c-.39,.65-.61,1.38-.64,2.14v84.11c-.05,.54,.18,1.07,.62,1.39,.4,.24,3.67,2.09,4,2.33-.42-.33-.64-.85-.59-1.38v-84.11c.04-.76,.28-1.49,.68-2.13Z"/>
      <path class="cls-18" d="M346.61,130.02c-.77-.47-3.61-2.08-4-2.29-.5-.24-1.1-.19-1.55,.14l-93.16,53.8c-.64,.39-1.17,.95-1.53,1.61l4.07,2.35c.36-.66,.89-1.22,1.52-1.62l93.17-53.79c.43-.31,.98-.38,1.48-.2Z"/>
      <path class="cls-10" d="M265.21,220.02c-.02-.57,.08-1.13,.29-1.66,.24-.54,.53-1.06,.85-1.56l14.8-24c.07-.11,.16-.21,.26-.3,.05-.05,.11-.1,.17-.14,.18-.14,.42-.14,.6,0,.17,.22,.26,.49,.23,.77v8.33c0,.66-.14,1.3-.43,1.89-.29,.57-.57,1.07-.83,1.51l-7,11.18,7,3.16c.29,.15,.57,.34,.83,.55,.34,.38,.5,.89,.43,1.39v8.33c0,.36-.08,.72-.23,1.05-.12,.29-.33,.53-.6,.7-.05,.03-.11,.06-.17,.07-.09,.02-.17,.02-.26,0l-14.8-6.89c-.32-.12-.62-.32-.85-.57-.24-.4-.34-.86-.29-1.32v-2.49Z"/>
      <path class="cls-10" d="M301.99,175.39c.14-.55,.34-1.08,.59-1.59,.24-.52,.64-.95,1.14-1.24l4.9-2.82c.18-.15,.43-.15,.61,0,.19,.22,.28,.5,.26,.79,0,.2-.03,.4-.08,.59l-13.3,56.9c-.13,.53-.32,1.04-.56,1.53-.25,.55-.66,1-1.18,1.3l-4.76,2.76c-.18,.15-.44,.15-.62,0-.19-.22-.28-.5-.25-.79,0-.2,.03-.4,.08-.59l13.17-56.84Z"/>
      <path class="cls-10" d="M331.94,184.02c.01,.57-.09,1.13-.29,1.66-.24,.54-.53,1.06-.85,1.55l-14.8,24c-.08,.11-.16,.21-.26,.3-.05,.05-.11,.09-.18,.13-.17,.15-.42,.15-.59,0-.18-.21-.27-.49-.24-.77v-8.33c0-.66,.14-1.3,.44-1.89,.29-.57,.56-1.07,.83-1.51l6.94-11.18-6.94-3.16c-.3-.15-.58-.34-.83-.56-.34-.38-.51-.88-.44-1.39v-8.32c0-.35,.09-.69,.24-1,.12-.29,.33-.53,.59-.7,.05-.04,.12-.06,.18-.08,.09-.01,.17-.01,.26,0l14.8,6.89c.82,.23,1.32,1.06,1.14,1.89v2.47Z"/>
    </g>
    <g id="freepik--Image--inject-2">
      <path class="cls-22" d="M239.74,191.95c-.48-.17-1.02-.1-1.44,.2l-93.17,53.79c-1.27,.84-2.08,2.23-2.16,3.75v84.11c-.05,.53,.17,1.05,.59,1.38-.37-.24-3.64-2.09-4-2.33-.44-.32-.67-.85-.62-1.39v-84.11c.08-1.52,.89-2.92,2.17-3.75l93.16-53.8c.45-.33,1.05-.38,1.55-.14,.31,.21,3.15,1.82,3.92,2.29Z"/>
      <path class="cls-22" d="M145.13,245.94l93.16-53.79c1.2-.69,2.17-.13,2.17,1.25v84.11c-.08,1.52-.89,2.92-2.17,3.75l-93.16,53.76c-1.19,.69-2.16,.13-2.16-1.25v-84.08c.08-1.52,.89-2.91,2.16-3.75Z"/>
      <path class="cls-26" d="M143.61,247.56l-4.07-2.35c-.39,.65-.61,1.38-.64,2.14v84.11c-.05,.54,.18,1.07,.62,1.39,.4,.24,3.67,2.09,4,2.33-.42-.33-.64-.85-.59-1.38v-84.11c.04-.76,.28-1.49,.68-2.13Z"/>
      <path class="cls-7" d="M239.87,191.84c-.77-.47-3.61-2.08-4-2.29-.5-.24-1.1-.19-1.55,.14l-93.16,53.8c-.64,.4-1.17,.95-1.53,1.61l4.07,2.35c.36-.66,.89-1.22,1.52-1.62l93.17-53.79c.43-.31,.98-.38,1.48-.2Z"/>
      <path class="cls-11" d="M203.95,273.84l7.36,10.35-33.27-30.28-35.07,59.4v20.5c0,1.38,1,1.94,2.16,1.25l93.16-53.8c1.28-.83,2.09-2.23,2.17-3.75v-11.26l-24.85-17.86-11.66,25.45Z"/>
      <path class="cls-11" d="M207.96,224.02c4.35-2.51,7.87-.47,7.87,4.54-.3,5.54-3.22,10.6-7.87,13.63-4.34,2.51-7.86,.47-7.86-4.54,.3-5.54,3.22-10.6,7.86-13.63Z"/>
      <path class="cls-21" d="M239.26,192.85c.19,0,.2,.49,.2,.55v84.11c-.08,1.17-.7,2.23-1.67,2.89l-93.18,53.79c-.14,.09-.3,.15-.46,.16-.2,0-.2-.49-.2-.54v-84.12c.08-1.16,.69-2.22,1.66-2.88l93.18-53.79c.14-.09,.3-.15,.47-.16m0-1c-.35,0-.7,.11-1,.3l-93.16,53.79c-1.27,.84-2.08,2.23-2.16,3.75v84.12c0,1,.49,1.54,1.2,1.54,.35,0,.7-.1,1-.29l93.16-53.8c1.28-.83,2.09-2.23,2.17-3.75v-84.12c0-1-.49-1.55-1.2-1.55h0Z"/>
    </g>
  </g>
  <g id="freepik--Wrench--inject-2">
    <path class="cls-19" d="M189.13,374.08c-1.74,1-5,.95-6,2.14v4.29l19.9-2.91,7.53,4.41-2.86,6-20.09-1.36v4.28c.42,.3,.87,.59,1.35,.87,8.4,4.92,22.14,5,30.67,.13,4.31-2.45,6.46-5.67,6.46-8.9h0v-4.27l-1.18,.19-.14-.24,75.32-43.48c7.62,1.61,16.49,.67,22.67-2.84,3.2-1.82,5.21-4.06,6-6.42v-4.29l-19.9,7.19-7.53-4.41,2.86-6,20.1-2.94v-4.29s-23.49-1.56-32,3.29c-2.18,1.14-4.01,2.84-5.32,4.92l-1.14-.42v4.26h0c-.02,1.59,.43,3.14,1.3,4.47l-75.31,43.48c-7.64-1.59-16.52-.66-22.69,2.85Z"/>
    <polygon class="cls-15" points="300.04 335.23 300.04 330.94 224.73 374.42 224.72 378.71 300.04 335.23"/>
    <path class="cls-17" d="M287.12,323.48l-75.32,43.48c-7.62-1.61-16.5-.68-22.67,2.83-3.2,1.82-5.21,4.07-6,6.43l19.9-2.91,7.53,4.41-2.86,6-20.09,2.93c.42,.29,.87,.58,1.35,.86,8.4,4.93,22.14,5,30.67,.14,6.26-3.56,8-8.76,5.15-13.23l75.31-43.48c7.62,1.61,16.5,.68,22.67-2.83,3.2-1.82,5.21-4.07,6-6.43l-19.9,2.91-7.53-4.41,2.86-6,20.1-2.95c-.42-.29-.87-.58-1.35-.86-8.4-4.93-22.14-5-30.67-.14-6.27,3.58-7.98,8.79-5.15,13.25Z"/>
    <polygon class="cls-15" points="302.92 321.11 301.32 320.17 304.18 314.2 324.28 311.25 324.28 315.54 304.18 318.48 302.92 321.11"/>
  </g>
  <g id="freepik--Character--inject-2">
    <polygon class="cls-9" points="389.39 70.64 391.23 80.83 401.44 81.34 399.08 67.8 389.39 70.64"/>
    <path class="cls-19" d="M381.86,55.8c-1.25-2.88-.94-6.2,.83-8.8,3.52-5.46,10.72-8.17,18.69-6,4,1.08,9,5.18,9.46,14.71,.3,5.86-16,10.09-15.65,14.1l-13.33-14.01Z"/>
    <path class="cls-2" d="M381.5,58.02s-2.24,3.54-1.93,3.9c.55,.34,1.16,.59,1.79,.72l.14-4.62Z"/>
    <path class="cls-9" d="M386.38,47.62c-2.22,1.21-5,3.22-5.26,11-.23,8.55,1,11.09,2.2,12.18,.8,.73,5,.65,7.09-.05,2.62-.87,8.5-3.32,11.07-7.76,3-5.22,3.53-12.1-.15-14.71-5.19-3.67-13.07-1.68-14.95-.66Z"/>
    <path class="cls-19" d="M384.22,47.58s-3.58,7.76,4.1,12.22c0,0,1.3-3,3.92-2.24s2.47,4.31,.45,6.13-3.14,.67-3.14,.67c.13,2.08,1.07,4.03,2.62,5.43,5.12,2.42,11.23,1.06,14.84-3.3,6.13-6.84,5.06-18.85-4.26-21.73s-18.53,2.82-18.53,2.82Z"/>
    <path class="cls-19" d="M422.35,78.94h0c-5.71,.36-10.63-3.97-11-9.67l-1.2-17.75h0c5.71-.37,10.63,3.96,11,9.67l1.2,17.75Z"/>
    <path class="cls-9" d="M413.61,220.68l-.27-8.83,7.32-1.26,.42,7.53c.35,1.76,1.6,2.33,1.91,3.32,.31,.99-5,11.09-8,13.33s-7.81-.63-8.29-1.71,4-.27,4.71-1.81c.96-2.08,2.2-10.57,2.2-10.57Z"/>
    <path class="cls-19" d="M421.73,219.59c-1,.8-1.7,2.82-3,5.59s-3.22,7.27-5.27,7.91c-2.4,.74-7.1-.62-4.1-.85,.66-.05,1.8-.3,2.11-1,.11-.25,.21-.51,.29-.77-1.04,.29-2.12,.39-3.2,.3-1.84-.08-3.2,.34-4.16,1.79-.5,.75,.3,2,.3,2,.91,1.13,2.63,2.24,6.57,2.54s6.28-.28,7.69-3c1.72-3.24,4.76-6.69,6-8.52,1.44-2.16-.94-5.4-3.23-5.99Z"/>
    <path class="cls-9" d="M411.61,230.64c-.24,.61-2,.79-2.84,.91s-1.27,.91,.13,1.36c2.44,.26,3.63-2.31,2.71-2.27Z"/>
    <path class="cls-9" d="M407.46,75.08c3.08-.61,6.42,2.87,8.07,5.67s9.85,17.41,10.76,19.87,1.19,3-1.95,6.22-13.43,12.18-13.43,12.18l-3.44-7.06,8.78-9.93-9.76-14.19,.97-12.76Z"/>
    <path class="cls-21" d="M405.82,75.02s3.29-.75,5,.35c2.47,1.79,4.48,4.15,5.86,6.87,2,3.56,6.87,12.48,6.87,12.48-1.7,3.26-4.82,5.54-8.45,6.16l-6.42-8.22-2.86-17.64Z"/>
    <path class="cls-23" d="M405.82,75.02s3.29-.75,5,.35c2.47,1.79,4.48,4.15,5.86,6.87,2,3.56,6.87,12.48,6.87,12.48-1.7,3.26-4.82,5.54-8.45,6.16l-6.42-8.22-2.86-17.64Z"/>
    <path class="cls-15" d="M421.24,214.47s-4.44,2-8.24,1.19c0,0-3.38-12.17-7-26.59-3.65-14.66-7.52-31.64-8.29-40.49-1-12,1.56-28.37,3.31-37.44,.79-4.15,1.41-6.79,1.41-6.79l5.62-.62c1.46,2.07,3,4,4.52,6,2.56,3.14,4.54,6.71,5.84,10.55v.11c3.89,12.81-3.05,37.64-3.68,47.51,2.43,3.46,3.91,7.5,4.28,11.72,.52,4.06,2.23,34.85,2.23,34.85Z"/>
    <path class="cls-9" d="M395.77,229.46l-.27-8.82,7.32-1.27,.42,7.53c.35,1.76,1.6,2.33,1.91,3.32s-5,11.1-8,13.33-7.81-.63-8.29-1.71,4-.27,4.71-1.81c1.04-2.08,2.2-10.57,2.2-10.57Z"/>
    <path class="cls-19" d="M403.89,228.37c-1,.8-1.71,2.82-3,5.59s-3.21,7.27-5.27,7.91c-2.39,.75-7.09-.62-4.09-.85,.65-.05,1.8-.3,2.1-1,.12-.25,.22-.5,.29-.77-1.04,.29-2.12,.39-3.19,.3-1.84-.08-3.2,.34-4.16,1.79-.5,.75,.3,2,.3,2,.91,1.13,2.63,2.24,6.57,2.55,3.79,.29,6.27-.29,7.69-3,1.71-3.25,4.75-6.7,6-8.52,1.42-2.16-.96-5.41-3.24-6Z"/>
    <path class="cls-9" d="M393.84,239.42c-.24,.61-2,.79-2.84,.91s-1.27,.92,.13,1.37c2.42,.26,3.61-2.32,2.71-2.28Z"/>
    <path class="cls-17" d="M418.44,120.29c-.79,4.77-2.95,10-10.45,14.2-1.33,14.59-4.39,28-5,37,1.88,2.97,3.02,6.35,3.34,9.85,.05,1-.09,3.89-.34,7.76-.78,12.28-2.58,34.19-2.58,34.19,0,0-4.43,1.95-8.24,1.19,0,0-8-53.44-10.28-70.9-1.64-12.63-1.92-25.41-.84-38.1l17-4.31,11.55-1.4c2.56,3.13,4.53,6.69,5.84,10.52Z"/>
    <path class="cls-21" d="M410.28,103.73c0-.08,.86-5.88,1.71-11.13,1.37-8.36-4.34-17.5-4.53-17.52-2.37-.12-4.74-.09-7.1,.09,0,0-.11,1.39-3,1.95-2.29,.48-4.67,.34-6.89-.38-.54,0-6.81,.49-5.42,.39,.07,.51-5.13,12.49-5.13,12.49-1.88,2.6-1.96,6.09-.2,8.78,.75,1.2,1.72,2.25,2.87,3.07,.45,3.27,.85,6.15,.85,6.15l-.05,16.4s7.57,1.93,19.92-.43c10.45-2,13.94-7.08,13.94-7.08l-6.97-12.78Z"/>
    <path class="cls-9" d="M385.07,77.13c-6.66,.36-6.31,.83-14.75,6.11-7.88,4.92-15.41,9.15-15.41,9.15l-21.25-6.24c-.95-.46-1.74-1.21-2.25-2.13-1.26-2.09-2.78-2.81-4.38-4.39-1.26-1.23-1.56-2.27-2-2.12-.93,.47-1.34,1.58-.94,2.55,.39,1.06,.91,2.07,1.54,3-1.79-.79-3.46-1.83-4.95-3.1-3.5-2.94-6.08-4.34-6.22,1.5-.09,3.66,2.91,7.82,10.94,10.69,2.31,.83,5.9,1.38,8.93,2.62h0c7.81,3.43,19.41,8.29,21.85,8.05,1.75-.17,25.63-11.19,25.63-11.19,3.24-4.08,4.44-9.42,3.26-14.5Z"/>
    <path class="cls-21" d="M386.61,77.02c-3.45-.33-6.92,.34-10,1.94-5.37,2.79-16,9.81-16,9.81,0,0,.89,9.05,5,10.88l17.87-7.5s6.37-7.2,3.13-15.13Z"/>
    <path class="cls-23" d="M386.61,77.02c-3.45-.33-6.92,.34-10,1.94-5.37,2.79-16,9.81-16,9.81,0,0,.89,9.05,5,10.88l17.87-7.5s6.37-7.2,3.13-15.13Z"/>
  </g>
</svg>