<?xml version="1.0" encoding="UTF-8"?>
<svg id="Layer_1" data-name="Layer 1" xmlns="http://www.w3.org/2000/svg" viewBox="0 0 416.14 390.61">
  <defs>
    <style>
      .cls-1, .cls-2 {
        opacity: .1;
      }

      .cls-3 {
        fill: #ebebeb;
      }

      .cls-4 {
        fill: #f28f8f;
      }

      .cls-5 {
        fill: #e6e6e6;
      }

      .cls-6 {
        fill: #f5f5f5;
      }

      .cls-7, .cls-8, .cls-9 {
        fill: #fff;
      }

      .cls-10 {
        fill: #ffa8a7;
      }

      .cls-11 {
        fill: #fafafa;
      }

      .cls-12 {
        fill: #e0e0e0;
      }

      .cls-13 {
        fill: #37474f;
      }

      .cls-14 {
        fill: #455a64;
      }

      .cls-15 {
        fill: #263238;
      }

      .cls-16 {
        fill: #36c727;
      }

      .cls-2, .cls-8, .cls-9, .cls-17 {
        isolation: isolate;
      }

      .cls-8 {
        opacity: .7;
      }

      .cls-9 {
        opacity: .4;
      }

      .cls-17 {
        opacity: .15;
      }
    </style>
  </defs>
  <g id="freepik--Floor--inject-2">
    <path class="cls-6" d="M60.94,360.7c81.26,39.87,213,39.88,294.26,0s81.25-104.53,0-144.41-213-39.88-294.26,0-81.25,104.53,0,144.41Z"/>
  </g>
  <g id="freepik--Shadow--inject-2">
    <ellipse class="cls-5" cx="348.49" cy="322.06" rx="33.01" ry="15.73"/>
  </g>
  <g id="freepik--Device--inject-2">
    <g id="freepik--device--inject-2">
      <path class="cls-15" d="M206.85,181.42l-37.49,21.65c-1.52,1-2.6,2.54-3,4.32l-9.32,53.81c-.22,1.7,.56,3.38,2,4.32l24.18,14c1.57,.79,3.43,.79,5,0l51.68-29.84c2.31-1.23,3.19-4.1,1.96-6.41-.44-.83-1.13-1.52-1.96-1.96l-18.54-10.77c-1.51-.99-2.53-2.57-2.82-4.35l-4.18-40.61c-.25-1.73-1.22-3.27-2.66-4.25-1.54-.75-3.34-.71-4.85,.09Z"/>
      <path class="cls-14" d="M185.73,270.02v10.06c.88,.02,1.74-.19,2.52-.6l51.68-29.84c1.46-.91,2.4-2.46,2.52-4.18-.06-.99-.4-1.94-1-2.73h-8.46l-47.26,27.29Z"/>
      <path class="cls-15" d="M211.57,184.14l-37.5,21.66c-1.52,1-2.6,2.54-3,4.32l-8.47,48.84c-.22,1.71,.56,3.39,2,4.33l18.59,10.73c1.57,.79,3.43,.79,5,0l51.74-29.88c1.4-.8,1.4-2.1,0-2.91l-18.57-10.69c-1.51-.99-2.53-2.57-2.82-4.35l-4.18-40.61c.02-.97-.75-1.76-1.72-1.78-.39,0-.76,.11-1.07,.34Z"/>
      <path class="cls-13" d="M239.93,241.27l-18.57-10.73c-.75-.47-1.38-1.1-1.85-1.85l-56.56,32.65c.34,.81,.93,1.49,1.67,1.95l18.59,10.73c1.57,.79,3.43,.79,5,0l51.72-29.88c1.43-.76,1.43-2.06,0-2.87Z"/>
      <path class="cls-14" d="M87.67,288.44l-2.4-1.39c-2.08-1.36-3.4-3.63-3.53-6.11V119.94c.13-2.48,1.45-4.75,3.53-6.1L282.03,.84c2.22-1.12,4.84-1.12,7.06,0l1.83,1c2.08,1.36,3.39,3.63,3.53,6.11V169.05c-.13,2.48-1.45,4.75-3.53,6.11l-196.19,113.28c-2.22,1.12-4.84,1.12-7.06,0Z"/>
      <path class="cls-15" d="M95.92,124l-13.14-7.59c-.62,1.06-.97,2.25-1,3.48v161.05c.13,2.48,1.45,4.75,3.53,6.11l2.4,1.39c2.22,1.12,4.84,1.12,7.06,0l1.19-.7-.04-163.74Z"/>
      <path class="cls-13" d="M91.2,286.4V125.4c.13-2.48,1.45-4.75,3.53-6.11L290.92,5.96c1.95-1.12,3.53-.21,3.53,2V169.05c-.13,2.48-1.45,4.75-3.53,6.11l-196.19,113.28c-1.95,1.12-3.53,.21-3.53-2.04Z"/>
      <path class="cls-12" d="M183.36,226.37l18.59-10.74c1.39-.8,2.52-.23,2.52,1.28-.12,1.72-1.06,3.27-2.52,4.18l-18.59,10.74c-1.4,.8-2.52,.23-2.52-1.28,.12-1.72,1.06-3.27,2.52-4.18Z"/>
      <path class="cls-7" d="M100.24,124.14L285.01,17.14c1.11-.64,2-.12,2,1.16V158.71c-.07,1.41-.82,2.71-2,3.49l-184.77,106.68c-1.12,.64-2,.12-2-1.17V127.71c.05-1.44,.79-2.77,2-3.57Z"/>
    </g>
  </g>
  <g id="freepik--Window--inject-2">
    <g id="freepik--Tab--inject-2">
      <path class="cls-12" d="M113.56,127.67L307.47,15.67c3.08-1.77,5.6-.32,5.6,3.23v126.55c-.1,1.83-1.07,3.5-2.6,4.5l-197.91,114.27c-1.43,.83-2.6,.15-2.6-1.5V133.91c.14-2.53,1.48-4.85,3.6-6.24Z"/>
      <path class="cls-16" d="M313.07,21.85v-2.92c0-3.55-2.52-5-5.6-3.23L113.56,127.7c-2.12,1.39-3.46,3.71-3.6,6.24v5.2L313.07,21.85Z"/>
      <path class="cls-7" d="M289.6,28.51c-1.14,.74-1.85,1.98-1.92,3.33,0,1.23,.86,1.73,1.92,1.12,1.14-.74,1.86-1.98,1.93-3.34,0-1.23-.86-1.73-1.93-1.11Z"/>
      <path class="cls-7" d="M297.25,24.14c-1.11,.74-1.81,1.96-1.89,3.29,0,1.23,.86,1.73,1.93,1.11,1.14-.74,1.85-1.98,1.93-3.34-.04-1.23-.86-1.72-1.97-1.06Z"/>
      <path class="cls-7" d="M304.9,19.68c-1.14,.74-1.86,1.98-1.93,3.33,0,1.23,.86,1.73,1.93,1.12,1.13-.74,1.85-1.98,1.92-3.34,0-1.23-.86-1.73-1.92-1.11Z"/>
    </g>
  </g>
  <g id="freepik--Charts--inject-2">
    <g id="freepik--Graphics--inject-2">
      <path class="cls-3" d="M300.82,44.08c-.16-.53-.66-.7-1.25-.36l-123.32,71.21c-.39,.25-.71,.59-.92,1l-4.06-2.35c.21-.41,.53-.75,.92-1l123.32-71.2c.82-.42,1.78-.42,2.6,0l1.46,.84c.65,.42,1.1,1.1,1.25,1.86Z"/>
      <path class="cls-11" d="M300.87,44.47v53.29c-.05,.91-.53,1.75-1.3,2.25l-123.32,71.2-.18,.09c-.08,.03-.16,.06-.24,.07h0c-.49,.07-.84-.28-.84-.92v-53.31c.02-.45,.15-.89,.38-1.28,.21-.41,.53-.75,.92-1l123.32-71.21c.59-.34,1.09-.17,1.25,.36,0,.03,0,.07,0,.1,.02,.12,.02,.24,0,.36Z"/>
      <path class="cls-12" d="M175.79,171.38c-.4,.12-.82,.16-1.23,.11-.32-.03-.63-.12-.91-.28l-1.46-.84c-.77-.5-1.25-1.34-1.3-2.25v-53.29c.01-.45,.14-.89,.38-1.28l4.06,2.35c-.23,.39-.36,.83-.38,1.28v53.28c0,.68,.35,.99,.84,.92Z"/>
      <path class="cls-16" d="M297.04,73.02c-.24-.13-.55-.03-.68,.21,0,0,0,0,0,0l-4.36,8.63c-.12-.17-.28-.32-.46-.43-.62-.31-1.36-.25-1.93,.14-1.18,.76-1.99,1.98-2.24,3.37l-8.38-1.36c-.05-.54-.34-1.03-.8-1.32-.62-.31-1.37-.25-1.94,.14-.5,.31-.94,.71-1.28,1.19l-10.61-9.7c.29-.59,.45-1.23,.47-1.89,.13-.95-.53-1.82-1.48-1.95-.46-.06-.94,.06-1.3,.35-1.35,.87-2.2,2.34-2.28,3.95-.05,.68,.26,1.34,.83,1.73l-7.55,22.73c-.54-.12-1.11-.01-1.57,.29-.77,.48-1.39,1.18-1.78,2l-9.08-6.55v-.13c.13-.95-.53-1.82-1.48-1.95-.46-.06-.94,.06-1.3,.35-1.37,.88-2.22,2.38-2.28,4-.01,.45,.11,.89,.35,1.27l-7.35,21.54c-.36,.03-.7,.15-1,.34-1.26,.81-2.09,2.15-2.26,3.64l-11.38,6.52c-.1-.41-.36-.77-.72-1-.63-.31-1.37-.25-1.94,.15-1.02,.66-1.77,1.66-2.11,2.83l-7.35-3c.03-.2,.05-.39,.05-.59,.14-.95-.52-1.82-1.46-1.96-.47-.07-.94,.06-1.32,.35-1.35,.87-2.2,2.34-2.28,3.95,0,.29,.05,.58,.15,.86l-8.39,16.05c-.56-.16-1.17-.07-1.66,.25-1.26,.81-2.09,2.16-2.26,3.65l-5.87,3.46c-.24,.14-.32,.45-.18,.69,.09,.15,.25,.25,.43,.25,.09,0,.17-.03,.25-.07l5.47-3.16c.1,.41,.36,.77,.72,1,.24,.13,.51,.2,.78,.2,.41-.01,.81-.13,1.16-.34,1.37-.88,2.22-2.38,2.28-4,.01-.43-.1-.85-.33-1.21l8.28-15.82h0c.23,.14,.5,.21,.77,.2,.41,0,.81-.13,1.16-.34,.89-.57,1.57-1.41,1.95-2.4l7.47,3v.11c-.06,.69,.26,1.36,.84,1.75,.24,.13,.51,.2,.78,.2,.41-.01,.81-.13,1.16-.35,1.26-.81,2.09-2.15,2.26-3.64l11.35-6.53c.1,.41,.36,.77,.72,1,.24,.14,.51,.21,.78,.21,.41-.01,.81-.14,1.16-.35,1.35-.87,2.2-2.34,2.28-3.95,.05-.66-.24-1.29-.77-1.69l7.23-21.17c.14,.04,.28,.06,.42,.06,.41-.01,.81-.14,1.16-.35,.99-.64,1.72-1.6,2.07-2.73l8.92,6.42c-.09,.33-.14,.66-.14,1-.06,.69,.26,1.36,.84,1.75,.24,.13,.51,.2,.78,.2,.41-.01,.81-.13,1.16-.35,1.37-.88,2.22-2.38,2.28-4,.01-.45-.11-.89-.36-1.27l7.69-23.16c.35-.03,.69-.13,1-.31,.5-.31,.94-.71,1.29-1.19l10.63,9.69c-.3,.59-.46,1.23-.48,1.89-.06,.69,.26,1.36,.84,1.75,.24,.14,.51,.21,.78,.2,.41,0,.81-.13,1.16-.34,1.18-.76,1.99-1.98,2.23-3.37l8.39,1.37c.05,.54,.34,1.02,.8,1.31,.24,.14,.51,.21,.78,.21,.41-.01,.81-.14,1.16-.35,1.31-.85,2.15-2.26,2.27-3.81l4.88-9.64c.12-.25,.02-.55-.23-.67-.01,0-.03-.01-.04-.02Zm-110.15,79.75c-.27,.2-.62,.25-.94,.14-.26-.22-.39-.55-.35-.88,.07-1.25,.72-2.39,1.76-3.09,.2-.12,.42-.19,.65-.21,.1,0,.19,.02,.28,.07,.26,.22,.39,.55,.35,.88-.07,1.25-.72,2.39-1.75,3.09Zm12.18-21.11c-.27,.2-.62,.25-.93,.14-.26-.22-.39-.55-.35-.88,.08-1.25,.74-2.39,1.78-3.08,.2-.13,.43-.2,.66-.21,.1,0,.19,.02,.28,.06,.26,.22,.38,.55,.34,.89-.08,1.25-.74,2.39-1.78,3.08h0Zm12.19,2.35c-.27,.2-.62,.25-.94,.14-.25-.22-.38-.55-.34-.88,.06-1.27,.72-2.43,1.78-3.13,.2-.13,.43-.2,.66-.21,.1,0,.19,.02,.28,.07,.25,.22,.38,.55,.34,.88-.06,1.27-.72,2.43-1.78,3.13h0Zm16.25-9.38c-.27,.2-.62,.25-.94,.14-.26-.22-.39-.55-.35-.88,.08-1.25,.74-2.4,1.79-3.09,.19-.13,.42-.2,.65-.21,.1,0,.2,.02,.28,.07,.26,.22,.39,.55,.35,.88-.08,1.25-.73,2.4-1.78,3.09Zm10.32-27.1c-.27,.2-.62,.25-.94,.14l-.08-.07h0c-.18-.22-.26-.51-.24-.79,.08-1.25,.73-2.4,1.78-3.09,.19-.13,.42-.2,.65-.21,.1,0,.19,.02,.28,.07,.26,.22,.39,.55,.35,.88-.09,1.25-.75,2.38-1.8,3.07Zm13.63,6.27c-.27,.2-.62,.25-.94,.14-.25-.22-.38-.55-.34-.88,.08-1.25,.73-2.4,1.78-3.09,.2-.13,.43-.2,.66-.21,.1,0,.19,.02,.28,.07,.03,.02,.07,.06,.09,.09h0c.19,.22,.28,.5,.25,.79-.08,1.25-.73,2.4-1.78,3.09Zm10.57-28.66c-.27,.2-.62,.25-.93,.14-.26-.22-.39-.55-.35-.88,.08-1.25,.73-2.4,1.78-3.09,.2-.12,.43-.19,.66-.21,.1,0,.19,.02,.28,.07,.25,.22,.38,.55,.34,.88-.08,1.25-.73,2.4-1.78,3.09Zm14.22,12c-.27,.2-.62,.25-.94,.14-.25-.22-.38-.55-.34-.88,.08-1.25,.74-2.39,1.78-3.08,.2-.13,.43-.2,.66-.21,.1,0,.19,.02,.28,.07,.22,.12,.34,.44,.34,.88-.08,1.25-.74,2.39-1.78,3.08Zm13.36-.83c-.27,.21-.62,.26-.94,.15-.26-.22-.39-.55-.35-.89,.08-1.25,.74-2.39,1.79-3.08,.19-.13,.42-.2,.65-.21,.1,0,.2,.02,.28,.07,.26,.22,.39,.55,.35,.88-.09,1.23-.75,2.36-1.78,3.04v.04Z"/>
      <path class="cls-3" d="M227.71,151.96c-.16-.53-.67-.7-1.25-.36l-50.21,29c-.4,.24-.73,.59-.95,1l-4.05-2.37c.22-.41,.54-.75,.94-1l50.2-29c.82-.42,1.78-.42,2.6,0l1.47,.84c.65,.44,1.1,1.12,1.25,1.89Z"/>
      <path class="cls-11" d="M227.76,152.35v39.22c-.05,.91-.53,1.75-1.29,2.25l-47.45,27.39-2.76,1.6-.2,.1h0c-.62,.22-1.07-.13-1.07-.86v-39.21c.01-.43,.13-.85,.35-1.22,.22-.41,.55-.76,.95-1l50.21-29c.58-.34,1.09-.17,1.25,.36v.1c.01,.09,.02,.18,.01,.27Z"/>
      <path class="cls-12" d="M176.02,222.92l-.16,.06c-.07,.03-.14,.05-.22,.06-.11,.03-.23,.05-.34,.06h-.34c-.24,0-.47-.03-.7-.08-.21-.05-.42-.13-.61-.23l-1.46-.85c-.77-.5-1.25-1.34-1.3-2.25v-39.19c.02-.44,.14-.87,.36-1.25l4.05,2.37c-.22,.37-.34,.79-.35,1.22v39.22c0,.73,.41,1.08,1.07,.86Z"/>
      <path class="cls-16" d="M179.01,215.52v-26.14c.03-.61,.36-1.17,.87-1.5l2.33-1.35c.48-.27,.86,0,.86,.5v26.11c-.03,.61-.35,1.17-.86,1.5l-2.33,1.34c-.52,.32-.87,.09-.87-.46Z"/>
      <path class="cls-16" d="M187.14,210.83v-30.83c.03-.61,.35-1.17,.86-1.5l2.36-1.36c.48-.27,.87,0,.87,.5v30.83c-.03,.61-.35,1.17-.87,1.5l-2.33,1.35c-.51,.29-.89,.06-.89-.49Z"/>
      <path class="cls-16" d="M195.26,206.14v-14.8c.03-.61,.36-1.17,.87-1.5l2.33-1.34c.47-.28,.86-.05,.86,.5v14.79c-.03,.61-.35,1.17-.86,1.5l-2.33,1.35c-.48,.28-.87,.05-.87-.5Z"/>
      <path class="cls-16" d="M203.36,201.46v-19.19c.03-.61,.36-1.17,.87-1.5l2.33-1.35c.48-.27,.87-.05,.87,.5v19.22c-.03,.61-.35,1.17-.87,1.5l-2.33,1.35c-.46,.25-.87,.02-.87-.53Z"/>
      <path class="cls-16" d="M211.51,196.77v-6.53c.03-.61,.35-1.16,.86-1.5l2.34-1.35c.47-.27,.86-.05,.86,.5v6.53c-.03,.61-.35,1.16-.86,1.5l-2.35,1.35c-.46,.27-.85,.05-.85-.5Z"/>
      <path class="cls-16" d="M219.63,192.08v-21.46c.03-.61,.36-1.17,.87-1.5l2.33-1.34c.48-.28,.87,0,.87,.5v21.45c-.03,.61-.35,1.17-.87,1.5l-2.33,1.35c-.48,.27-.87,.05-.87-.5Z"/>
      <path class="cls-3" d="M300.82,109.74c-.16-.53-.67-.7-1.25-.36l-62.39,36c-.4,.24-.73,.59-.95,1l-4.05-2.37c.22-.41,.54-.75,.94-1l62.38-36c.82-.42,1.78-.42,2.6,0l1.47,.84c.65,.44,1.1,1.12,1.25,1.89Z"/>
      <path class="cls-11" d="M300.87,110.14v39.22c-.05,.91-.53,1.75-1.29,2.25l-59.63,34.43-2.76,1.6-.2,.1h0c-.62,.22-1.07-.13-1.07-.86v-39.22c.01-.43,.13-.85,.35-1.22,.22-.41,.55-.76,.95-1l62.39-36c.58-.34,1.09-.17,1.25,.36v.1c.01,.08,.01,.16,.01,.24Z"/>
      <path class="cls-12" d="M236.95,187.74l-.16,.06c-.07,.03-.14,.05-.22,.06-.11,.03-.23,.05-.34,.06h-.34c-.24,0-.47-.03-.7-.08-.21-.05-.42-.13-.61-.23l-1.46-.85c-.77-.5-1.25-1.34-1.3-2.25v-39.19c.02-.44,.14-.87,.36-1.25l4.05,2.37c-.22,.37-.34,.79-.35,1.22v39.22c0,.73,.48,1.08,1.07,.86Z"/>
      <path class="cls-16" d="M258.97,142.04l-3.23,12c-.3,.96-.77,1.86-1.38,2.66l-10.43,12.53c-1.36-.97-2.27-2.45-2.52-4.1-.73-4,1.33-9.54,5.36-14.39,.69-.82,1.39-1.59,2.11-2.32,2.82-2.89,6.27-5.08,10.09-6.38Z"/>
      <path class="cls-16" d="M267.66,157.2c-4.63,7.79-13.43,13.67-20,13.26-.9-.03-1.79-.23-2.62-.58l10.28-12.35c.55-.6,1.31-.95,2.12-1h.11l10.11,.67Z"/>
      <path class="cls-16" d="M266.77,141.84l-9.58,11.51,3.17-11.71c2.1-.66,4.36-.59,6.41,.2Z"/>
      <path class="cls-16" d="M268.36,156.02l-10.71-.66c-.12,0-.24-.04-.35-.08,.02-.07,.05-.14,.09-.2,.03-.04,.06-.08,.09-.12l10.43-12.53c3.39,2.34,3.57,7.58,.45,13.59Z"/>
      <path class="cls-16" d="M274.71,133.64c0,.72,.59,1,1.3,.55l19.5-11.26c.72-.43,1.2-1.17,1.3-2,0-.72-.58-1-1.3-.56l-19.5,11.26c-.72,.44-1.2,1.18-1.3,2.01Z"/>
      <path class="cls-12" d="M274.71,141.48c0,.72,.59,1,1.3,.55l19.5-11.25c.73-.44,1.22-1.21,1.3-2.06,0-.72-.58-1-1.3-.55l-19.5,11.25c-.73,.45-1.21,1.21-1.3,2.06Z"/>
      <path class="cls-12" d="M274.71,146.32c0,.72,.59,1,1.3,.55l19.5-11.26c.74-.44,1.22-1.2,1.3-2.05,0-.72-.58-1-1.3-.56l-19.5,11.26c-.73,.45-1.21,1.21-1.3,2.06Z"/>
      <path class="cls-12" d="M274.71,151.14c0,.72,.59,1,1.3,.56l19.5-11.26c.74-.44,1.22-1.2,1.3-2.06,0-.72-.58-1-1.3-.55l-19.5,11.31c-.72,.43-1.2,1.17-1.3,2Z"/>
      <path class="cls-12" d="M274.71,155.99c0,.72,.59,1,1.3,.56l19.5-11.26c.73-.44,1.22-1.21,1.3-2.06,0-.72-.58-1-1.3-.55l-19.5,11.26c-.73,.44-1.21,1.2-1.3,2.05Z"/>
      <path class="cls-3" d="M158.65,147.28c-.16-.54-.66-.71-1.25-.36l-34,19.6c-.38,.25-.7,.6-.92,1l-4.02-2.38c.22-.41,.53-.75,.92-1l34-19.61c.82-.41,1.78-.41,2.6,0l1.46,.85c.65,.44,1.08,1.13,1.21,1.9Z"/>
      <path class="cls-11" d="M158.7,147.67v11.07c-.05,.91-.53,1.75-1.3,2.25l-34,19.6-.24,.12h-.06c-.58,.17-1-.18-1-.89v-11.05c.01-.45,.14-.89,.38-1.28,.22-.4,.54-.75,.92-1l34-19.6c.59-.35,1.09-.18,1.25,.36,0,.03,0,.07,0,.1,.03,.1,.04,.21,.05,.32Z"/>
      <path class="cls-12" d="M123.14,180.73c-.16,.06-.32,.1-.49,.13-.51,.09-1.03,.05-1.52-.13l-.29-.14-1.46-.84c-.77-.5-1.25-1.34-1.3-2.25v-11.07c.02-.45,.15-.89,.38-1.28l4.06,2.34c-.24,.39-.37,.83-.38,1.28v11.07c0,.71,.42,1.06,1,.89Z"/>
      <path class="cls-3" d="M158.65,168.38c-.16-.54-.66-.71-1.25-.36l-34,19.6c-.38,.25-.7,.6-.92,1l-4.06-2.34c.22-.41,.53-.75,.92-1l34-19.61c.82-.41,1.78-.41,2.6,0l1.46,.85c.65,.42,1.1,1.1,1.25,1.86Z"/>
      <path class="cls-11" d="M158.7,168.77v11.07c-.04,.94-.54,1.8-1.34,2.3l-34,19.6-.24,.12h-.06c-.58,.17-1-.18-1-.89v-11.1c.01-.45,.14-.89,.38-1.28,.22-.4,.54-.75,.92-1l34-19.6c.59-.35,1.09-.18,1.25,.36,0,.03,0,.07,0,.1,.04,.1,.07,.21,.09,.32Z"/>
      <path class="cls-12" d="M123.14,201.83c-.16,.06-.32,.1-.49,.13-.51,.09-1.03,.05-1.52-.13l-.29-.14-1.46-.84c-.77-.5-1.25-1.34-1.3-2.25v-11.07c.02-.45,.15-.89,.38-1.28l4.06,2.34c-.24,.39-.37,.83-.38,1.28v11.07c0,.71,.42,1.06,1,.89Z"/>
      <path class="cls-3" d="M158.65,189.49c-.16-.54-.66-.71-1.25-.36l-34,19.6c-.38,.25-.7,.6-.92,1l-4.06-2.34c.22-.41,.53-.75,.92-1l34-19.61c.82-.41,1.78-.41,2.6,0l1.46,.85c.65,.42,1.1,1.1,1.25,1.86Z"/>
      <path class="cls-11" d="M158.7,189.88v11.07c-.05,.91-.53,1.75-1.3,2.25l-34,19.6-.24,.12h-.06c-.58,.17-1-.18-1-.89v-11.05c.01-.45,.14-.89,.38-1.28,.22-.4,.54-.75,.92-1l33.96-19.56c.59-.35,1.09-.18,1.25,.36,0,.03,0,.07,0,.1,.04,.09,.07,.18,.09,.28Z"/>
      <path class="cls-12" d="M123.14,222.94c-.16,.06-.32,.1-.49,.13-.51,.09-1.03,.05-1.52-.13l-.29-.14-1.46-.84c-.77-.5-1.25-1.34-1.3-2.25v-11.07c.02-.45,.15-.89,.38-1.28l4.06,2.34c-.24,.39-.37,.83-.38,1.28v11.07c0,.71,.42,1.09,1,.89Z"/>
      <path class="cls-3" d="M158.65,210.6c-.16-.54-.66-.71-1.25-.36l-34,19.6c-.38,.25-.7,.6-.92,1l-4.06-2.34c.22-.41,.53-.75,.92-1l34-19.61c.82-.41,1.78-.41,2.6,0l1.46,.85c.65,.42,1.1,1.1,1.25,1.86Z"/>
      <path class="cls-11" d="M158.7,210.99v11.07c-.05,.91-.53,1.75-1.3,2.25l-34,19.6-.24,.12h-.06c-.58,.17-1-.18-1-.89v-11c.01-.45,.14-.89,.38-1.28,.22-.4,.54-.75,.92-1l34-19.6c.59-.35,1.09-.18,1.25,.36,0,.03,0,.07,0,.1,.02,.09,.04,.18,.05,.27Z"/>
      <path class="cls-12" d="M123.14,244.05c-.16,.06-.32,.1-.49,.13-.51,.09-1.03,.05-1.52-.13l-.29-.14-1.46-.84c-.77-.5-1.25-1.34-1.3-2.25v-11.07c.02-.45,.15-.89,.38-1.28l4.06,2.34c-.24,.39-.37,.83-.38,1.28v11.05c0,.73,.42,1.08,1,.91Z"/>
      <path class="cls-16" d="M162.22,129.75s.09-.01,.13,0l-3.65-2.1v-1.13c0-.1,0-.19,0-.29,0-.03,0-.07,0-.1-.15-.76-.6-1.44-1.25-1.86l-1.46-.85c-.82-.41-1.78-.41-2.6,0l-34,19.61c-.77,.5-1.25,1.34-1.3,2.25v11.07c.05,.91,.53,1.75,1.3,2.25l1.46,.84,.29,.14c.49,.18,1.01,.22,1.52,.13,.17-.03,.33-.07,.49-.13h.06l.24-.12,34-19.6c.77-.5,1.25-1.34,1.3-2.25v-3.17l3.71-4.28c.09-.1,.08-.26-.02-.35-.06-.05-.14-.07-.22-.06Z"/>
      <path class="cls-2" d="M123.14,159.62c-.16,.06-.32,.1-.49,.13-.51,.09-1.03,.05-1.52-.13l-.29-.14-1.48-.84c-.77-.5-1.25-1.34-1.3-2.25v-11.07c.02-.45,.15-.89,.38-1.28l4.06,2.34c-.24,.39-.37,.83-.38,1.28v11.07c.02,.71,.44,1.06,1.02,.89Z"/>
      <path class="cls-9" d="M158.65,126.14c-.16-.54-.66-.71-1.25-.36l-34,19.6c-.38,.25-.7,.6-.92,1l-4.06-2.34c.22-.41,.53-.75,.92-1l34-19.61c.82-.41,1.78-.41,2.6,0l1.46,.85c.65,.42,1.1,1.1,1.25,1.86Z"/>
      <path class="cls-9" d="M162.22,129.75h-3.52v-2.06l3.65,2.1s-.08-.04-.13-.04Z"/>
    </g>
  </g>
  <g id="freepik--Plants--inject-2">
    <g id="freepik--plants--inject-2">
      <path class="cls-16" d="M52.75,308.46l7-4s3.37-18.54,.85-34.47c-3.54-22.4-18.79-30.13-24.33-27.91s-6.84,8.87,3.16,21.81c5.93,7.64,13.51,23.78,13.32,44.57Z"/>
      <g class="cls-1">
        <path d="M52.75,308.46l7-4s3.37-18.54,.85-34.47c-3.54-22.4-18.79-30.13-24.33-27.91s-6.84,8.87,3.16,21.81c5.93,7.64,13.51,23.78,13.32,44.57Z"/>
      </g>
      <path class="cls-7" d="M55.29,299.57h-.07c-.27-.04-.46-.29-.42-.56,2.9-21-5.54-43.95-15-53.21-.2-.19-.2-.51,0-.71,0,0,0,0,0,0,.19-.19,.5-.2,.69,0,0,0,0,0,0,0,9.65,9.43,18.25,32.78,15.31,54.07-.05,.25-.27,.42-.52,.41Z"/>
      <path class="cls-16" d="M33.29,319.71c-1.1,.63-3.39-.76-4.26-1.35-1.5-1.01-2.71-2.39-3.52-4-.92-1.86-1.22-3.96-.88-6,.18-1.07,.43-2.13,.75-3.16,.3-1,.59-2.05,.88-3.07,.36-.99,.51-2.05,.45-3.1-.26-2.1-2.13-3.57-3.82-4.84-1.88-1.41-3.83-3.26-3.82-5.79,.14-1.96,.93-3.82,2.23-5.3,1.21-1.53,2.64-2.88,3.74-4.5,.87-1.12,1.34-2.5,1.32-3.92-.12-.87-.41-1.7-.86-2.45-1.02-1.57-1.92-3.22-2.69-4.93-.61-1.77-.52-4,.86-5.23,1.25-.93,2.81-1.32,4.35-1.09,1.42,.19,2.78,.67,4,1.43,4,2.23,6.31,7,10.57,8.7,1.69,.53,3.41,.95,5.15,1.27,1.77,.32,3.32,1.38,4.26,2.91,1.56,3.12-1.34,7-.24,10.29,1,2.93,3.82,4.06,5.42,6.7,.66,1.16,.92,2.51,.75,3.84-.14,2.25-.68,4.45-1.62,6.5-1.04,2.03-2.23,3.98-3.56,5.84-.07,.07-19.29,11.15-19.46,11.25Z"/>
      <path class="cls-7" d="M44.68,313.64h0c-.28-.01-.49-.24-.48-.52,0,0,0,0,0,0,.82-19.85-8.53-41.77-15.33-48.14-.19-.19-.19-.51,0-.7,.2-.19,.51-.19,.71,0,6.94,6.5,16.48,28.78,15.65,48.91-.03,.27-.27,.48-.55,.45,0,0,0,0,0,0Z"/>
      <path class="cls-7" d="M41.7,290.19s-.09,.01-.14,0c-4.71-1.29-9.54-2.07-14.41-2.32-.28-.01-.49-.24-.48-.52,0,0,0,0,0,0,0-.27,.23-.49,.5-.48,0,0,.01,0,.02,0,4.96,.26,9.87,1.05,14.66,2.37,.28,.04,.47,.3,.43,.58-.04,.28-.3,.47-.58,.42v-.05Z"/>
    </g>
  </g>
  <g id="freepik--magnifying-glass--inject-2">
    <g id="freepik--Lens--inject-2">
      <path class="cls-16" d="M116.67,268.34h0c-.11-1.21-.88-2.26-2-2.74-2.98-1.52-6.52-1.52-9.5,0-1.12,.48-1.88,1.53-2,2.74h0l-2.66,69.87h0c-.1,1.45,.81,2.92,2.73,4,4.17,2.12,9.11,2.12,13.28,0,1.92-1.11,2.82-2.58,2.73-4h0l-2.58-69.87Z"/>
      <path class="cls-17" d="M105.21,265.6c-2.62,1.51-2.62,4,0,5.48,2.98,1.52,6.52,1.52,9.5,0,2.62-1.51,2.62-4,0-5.48-2.98-1.52-6.52-1.52-9.5,0Z"/>
      <path class="cls-15" d="M112.83,246.06c-1.8-.92-3.94-.92-5.74,0-.67,.29-1.12,.92-1.19,1.65h0v20.63h0c.06,.73,.52,1.37,1.19,1.66,1.81,.91,3.93,.91,5.74,0,.67-.29,1.13-.93,1.19-1.66v-20.63h0c-.07-.73-.52-1.36-1.19-1.65Z"/>
      <path class="cls-16" d="M155.16,195.53c0-.41,0-.81-.06-1.21s-.05-.79-.09-1.18-.05-.52-.08-.78c-.07-.68-.17-1.35-.28-2,0-.29-.1-.59-.16-.88s-.11-.55-.17-.82c-.17-.74-.35-1.46-.56-2.15-.11-.33-.21-.66-.32-1-.02-.05-.04-.1-.05-.15-.12-.32-.23-.63-.35-.93s-.28-.7-.44-1-.22-.49-.35-.73c-.07-.18-.16-.35-.26-.52-.1-.21-.21-.42-.33-.62,0,0-.05-.1-.08-.14s-.21-.36-.32-.54-.15-.23-.22-.34c-.51-.81-1.09-1.57-1.72-2.29l-.32-.36-.27-.28-.35-.35c-.31-.33-.65-.64-1-.93-.17-.15-.35-.29-.53-.42l-.55-.4c-.29-.21-.58-.4-.89-.58l-.24-.15h-.05l-14.17-8.18h-.08c-2.72-1.52-5.79-2.29-8.9-2.25-4.64,0-9.88,1.52-15.43,4.72-19.06,11-34.52,37.78-34.52,59.8,0,11,3.84,18.7,10,22.32h.06l14.18,8.17h.06l.17,.09c.27,.16,.54,.3,.82,.43,.34,.17,.69,.32,1,.46s.63,.25,1,.35l.51,.15c.18,.07,.36,.12,.55,.16,.18,.06,.37,.1,.56,.14,.13,.04,.27,.07,.41,.09,.24,.05,.5,.1,.75,.13,.06,0,.11,0,.17,0l.9,.12c5.15,.54,11.12-.91,17.52-4.6,19.07-11,34.53-37.79,34.53-59.8-.02-.51-.03-1.03-.05-1.55Zm-23.12-15.57c.74,2.74,1.1,5.56,1.08,8.4,0,19.42-14.21,44-31,53.74-2.45,1.46-5.1,2.56-7.87,3.27-.74-2.74-1.11-5.57-1.09-8.41,0-19.42,14.21-44,31-53.74,2.46-1.46,5.11-2.56,7.88-3.26h0Z"/>
      <path class="cls-2" d="M95.77,259.04l-13.77-7.9c-6.21-3.63-10-11.35-10-22.31,0-9.82,3.08-20.58,8.17-30.46l14.18,8.18c-5.1,9.88-8.17,20.64-8.17,30.46-.05,10.69,3.61,18.31,9.59,22.03Z"/>
      <path class="cls-9" d="M155.07,195.54c0-.41,0-.81-.06-1.21s-.05-.79-.09-1.18-.05-.52-.08-.78c-.07-.68-.17-1.35-.28-2,0-.29-.1-.59-.16-.88s-.11-.55-.17-.82c-.17-.74-.35-1.46-.56-2.15-.11-.33-.21-.66-.32-1-.02-.05-.04-.1-.05-.15-.12-.32-.23-.63-.35-.93s-.28-.7-.44-1-.22-.49-.35-.73c-.07-.18-.16-.35-.26-.52-.1-.21-.21-.42-.33-.62,0,0-.05-.1-.08-.14s-.21-.36-.32-.54-.15-.23-.22-.34c-.51-.81-1.09-1.57-1.72-2.29l-.32-.36-.27-.28-.35-.35c-.31-.33-.65-.64-1-.93-.17-.15-.35-.29-.53-.42l-.55-.4c-.29-.21-.58-.4-.89-.58-6.27-3.81-15-3.36-24.71,2.23-19.07,11-34.53,37.78-34.53,59.8,0,11.15,4,18.94,10.35,22.48,.27,.16,.54,.3,.82,.43,.34,.17,.69,.32,1,.46s.63,.25,1,.35l.51,.15c.18,.07,.36,.12,.55,.16,.18,.06,.37,.1,.56,.14,.13,.04,.27,.07,.41,.09,.24,.05,.5,.1,.75,.13,.06,0,.11,0,.17,0l.9,.12c5.15,.54,11.12-.91,17.52-4.6,19.07-11,34.53-37.79,34.53-59.8-.05-.5-.06-1.02-.08-1.54Zm-38,55.31c-4.28,2.47-8.4,3.77-11.92,3.77-6.61,0-9.65-4.51-11-9.24-.74-2.74-1.11-5.57-1.09-8.41,0-19.42,14.21-44,31-53.74,2.46-1.46,5.11-2.56,7.88-3.26,1.31-.33,2.65-.5,4-.51,10.93,0,12.1,12.34,12.1,17.65,.05,19.42-14.15,44.04-30.97,53.74Z"/>
      <path class="cls-2" d="M148.18,197.14c0,19.42-14.2,44-31,53.74-4.28,2.47-8.4,3.77-11.92,3.77-6.61,0-9.65-4.51-11-9.24,2.77-.71,5.42-1.81,7.87-3.27,16.82-9.71,31-34.32,31-53.74,.02-2.84-.34-5.66-1.08-8.4,1.31-.33,2.65-.5,4-.51,10.96-.04,12.13,12.3,12.13,17.65Z"/>
      <path class="cls-8" d="M142.14,193.71c0,19.42-14.2,44-31,53.74-4.28,2.47-8.4,3.77-11.92,3.77-.7,0-1.4-.06-2.09-.17-1.35-1.67-2.34-3.6-2.89-5.68-.74-2.74-1.11-5.57-1.09-8.41,0-19.42,14.21-44,31-53.74,2.46-1.46,5.11-2.56,7.88-3.26,1.31-.33,2.65-.5,4-.51,.7,0,1.41,.06,2.1,.17,3.5,4.07,4.01,10.6,4.01,14.09Z"/>
      <path class="cls-2" d="M108,272.04l-1.79,71.33c-1-.25-1.95-.63-2.85-1.13-1.92-1.11-2.83-2.58-2.73-4h0l2.66-69.86c.12,1.21,.88,2.26,2,2.74,.85,.45,1.76,.76,2.71,.92Z"/>
    </g>
  </g>
  <g id="freepik--Character--inject-2">
    <g id="freepik--character--inject-2">
      <g id="freepik--Character2--inject-2">
        <path class="cls-10" d="M373.13,202.02c0-.77-1.49-9-2.48-13.54l-9.63,3,1.71,8.43,8.12,6.51c2.51-.55,2.34-3.63,2.28-4.4Z"/>
        <path class="cls-15" d="M347.97,160.78h2.05c7.92-.01,14.33-6.43,14.34-14.35h0c0-8.48-6.89-15.36-15.37-15.36h0c-8.48,0-15.36,6.88-15.37,15.36h0c0,7.93,6.42,14.35,14.35,14.35Z"/>
        <polygon class="cls-4" points="326.56 184.75 322.01 193.09 329.09 199.16 335.58 188.88 326.56 184.75"/>
        <path class="cls-16" d="M343.64,166.14c-4.51,.05-9.48,1.69-11.19,5.23s-7.09,14.57-7.09,14.57c0,0,4,5.84,10.32,5.43l7.96-25.23Z"/>
        <g class="cls-1">
          <path d="M343.64,166.14c-4.51,.05-9.48,1.69-11.19,5.23s-7.09,14.57-7.09,14.57c0,0,4,5.84,10.32,5.43l7.96-25.23Z"/>
        </g>
        <path class="cls-15" d="M358.87,314.47v-1c-.39,1.16-2.2,6.15-4.94,8.65-2.18,2-5.15,4.28-5.91,6.49s4.14,3.08,6.18,2.72c2.72-.46,5.21-1.8,7.09-3.81,1.17-1.43,1.92-3.14,2.75-4.27s2.77-2.4,3.22-3.71c.14-1.22,0-2.46-.4-3.62-.32-1.22-.66-2.57-1.08-2.45v.75c-.98,.78-2.21,1.19-3.46,1.17-.96,.05-3.46-.15-3.45-.92Z"/>
        <path class="cls-10" d="M351.96,323.87c.68-.6,1.36-1.19,2-1.75,1.84-1.94,3.28-4.23,4.22-6.73,.47-1.16,.72-2.39,.72-3.64v-3.93h6.91v6.4h0v.17h0c-.33,1.44-3.5,5.26-5.3,7.75-1.21,1.67-3.5,3.79-6.24,4.16s-4-.46-2.31-2.43Z"/>
        <path class="cls-15" d="M333.2,307.8v-1c-.39,1.16-2.2,6.14-4.94,8.64-2.18,2-5.15,4.29-5.91,6.5s4.14,3.08,6.17,2.72c2.72-.46,5.22-1.8,7.1-3.81,1.17-1.43,1.91-3.14,2.75-4.27s2.76-2.4,3.22-3.71c.13-1.22,0-2.46-.4-3.62-.32-1.22-.67-2.57-1.08-2.45v.75c-.99,.77-2.21,1.19-3.46,1.17-1.01,.06-3.46-.14-3.45-.92Z"/>
        <path class="cls-10" d="M326.29,317.21l2-1.75c1.84-1.94,3.27-4.23,4.21-6.73,.48-1.15,.73-2.39,.73-3.64v-3.95h6.91v6.41h0v.18h0c-.33,1.44-3.5,5.26-5.3,7.75-1.21,1.67-3.5,3.79-6.25,4.16-2.66,.36-3.99-.5-2.3-2.43Z"/>
        <path class="cls-13" d="M364.36,207.14c5.36,11.7-.19,52.91-.19,52.91,.16,1.9,2.33,5.63,3.14,14,1,9.88-1.5,34.66-1.5,34.66-2.14,1.25-4.76,1.35-7,.28,0,0-6.58-37.33-7.82-47.15-1.08-8.56-3.16-28.69-3.16-28.69l-5.89,28.65c.92,3.29,1.47,6.68,1.63,10.09,.14,5.8-3.38,31.24-3.38,31.24-.68,1.3-5.83,1.61-7.18,0,0,0-3-35.71-3.65-42.66-.36-4.15,4.37-55,4.37-55l30.63,1.67Z"/>
        <path class="cls-15" d="M347.89,233.14l-1.73-9.57s-7.36-1.52-10.7-4.66c2.31,2.7,5.32,4.7,8.7,5.78l1.95,8.37-3.41,25.32,5.19-25.24Z"/>
        <path class="cls-16" d="M354.96,166.47h0c3.99,.97,7.32,3.69,9.06,7.41,1.26,2.79,1.38,5.97,.33,8.85l-4.79,13.84s2.24,5.42,4.84,10.53c-12,6.71-27,3.18-30.61-1.71-.15-1,.06-5.71-.23-11-.31-5.67-1.09-12.08-.2-15.59,1.65-6.51,4.76-12.62,10.93-12.62l10.67,.29Z"/>
        <path class="cls-16" d="M354.96,166.47c4.09,.58,10.47,1.39,13.29,11.35,2.75,9.71,3.39,13.09,3.39,13.09,0,0-3.36,3.92-10.16,3.88l-2.12-7.48-4.4-20.84Z"/>
        <path class="cls-10" d="M339.36,138.85c-1.62,.95-3.63,5-3.43,13.6,.17,7.25,2.52,9,3.7,9.56s3.46,.2,5.67-.17v4.35s-3.06,3.56-2.87,5.55,4.42,2.47,7.28,.52c1.86-1.34,3.45-3,4.7-4.92v-10.52c.96,1.19,2.71,1.37,3.9,.41,.01-.01,.03-.02,.04-.04,2.44-1.62,2.53-5.64,1.11-7.08s-4.48-1-5.05,1c-2.91-.12-5.73-.97-8.23-2.46-3.71-1.99-6.24-5.63-6.82-9.8Z"/>
        <path class="cls-15" d="M344.04,150.62c-.05,.51,.33,.95,.83,1,0,0,.02,0,.03,0,.52,.05,.99-.34,1.03-.86,.05-.52-.33-.99-.86-1.03s-.99,.34-1.03,.86c0,.01,0,.02,0,.03Z"/>
        <path class="cls-4" d="M343.79,156.77l-2.12,.68c.17,.59,.78,.93,1.37,.76,0,0,0,0,0,0,.6-.2,.92-.84,.74-1.44Z"/>
        <path class="cls-15" d="M336.56,147.82l1.8-1.28c-.32-.5-.99-.66-1.49-.34-.01,0-.03,.02-.04,.03-.5,.37-.62,1.07-.27,1.59Z"/>
        <path class="cls-15" d="M336.98,149.96c0,.51,.4,.93,.9,.94,.51,0,.93-.4,.94-.9,0-.48-.36-.89-.84-.93-.52-.03-.97,.36-1,.88,0,0,0,.02,0,.02Z"/>
        <polygon class="cls-4" points="341.29 149.44 341.14 154.93 338.25 154.04 341.29 149.44"/>
        <path class="cls-4" d="M345.36,161.84c2.33-.31,7.13-1.68,7.88-3.58-.3,.96-.89,1.8-1.68,2.42-1.44,1.23-6.2,2.61-6.2,2.61v-1.45Z"/>
        <path class="cls-2" d="M361.02,192.35c-.92-2.49-1.7-5.03-2.35-7.6,0,0,.38,5.65,2,8.69l.35-1.09Z"/>
        <polygon class="cls-12" points="307.13 184.24 333.61 191.21 341.43 224.08 316.25 216.76 307.13 184.24"/>
        <g class="cls-1">
          <path d="M318.68,205.98c-.25,.67-1.7,2.54-4.78,2.39l-.38-1.36,5.16-1.03Z"/>
        </g>
        <g class="cls-1">
          <path d="M324.6,207.01c.11,.88,1.91,2.5,5,3.51,3.46,1.16,8.78,.55,8.78,.55l-.48-1.64-13.3-2.42Z"/>
        </g>
        <g class="cls-1">
          <path d="M314.89,189l-.22-1c-.12-.56,1.43-.59,3.47-.06l3.9,1c2,.53,3.79,1.41,3.91,2l.22,1-11.28-2.94Z"/>
        </g>
        <path class="cls-13" d="M313.05,185.19c-.08-.35,.55-.44,1.41-.21l1.54,.43s-.46-2.19,3-1.42c1.87,.27,3.45,1.5,4.18,3.24l1.65,.47c.91,.26,1.73,.75,1.84,1.1l.2,.63-13.65-3.6s-.09-.29-.17-.64Z"/>
        <path class="cls-13" d="M314.93,186.28c1.25,.3,1.77,.46,1.95,1.32s.3,1.71,.3,1.71l6,1.59s-.29-1.24-.38-1.73,.11-.77,1.07-.52l.08-.38-9.46-2.41,.44,.42Z"/>
        <path class="cls-13" d="M314.72,189.14l-.22-1c-.12-.56,1.44-.58,3.47-.05l3.9,1c2,.53,3.79,1.41,3.91,2l.22,1-11.28-2.95Z"/>
        <path class="cls-10" d="M370.85,206.37l-8.12-6.51s-17.92,3.19-20,3.36c-2.28,.06-4.37-1.28-5.25-3.39-.8-2.07-2.22-1.81-2.22-1.81,0,0,.63,2.62,.82,3.45s-4.85,1.53-7.65,.58-6.85,.43-4.34,4.24,7.4,4.26,10.79,4.26c1.42,0,2.83-.11,4.24-.29,1.1-.14,2.19-.25,3.29-.33,6.95-.49,25.28-2.57,28.44-3.56Z"/>
        <path class="cls-10" d="M309.83,193.85s.95,3.38,1.17,4.19,3.31,2.27,5.25,2.8,4.08,1.17,3.16,3.89c-.85,2.51-4.05,3.09-5.69,3s-3.86-1.63-4.74-4.15c-1.12-3.2-.52-6.62-1-8.5s.87-2.35,1.85-1.23Z"/>
      </g>
      <path class="cls-15" d="M372.78,172.31h0c-5.32,0-9.63-4.32-9.64-9.64v-22.63h0c5.32,0,9.63,4.32,9.64,9.64v22.63Z"/>
      <path class="cls-15" d="M362.83,140.83l4-2.14c-.52-1.09-1.82-1.56-2.92-1.04-.03,.01-.06,.03-.08,.04-1.12,.61-1.56,1.99-1,3.14Z"/>
    </g>
  </g>
  <g id="freepik--Cloud--inject-2">
    <g id="freepik--cloud--inject-2">
      <path id="freepik--Nube--inject-2" class="cls-3" d="M100.65,45.14l-6.87,4c.04-.3,.06-.61,.06-.91v-2c0-3.54-2.48-5-5.55-3.2-1.32,.81-2.44,1.89-3.3,3.17-.51-4.44-4-6.1-8.24-3.65-4.58,2.64-8.3,9.08-8.3,14.37v3c-.03,1.19,.21,2.36,.71,3.44l-5.7,3.29c-1.81,1.17-2.96,3.14-3.1,5.29,0,2,1.38,2.75,3.08,1.77l37.19-21.47c1.82-1.18,2.96-3.17,3.07-5.33,.02-1.96-1.34-2.77-3.05-1.77Z"/>
    </g>
  </g>
</svg>